<mxfile host="Electron" agent="Mozilla/5.0 (X11; Linux x86_64) AppleWebKit/537.36 (KHTML, like Gecko) draw.io/26.0.16 Chrome/132.0.6834.196 Electron/34.2.0 Safari/537.36" version="26.0.16" pages="3">
  <diagram id="HiiScFasgoYY5qpiw_RF" name="DFD">
    <mxGraphModel dx="1235" dy="728" grid="1" gridSize="10" guides="1" tooltips="1" connect="1" arrows="1" fold="1" page="1" pageScale="1" pageWidth="1169" pageHeight="827" math="0" shadow="0">
      <root>
        <mxCell id="0" />
        <mxCell id="1" parent="0" />
        <mxCell id="mypj5gCoi71KUOOIKyDf-4" style="edgeStyle=orthogonalEdgeStyle;rounded=0;orthogonalLoop=1;jettySize=auto;html=1;entryX=1;entryY=0.5;entryDx=0;entryDy=0;exitX=0.5;exitY=1;exitDx=0;exitDy=0;curved=1;strokeWidth=2;fillColor=#e1d5e7;strokeColor=#9673a6;dashed=1;dashPattern=1 2;" parent="1" source="LPsC4D5EyCyppxMEycw8-42" target="mypj5gCoi71KUOOIKyDf-2" edge="1">
          <mxGeometry relative="1" as="geometry" />
        </mxCell>
        <mxCell id="Cvpwjpj4fG-fFimIUArW-4" style="edgeStyle=orthogonalEdgeStyle;rounded=0;orthogonalLoop=1;jettySize=auto;html=1;entryX=1;entryY=0.5;entryDx=0;entryDy=0;exitX=1;exitY=0.5;exitDx=0;exitDy=0;curved=1;strokeWidth=2;fillColor=#e1d5e7;strokeColor=#9673a6;dashed=1;dashPattern=1 1;" parent="1" source="LPsC4D5EyCyppxMEycw8-42" target="Cvpwjpj4fG-fFimIUArW-1" edge="1">
          <mxGeometry relative="1" as="geometry">
            <Array as="points">
              <mxPoint x="1120" y="215" />
              <mxPoint x="1120" y="680" />
            </Array>
          </mxGeometry>
        </mxCell>
        <mxCell id="mypj5gCoi71KUOOIKyDf-3" style="edgeStyle=orthogonalEdgeStyle;rounded=0;orthogonalLoop=1;jettySize=auto;html=1;entryX=0;entryY=0.5;entryDx=0;entryDy=0;exitX=0.5;exitY=1;exitDx=0;exitDy=0;curved=1;strokeWidth=2;fillColor=#e1d5e7;strokeColor=#9673a6;dashed=1;dashPattern=1 1;" parent="1" source="LPsC4D5EyCyppxMEycw8-27" target="mypj5gCoi71KUOOIKyDf-2" edge="1">
          <mxGeometry relative="1" as="geometry" />
        </mxCell>
        <mxCell id="Cvpwjpj4fG-fFimIUArW-3" style="edgeStyle=orthogonalEdgeStyle;rounded=0;orthogonalLoop=1;jettySize=auto;html=1;exitX=0;exitY=0.75;exitDx=0;exitDy=0;entryX=0;entryY=0.5;entryDx=0;entryDy=0;strokeWidth=2;fillColor=#e1d5e7;strokeColor=#9673a6;curved=1;dashed=1;dashPattern=1 1;" parent="1" source="LPsC4D5EyCyppxMEycw8-27" target="Cvpwjpj4fG-fFimIUArW-1" edge="1">
          <mxGeometry relative="1" as="geometry">
            <Array as="points">
              <mxPoint x="160" y="375" />
              <mxPoint x="160" y="680" />
            </Array>
          </mxGeometry>
        </mxCell>
        <mxCell id="LPsC4D5EyCyppxMEycw8-41" style="edgeStyle=orthogonalEdgeStyle;rounded=0;orthogonalLoop=1;jettySize=auto;html=1;entryX=0.5;entryY=1;entryDx=0;entryDy=0;curved=1;fillColor=#dae8fc;strokeColor=#6c8ebf;strokeWidth=2;exitX=1;exitY=0.5;exitDx=0;exitDy=0;" parent="1" source="joTjIWY9Fa9STBkYCQVr-1" target="c0Hb3E_Yx5JGQnIw2G94-8" edge="1">
          <mxGeometry relative="1" as="geometry">
            <Array as="points">
              <mxPoint x="470" y="285" />
              <mxPoint x="470" y="440" />
              <mxPoint x="910" y="440" />
            </Array>
          </mxGeometry>
        </mxCell>
        <mxCell id="LPsC4D5EyCyppxMEycw8-43" value="CSV Payload" style="edgeLabel;html=1;align=center;verticalAlign=middle;resizable=0;points=[];" parent="LPsC4D5EyCyppxMEycw8-41" vertex="1" connectable="0">
          <mxGeometry x="0.1357" y="4" relative="1" as="geometry">
            <mxPoint x="52" y="4" as="offset" />
          </mxGeometry>
        </mxCell>
        <mxCell id="OWXE3b7dAz40jmUgR_1e-3" style="edgeStyle=orthogonalEdgeStyle;rounded=0;orthogonalLoop=1;jettySize=auto;html=1;entryX=0.5;entryY=1;entryDx=0;entryDy=0;exitX=0.5;exitY=1;exitDx=0;exitDy=0;curved=1;strokeWidth=2;fillColor=#d5e8d4;strokeColor=#82b366;" parent="1" source="joTjIWY9Fa9STBkYCQVr-1" target="c0Hb3E_Yx5JGQnIw2G94-4" edge="1">
          <mxGeometry relative="1" as="geometry">
            <Array as="points">
              <mxPoint x="330" y="340" />
              <mxPoint x="90" y="340" />
            </Array>
          </mxGeometry>
        </mxCell>
        <mxCell id="OWXE3b7dAz40jmUgR_1e-6" value="Request Id" style="edgeLabel;html=1;align=center;verticalAlign=middle;resizable=0;points=[];" parent="OWXE3b7dAz40jmUgR_1e-3" vertex="1" connectable="0">
          <mxGeometry x="0.07" y="1" relative="1" as="geometry">
            <mxPoint as="offset" />
          </mxGeometry>
        </mxCell>
        <mxCell id="OWXE3b7dAz40jmUgR_1e-4" style="edgeStyle=orthogonalEdgeStyle;rounded=0;orthogonalLoop=1;jettySize=auto;html=1;entryX=0.5;entryY=0;entryDx=0;entryDy=0;exitX=0.5;exitY=0;exitDx=0;exitDy=0;curved=1;fillColor=#d5e8d4;strokeColor=#82b366;strokeWidth=2;" parent="1" source="joTjIWY9Fa9STBkYCQVr-1" target="c0Hb3E_Yx5JGQnIw2G94-4" edge="1">
          <mxGeometry relative="1" as="geometry">
            <Array as="points">
              <mxPoint x="330" y="230" />
              <mxPoint x="90" y="230" />
            </Array>
          </mxGeometry>
        </mxCell>
        <mxCell id="OWXE3b7dAz40jmUgR_1e-5" value="Webhook Request" style="edgeLabel;html=1;align=center;verticalAlign=middle;resizable=0;points=[];" parent="OWXE3b7dAz40jmUgR_1e-4" vertex="1" connectable="0">
          <mxGeometry x="-0.0838" relative="1" as="geometry">
            <mxPoint x="-25" as="offset" />
          </mxGeometry>
        </mxCell>
        <mxCell id="c0Hb3E_Yx5JGQnIw2G94-28" style="edgeStyle=orthogonalEdgeStyle;rounded=0;orthogonalLoop=1;jettySize=auto;html=1;entryX=0;entryY=0.5;entryDx=0;entryDy=0;curved=1;fillColor=#f8cecc;strokeColor=#b85450;strokeWidth=2;dashed=1;" parent="1" source="u2Zf4Redh7HIGVioDYVP-1" target="c0Hb3E_Yx5JGQnIw2G94-20" edge="1">
          <mxGeometry relative="1" as="geometry" />
        </mxCell>
        <mxCell id="c0Hb3E_Yx5JGQnIw2G94-29" value="Status" style="edgeLabel;html=1;align=center;verticalAlign=middle;resizable=0;points=[];" parent="c0Hb3E_Yx5JGQnIw2G94-28" vertex="1" connectable="0">
          <mxGeometry x="-0.1248" y="22" relative="1" as="geometry">
            <mxPoint x="44" y="-73" as="offset" />
          </mxGeometry>
        </mxCell>
        <mxCell id="LPsC4D5EyCyppxMEycw8-23" style="edgeStyle=orthogonalEdgeStyle;rounded=0;orthogonalLoop=1;jettySize=auto;html=1;curved=1;fillColor=#fff2cc;strokeColor=#d6b656;strokeWidth=2;" parent="1" source="u2Zf4Redh7HIGVioDYVP-1" edge="1">
          <mxGeometry relative="1" as="geometry">
            <mxPoint x="270" y="550" as="targetPoint" />
            <Array as="points">
              <mxPoint x="220" y="423" />
              <mxPoint x="220" y="550" />
            </Array>
          </mxGeometry>
        </mxCell>
        <mxCell id="c0Hb3E_Yx5JGQnIw2G94-1" value="&lt;span style=&quot;white-space: pre;&quot;&gt;&#x9;&lt;/span&gt;&amp;nbsp;Account Info" style="html=1;dashed=0;whiteSpace=wrap;shape=mxgraph.dfd.dataStoreID;align=left;spacingLeft=3;points=[[0,0],[0.5,0],[1,0],[0,0.5],[1,0.5],[0,1],[0.5,1],[1,1]];fillColor=#ffe6cc;strokeColor=#d79b00;" parent="1" vertex="1">
          <mxGeometry x="270.06" y="535" width="120" height="30" as="geometry" />
        </mxCell>
        <mxCell id="c0Hb3E_Yx5JGQnIw2G94-3" value="Credential Info" style="html=1;dashed=0;whiteSpace=wrap;shape=partialRectangle;right=0;fillColor=#ffe6cc;strokeColor=#d79b00;" parent="1" vertex="1">
          <mxGeometry x="270.06" y="580" width="120" height="30" as="geometry" />
        </mxCell>
        <mxCell id="OWXE3b7dAz40jmUgR_1e-1" style="edgeStyle=orthogonalEdgeStyle;rounded=0;orthogonalLoop=1;jettySize=auto;html=1;entryX=0;entryY=0.5;entryDx=0;entryDy=0;strokeWidth=2;fillColor=#dae8fc;strokeColor=#6c8ebf;" parent="1" source="c0Hb3E_Yx5JGQnIw2G94-4" target="joTjIWY9Fa9STBkYCQVr-1" edge="1">
          <mxGeometry relative="1" as="geometry" />
        </mxCell>
        <mxCell id="OWXE3b7dAz40jmUgR_1e-2" value="API Request" style="edgeLabel;html=1;align=center;verticalAlign=middle;resizable=0;points=[];" parent="OWXE3b7dAz40jmUgR_1e-1" vertex="1" connectable="0">
          <mxGeometry x="-0.1447" y="-1" relative="1" as="geometry">
            <mxPoint x="-8" y="-1" as="offset" />
          </mxGeometry>
        </mxCell>
        <mxCell id="c0Hb3E_Yx5JGQnIw2G94-4" value="User" style="html=1;dashed=0;whiteSpace=wrap;fillColor=#f5f5f5;strokeColor=#666666;rounded=1;fontColor=#333333;" parent="1" vertex="1">
          <mxGeometry x="40" y="270" width="100" height="30" as="geometry" />
        </mxCell>
        <mxCell id="c0Hb3E_Yx5JGQnIw2G94-6" value="Image Storage" style="html=1;dashed=1;whiteSpace=wrap;shape=partialRectangle;right=0;left=0;fillColor=#ffe6cc;strokeColor=#d79b00;dashPattern=8 8;" parent="1" vertex="1">
          <mxGeometry x="860.0300000000001" y="60" width="100" height="30" as="geometry" />
        </mxCell>
        <mxCell id="uUw9M3Cajw-eWdwdoRyD-8" style="edgeStyle=orthogonalEdgeStyle;rounded=0;orthogonalLoop=1;jettySize=auto;html=1;entryX=0.5;entryY=1;entryDx=0;entryDy=0;curved=1;fillColor=#fff2cc;strokeColor=#d6b656;strokeWidth=2;" parent="1" source="c0Hb3E_Yx5JGQnIw2G94-7" target="c0Hb3E_Yx5JGQnIw2G94-6" edge="1">
          <mxGeometry relative="1" as="geometry" />
        </mxCell>
        <mxCell id="LPsC4D5EyCyppxMEycw8-33" style="edgeStyle=orthogonalEdgeStyle;rounded=0;orthogonalLoop=1;jettySize=auto;html=1;entryX=1;entryY=0.5;entryDx=0;entryDy=0;curved=1;fillColor=#f8cecc;strokeColor=#b85450;dashed=1;strokeWidth=2;" parent="1" source="c0Hb3E_Yx5JGQnIw2G94-7" target="c0Hb3E_Yx5JGQnIw2G94-20" edge="1">
          <mxGeometry relative="1" as="geometry" />
        </mxCell>
        <mxCell id="LPsC4D5EyCyppxMEycw8-34" value="Status" style="edgeLabel;html=1;align=center;verticalAlign=middle;resizable=0;points=[];" parent="LPsC4D5EyCyppxMEycw8-33" vertex="1" connectable="0">
          <mxGeometry x="-0.049" relative="1" as="geometry">
            <mxPoint as="offset" />
          </mxGeometry>
        </mxCell>
        <mxCell id="LPsC4D5EyCyppxMEycw8-35" style="edgeStyle=orthogonalEdgeStyle;rounded=0;orthogonalLoop=1;jettySize=auto;html=1;entryX=0.5;entryY=1;entryDx=0;entryDy=0;curved=1;strokeWidth=2;fillColor=#f8cecc;strokeColor=#b85450;dashed=1;" parent="1" source="c0Hb3E_Yx5JGQnIw2G94-8" target="c0Hb3E_Yx5JGQnIw2G94-20" edge="1">
          <mxGeometry relative="1" as="geometry">
            <Array as="points">
              <mxPoint x="800" y="280" />
              <mxPoint x="800" y="340" />
              <mxPoint x="640" y="340" />
            </Array>
          </mxGeometry>
        </mxCell>
        <mxCell id="LPsC4D5EyCyppxMEycw8-36" value="Status" style="edgeLabel;html=1;align=center;verticalAlign=middle;resizable=0;points=[];" parent="LPsC4D5EyCyppxMEycw8-35" vertex="1" connectable="0">
          <mxGeometry x="-0.1034" y="-5" relative="1" as="geometry">
            <mxPoint x="-39" y="5" as="offset" />
          </mxGeometry>
        </mxCell>
        <mxCell id="LPsC4D5EyCyppxMEycw8-38" style="edgeStyle=orthogonalEdgeStyle;rounded=0;orthogonalLoop=1;jettySize=auto;html=1;entryX=1;entryY=0.5;entryDx=0;entryDy=0;exitX=1;exitY=0.5;exitDx=0;exitDy=0;curved=1;fillColor=#dae8fc;strokeColor=#6c8ebf;strokeWidth=2;" parent="1" source="c0Hb3E_Yx5JGQnIw2G94-8" target="c0Hb3E_Yx5JGQnIw2G94-18" edge="1">
          <mxGeometry relative="1" as="geometry">
            <Array as="points">
              <mxPoint x="960" y="260" />
              <mxPoint x="1010" y="260" />
              <mxPoint x="1010" y="430" />
            </Array>
          </mxGeometry>
        </mxCell>
        <mxCell id="mypj5gCoi71KUOOIKyDf-5" style="edgeStyle=orthogonalEdgeStyle;rounded=0;orthogonalLoop=1;jettySize=auto;html=1;entryX=1;entryY=0.5;entryDx=0;entryDy=0;exitX=1;exitY=0.5;exitDx=0;exitDy=0;strokeWidth=2;fillColor=#fff2cc;strokeColor=#d6b656;curved=1;" parent="1" source="c0Hb3E_Yx5JGQnIw2G94-8" target="uUw9M3Cajw-eWdwdoRyD-2" edge="1">
          <mxGeometry relative="1" as="geometry">
            <Array as="points">
              <mxPoint x="960" y="260" />
              <mxPoint x="1060" y="260" />
              <mxPoint x="1060" y="550" />
            </Array>
          </mxGeometry>
        </mxCell>
        <mxCell id="mypj5gCoi71KUOOIKyDf-6" style="edgeStyle=orthogonalEdgeStyle;rounded=0;orthogonalLoop=1;jettySize=auto;html=1;entryX=1;entryY=0.5;entryDx=0;entryDy=0;exitX=1;exitY=0.5;exitDx=0;exitDy=0;fillColor=#fff2cc;strokeColor=#d6b656;strokeWidth=2;curved=1;" parent="1" source="c0Hb3E_Yx5JGQnIw2G94-8" target="c0Hb3E_Yx5JGQnIw2G94-32" edge="1">
          <mxGeometry relative="1" as="geometry">
            <Array as="points">
              <mxPoint x="960" y="260" />
              <mxPoint x="1080" y="260" />
              <mxPoint x="1080" y="595" />
            </Array>
          </mxGeometry>
        </mxCell>
        <mxCell id="c0Hb3E_Yx5JGQnIw2G94-18" value="&lt;font style=&quot;font-size: 11px;&quot;&gt;CSV Validation&lt;/font&gt;" style="shape=ellipse;html=1;dashed=0;whiteSpace=wrap;aspect=fixed;perimeter=ellipsePerimeter;fillColor=#dae8fc;strokeColor=#6c8ebf;" parent="1" vertex="1">
          <mxGeometry x="910.06" y="400" width="60" height="60" as="geometry" />
        </mxCell>
        <mxCell id="LPsC4D5EyCyppxMEycw8-12" style="edgeStyle=orthogonalEdgeStyle;rounded=0;orthogonalLoop=1;jettySize=auto;html=1;entryX=0.5;entryY=1;entryDx=0;entryDy=0;curved=1;exitX=0.5;exitY=0;exitDx=0;exitDy=0;fillColor=#d5e8d4;strokeColor=#82b366;strokeWidth=2;dashed=1;" parent="1" source="c0Hb3E_Yx5JGQnIw2G94-20" target="LPsC4D5EyCyppxMEycw8-3" edge="1">
          <mxGeometry relative="1" as="geometry" />
        </mxCell>
        <mxCell id="LPsC4D5EyCyppxMEycw8-13" value="Status" style="edgeLabel;html=1;align=center;verticalAlign=middle;resizable=0;points=[];" parent="LPsC4D5EyCyppxMEycw8-12" vertex="1" connectable="0">
          <mxGeometry x="0.0114" relative="1" as="geometry">
            <mxPoint as="offset" />
          </mxGeometry>
        </mxCell>
        <mxCell id="c0Hb3E_Yx5JGQnIw2G94-20" value="ID&lt;span style=&quot;white-space: pre;&quot;&gt;&#x9;&lt;/span&gt;&amp;nbsp;Request Info" style="html=1;dashed=0;whiteSpace=wrap;shape=mxgraph.dfd.dataStoreID;align=left;spacingLeft=3;points=[[0,0],[0.5,0],[1,0],[0,0.5],[1,0.5],[0,1],[0.5,1],[1,1]];fillColor=#f8cecc;strokeColor=#b85450;" parent="1" vertex="1">
          <mxGeometry x="580.06" y="275" width="120" height="30" as="geometry" />
        </mxCell>
        <mxCell id="c0Hb3E_Yx5JGQnIw2G94-32" value="ID&lt;span style=&quot;white-space: pre;&quot;&gt;&#x9;&lt;/span&gt;&amp;nbsp;Product Info" style="html=1;dashed=0;whiteSpace=wrap;shape=mxgraph.dfd.dataStoreID;align=left;spacingLeft=3;points=[[0,0],[0.5,0],[1,0],[0,0.5],[1,0.5],[0,1],[0.5,1],[1,1]];fillColor=#ffe6cc;strokeColor=#d79b00;" parent="1" vertex="1">
          <mxGeometry x="880.03" y="580" width="110" height="30" as="geometry" />
        </mxCell>
        <mxCell id="uUw9M3Cajw-eWdwdoRyD-2" value="Product Image Mapping" style="html=1;dashed=0;whiteSpace=wrap;shape=partialRectangle;right=0;fillColor=#ffe6cc;strokeColor=#d79b00;" parent="1" vertex="1">
          <mxGeometry x="870.0600000000001" y="535" width="140" height="30" as="geometry" />
        </mxCell>
        <mxCell id="LPsC4D5EyCyppxMEycw8-6" style="edgeStyle=orthogonalEdgeStyle;rounded=0;orthogonalLoop=1;jettySize=auto;html=1;curved=1;fillColor=#d5e8d4;strokeColor=#82b366;strokeWidth=2;exitX=0;exitY=0.5;exitDx=0;exitDy=0;entryX=1;entryY=0.5;entryDx=0;entryDy=0;" parent="1" source="LPsC4D5EyCyppxMEycw8-3" target="LPsC4D5EyCyppxMEycw8-1" edge="1">
          <mxGeometry relative="1" as="geometry">
            <mxPoint x="470" y="160" as="targetPoint" />
          </mxGeometry>
        </mxCell>
        <mxCell id="SOsF4rY5x60xkgHgclAH-2" style="edgeStyle=orthogonalEdgeStyle;rounded=0;orthogonalLoop=1;jettySize=auto;html=1;entryX=0.5;entryY=1;entryDx=0;entryDy=0;fillColor=#fff2cc;strokeColor=#d6b656;startArrow=none;startFill=0;strokeWidth=2;curved=1;" parent="1" source="LPsC4D5EyCyppxMEycw8-1" target="SOsF4rY5x60xkgHgclAH-1" edge="1">
          <mxGeometry relative="1" as="geometry" />
        </mxCell>
        <mxCell id="LPsC4D5EyCyppxMEycw8-3" value="Change Data Capture" style="shape=ellipse;html=1;dashed=0;whiteSpace=wrap;aspect=fixed;perimeter=ellipsePerimeter;fillColor=#dae8fc;strokeColor=#6c8ebf;" parent="1" vertex="1">
          <mxGeometry x="591.29" y="106.22999999999999" width="97.53" height="97.53" as="geometry" />
        </mxCell>
        <mxCell id="LPsC4D5EyCyppxMEycw8-24" style="edgeStyle=orthogonalEdgeStyle;rounded=0;orthogonalLoop=1;jettySize=auto;html=1;entryX=0;entryY=0.627;entryDx=0;entryDy=0;entryPerimeter=0;exitX=0;exitY=0.5;exitDx=0;exitDy=0;curved=1;fillColor=#fff2cc;strokeColor=#d6b656;strokeWidth=2;" parent="1" source="u2Zf4Redh7HIGVioDYVP-1" target="c0Hb3E_Yx5JGQnIw2G94-3" edge="1">
          <mxGeometry relative="1" as="geometry">
            <Array as="points">
              <mxPoint x="200" y="423" />
              <mxPoint x="200" y="599" />
            </Array>
          </mxGeometry>
        </mxCell>
        <mxCell id="mypj5gCoi71KUOOIKyDf-2" value="Config &amp;amp; Credential Management Service" style="rounded=1;whiteSpace=wrap;html=1;fillColor=#e1d5e7;strokeColor=#9673a6;dashed=1;strokeWidth=1;dashPattern=12 12;" parent="1" vertex="1">
          <mxGeometry x="560" y="475" width="150" height="60" as="geometry" />
        </mxCell>
        <mxCell id="Cvpwjpj4fG-fFimIUArW-1" value="Log Management &amp;amp; Monitoring Service" style="rounded=1;whiteSpace=wrap;html=1;fillColor=#e1d5e7;strokeColor=#9673a6;dashed=1;dashPattern=8 8;" parent="1" vertex="1">
          <mxGeometry x="565.06" y="650" width="160" height="60" as="geometry" />
        </mxCell>
        <mxCell id="SOsF4rY5x60xkgHgclAH-1" value="webhook Info" style="html=1;dashed=0;whiteSpace=wrap;shape=partialRectangle;right=0;fillColor=#ffe6cc;strokeColor=#d79b00;" parent="1" vertex="1">
          <mxGeometry x="260.06000000000006" y="60" width="140" height="30" as="geometry" />
        </mxCell>
        <mxCell id="m9SyNlzjIwxCD_IH-LQB-1" value="" style="group" parent="1" vertex="1" connectable="0">
          <mxGeometry x="245.06" y="120" width="170" height="340" as="geometry" />
        </mxCell>
        <mxCell id="LPsC4D5EyCyppxMEycw8-27" value="" style="rounded=1;whiteSpace=wrap;html=1;glass=0;dashed=1;opacity=30;fillColor=#dae8fc;strokeColor=#6c8ebf;" parent="m9SyNlzjIwxCD_IH-LQB-1" vertex="1">
          <mxGeometry width="170" height="340" as="geometry" />
        </mxCell>
        <mxCell id="c0Hb3E_Yx5JGQnIw2G94-22" style="edgeStyle=orthogonalEdgeStyle;rounded=0;orthogonalLoop=1;jettySize=auto;html=1;curved=1;fillColor=#dae8fc;strokeColor=#6c8ebf;strokeWidth=2;startArrow=classic;startFill=1;exitX=0.5;exitY=1;exitDx=0;exitDy=0;" parent="m9SyNlzjIwxCD_IH-LQB-1" source="joTjIWY9Fa9STBkYCQVr-1" target="u2Zf4Redh7HIGVioDYVP-1" edge="1">
          <mxGeometry relative="1" as="geometry" />
        </mxCell>
        <mxCell id="c0Hb3E_Yx5JGQnIw2G94-23" value="AuthT, AuthZ" style="edgeLabel;html=1;align=center;verticalAlign=middle;resizable=0;points=[];" parent="c0Hb3E_Yx5JGQnIw2G94-22" vertex="1" connectable="0">
          <mxGeometry x="0.0439" y="3" relative="1" as="geometry">
            <mxPoint x="-3" as="offset" />
          </mxGeometry>
        </mxCell>
        <mxCell id="u2Zf4Redh7HIGVioDYVP-1" value="Auth Service" style="html=1;dashed=0;whiteSpace=wrap;fillColor=#e1d5e7;strokeColor=#9673a6;rounded=1;" parent="m9SyNlzjIwxCD_IH-LQB-1" vertex="1">
          <mxGeometry x="40" y="283" width="90" height="40" as="geometry" />
        </mxCell>
        <mxCell id="LPsC4D5EyCyppxMEycw8-14" style="edgeStyle=orthogonalEdgeStyle;rounded=0;orthogonalLoop=1;jettySize=auto;html=1;curved=1;fillColor=#d5e8d4;strokeColor=#82b366;strokeWidth=2;startArrow=classic;startFill=1;" parent="m9SyNlzjIwxCD_IH-LQB-1" source="LPsC4D5EyCyppxMEycw8-1" target="joTjIWY9Fa9STBkYCQVr-1" edge="1">
          <mxGeometry relative="1" as="geometry" />
        </mxCell>
        <mxCell id="LPsC4D5EyCyppxMEycw8-18" value="Webhook Call" style="edgeLabel;html=1;align=center;verticalAlign=middle;resizable=0;points=[];" parent="LPsC4D5EyCyppxMEycw8-14" vertex="1" connectable="0">
          <mxGeometry x="-0.4726" y="16" relative="1" as="geometry">
            <mxPoint x="-16" as="offset" />
          </mxGeometry>
        </mxCell>
        <mxCell id="LPsC4D5EyCyppxMEycw8-1" value="Notification Service (webhook)" style="html=1;dashed=0;whiteSpace=wrap;fillColor=#e1d5e7;strokeColor=#9673a6;rounded=1;" parent="m9SyNlzjIwxCD_IH-LQB-1" vertex="1">
          <mxGeometry x="20" y="10" width="130" height="50" as="geometry" />
        </mxCell>
        <mxCell id="joTjIWY9Fa9STBkYCQVr-1" value="API Gateway&lt;div&gt;Service&lt;/div&gt;" style="html=1;dashed=0;whiteSpace=wrap;rounded=1;fillColor=#e1d5e7;strokeColor=#9673a6;" parent="m9SyNlzjIwxCD_IH-LQB-1" vertex="1">
          <mxGeometry x="35" y="140" width="100" height="50" as="geometry" />
        </mxCell>
        <mxCell id="m9SyNlzjIwxCD_IH-LQB-2" value="" style="group" parent="1" vertex="1" connectable="0">
          <mxGeometry x="830.06" y="125" width="159.94000000000005" height="190" as="geometry" />
        </mxCell>
        <mxCell id="LPsC4D5EyCyppxMEycw8-42" value="" style="rounded=1;whiteSpace=wrap;html=1;glass=0;dashed=1;opacity=30;fillColor=#dae8fc;strokeColor=#6c8ebf;" parent="m9SyNlzjIwxCD_IH-LQB-2" vertex="1">
          <mxGeometry width="159.94" height="190" as="geometry" />
        </mxCell>
        <mxCell id="c0Hb3E_Yx5JGQnIw2G94-7" value="Image Processing service" style="html=1;dashed=0;whiteSpace=wrap;fillColor=#e1d5e7;strokeColor=#9673a6;rounded=1;" parent="m9SyNlzjIwxCD_IH-LQB-2" vertex="1">
          <mxGeometry x="19.97000000000014" y="20" width="120" height="50" as="geometry" />
        </mxCell>
        <mxCell id="LPsC4D5EyCyppxMEycw8-7" style="edgeStyle=orthogonalEdgeStyle;rounded=0;orthogonalLoop=1;jettySize=auto;html=1;entryX=0.5;entryY=1;entryDx=0;entryDy=0;curved=1;exitX=0.5;exitY=0;exitDx=0;exitDy=0;fillColor=#dae8fc;strokeColor=#6c8ebf;strokeWidth=2;" parent="m9SyNlzjIwxCD_IH-LQB-2" source="c0Hb3E_Yx5JGQnIw2G94-8" target="c0Hb3E_Yx5JGQnIw2G94-7" edge="1">
          <mxGeometry relative="1" as="geometry" />
        </mxCell>
        <mxCell id="LPsC4D5EyCyppxMEycw8-15" value="Image Payload" style="edgeLabel;html=1;align=center;verticalAlign=middle;resizable=0;points=[];" parent="LPsC4D5EyCyppxMEycw8-7" vertex="1" connectable="0">
          <mxGeometry x="0.229" y="-11" relative="1" as="geometry">
            <mxPoint x="-11" y="9" as="offset" />
          </mxGeometry>
        </mxCell>
        <mxCell id="c0Hb3E_Yx5JGQnIw2G94-8" value="CSV Processing service" style="html=1;dashed=0;whiteSpace=wrap;fillColor=#e1d5e7;strokeColor=#9673a6;rounded=1;" parent="m9SyNlzjIwxCD_IH-LQB-2" vertex="1">
          <mxGeometry x="30" y="115" width="100" height="50" as="geometry" />
        </mxCell>
      </root>
    </mxGraphModel>
  </diagram>
  <diagram id="ZFZxO42bJ5rXKd2UPwbC" name="ERD">
    <mxGraphModel dx="864" dy="516" grid="1" gridSize="10" guides="1" tooltips="1" connect="1" arrows="1" fold="1" page="1" pageScale="1" pageWidth="1169" pageHeight="827" math="0" shadow="0">
      <root>
        <mxCell id="0" />
        <mxCell id="1" parent="0" />
        <mxCell id="vemQYRNhJBQO76WZnsD2-1" value="Account" style="shape=table;startSize=30;container=1;collapsible=1;childLayout=tableLayout;fixedRows=1;rowLines=0;fontStyle=1;align=center;resizeLast=1;html=1;fillColor=#e1d5e7;strokeColor=#9673a6;" parent="1" vertex="1">
          <mxGeometry x="160" y="80" width="160" height="150" as="geometry">
            <mxRectangle x="160" y="90" width="70" height="30" as="alternateBounds" />
          </mxGeometry>
        </mxCell>
        <mxCell id="vemQYRNhJBQO76WZnsD2-2" value="" style="shape=tableRow;horizontal=0;startSize=0;swimlaneHead=0;swimlaneBody=0;fillColor=none;collapsible=0;dropTarget=0;points=[[0,0.5],[1,0.5]];portConstraint=eastwest;top=0;left=0;right=0;bottom=1;" parent="vemQYRNhJBQO76WZnsD2-1" vertex="1">
          <mxGeometry y="30" width="160" height="30" as="geometry" />
        </mxCell>
        <mxCell id="vemQYRNhJBQO76WZnsD2-3" value="PK" style="shape=partialRectangle;connectable=0;fillColor=none;top=0;left=0;bottom=0;right=0;fontStyle=1;overflow=hidden;whiteSpace=wrap;html=1;" parent="vemQYRNhJBQO76WZnsD2-2" vertex="1">
          <mxGeometry width="30" height="30" as="geometry">
            <mxRectangle width="30" height="30" as="alternateBounds" />
          </mxGeometry>
        </mxCell>
        <mxCell id="vemQYRNhJBQO76WZnsD2-4" value="account_id" style="shape=partialRectangle;connectable=0;fillColor=none;top=0;left=0;bottom=0;right=0;align=left;spacingLeft=6;fontStyle=5;overflow=hidden;whiteSpace=wrap;html=1;" parent="vemQYRNhJBQO76WZnsD2-2" vertex="1">
          <mxGeometry x="30" width="130" height="30" as="geometry">
            <mxRectangle width="130" height="30" as="alternateBounds" />
          </mxGeometry>
        </mxCell>
        <mxCell id="vemQYRNhJBQO76WZnsD2-5" value="" style="shape=tableRow;horizontal=0;startSize=0;swimlaneHead=0;swimlaneBody=0;fillColor=none;collapsible=0;dropTarget=0;points=[[0,0.5],[1,0.5]];portConstraint=eastwest;top=0;left=0;right=0;bottom=0;" parent="vemQYRNhJBQO76WZnsD2-1" vertex="1">
          <mxGeometry y="60" width="160" height="30" as="geometry" />
        </mxCell>
        <mxCell id="vemQYRNhJBQO76WZnsD2-6" value="" style="shape=partialRectangle;connectable=0;fillColor=none;top=0;left=0;bottom=0;right=0;editable=1;overflow=hidden;whiteSpace=wrap;html=1;" parent="vemQYRNhJBQO76WZnsD2-5" vertex="1">
          <mxGeometry width="30" height="30" as="geometry">
            <mxRectangle width="30" height="30" as="alternateBounds" />
          </mxGeometry>
        </mxCell>
        <mxCell id="vemQYRNhJBQO76WZnsD2-7" value="user_name" style="shape=partialRectangle;connectable=0;fillColor=none;top=0;left=0;bottom=0;right=0;align=left;spacingLeft=6;overflow=hidden;whiteSpace=wrap;html=1;" parent="vemQYRNhJBQO76WZnsD2-5" vertex="1">
          <mxGeometry x="30" width="130" height="30" as="geometry">
            <mxRectangle width="130" height="30" as="alternateBounds" />
          </mxGeometry>
        </mxCell>
        <mxCell id="vemQYRNhJBQO76WZnsD2-8" value="" style="shape=tableRow;horizontal=0;startSize=0;swimlaneHead=0;swimlaneBody=0;fillColor=none;collapsible=0;dropTarget=0;points=[[0,0.5],[1,0.5]];portConstraint=eastwest;top=0;left=0;right=0;bottom=0;" parent="vemQYRNhJBQO76WZnsD2-1" vertex="1">
          <mxGeometry y="90" width="160" height="30" as="geometry" />
        </mxCell>
        <mxCell id="vemQYRNhJBQO76WZnsD2-9" value="" style="shape=partialRectangle;connectable=0;fillColor=none;top=0;left=0;bottom=0;right=0;editable=1;overflow=hidden;whiteSpace=wrap;html=1;" parent="vemQYRNhJBQO76WZnsD2-8" vertex="1">
          <mxGeometry width="30" height="30" as="geometry">
            <mxRectangle width="30" height="30" as="alternateBounds" />
          </mxGeometry>
        </mxCell>
        <mxCell id="vemQYRNhJBQO76WZnsD2-10" value="created_ts" style="shape=partialRectangle;connectable=0;fillColor=none;top=0;left=0;bottom=0;right=0;align=left;spacingLeft=6;overflow=hidden;whiteSpace=wrap;html=1;" parent="vemQYRNhJBQO76WZnsD2-8" vertex="1">
          <mxGeometry x="30" width="130" height="30" as="geometry">
            <mxRectangle width="130" height="30" as="alternateBounds" />
          </mxGeometry>
        </mxCell>
        <mxCell id="vemQYRNhJBQO76WZnsD2-11" value="" style="shape=tableRow;horizontal=0;startSize=0;swimlaneHead=0;swimlaneBody=0;fillColor=none;collapsible=0;dropTarget=0;points=[[0,0.5],[1,0.5]];portConstraint=eastwest;top=0;left=0;right=0;bottom=0;" parent="vemQYRNhJBQO76WZnsD2-1" vertex="1">
          <mxGeometry y="120" width="160" height="30" as="geometry" />
        </mxCell>
        <mxCell id="vemQYRNhJBQO76WZnsD2-12" value="" style="shape=partialRectangle;connectable=0;fillColor=none;top=0;left=0;bottom=0;right=0;editable=1;overflow=hidden;whiteSpace=wrap;html=1;" parent="vemQYRNhJBQO76WZnsD2-11" vertex="1">
          <mxGeometry width="30" height="30" as="geometry">
            <mxRectangle width="30" height="30" as="alternateBounds" />
          </mxGeometry>
        </mxCell>
        <mxCell id="vemQYRNhJBQO76WZnsD2-13" value="last_update_ts" style="shape=partialRectangle;connectable=0;fillColor=none;top=0;left=0;bottom=0;right=0;align=left;spacingLeft=6;overflow=hidden;whiteSpace=wrap;html=1;" parent="vemQYRNhJBQO76WZnsD2-11" vertex="1">
          <mxGeometry x="30" width="130" height="30" as="geometry">
            <mxRectangle width="130" height="30" as="alternateBounds" />
          </mxGeometry>
        </mxCell>
        <mxCell id="vemQYRNhJBQO76WZnsD2-27" value="product_info" style="shape=table;startSize=30;container=1;collapsible=1;childLayout=tableLayout;fixedRows=1;rowLines=0;fontStyle=1;align=center;resizeLast=1;html=1;fillColor=#e1d5e7;strokeColor=#9673a6;" parent="1" vertex="1">
          <mxGeometry x="640" y="80" width="160" height="180" as="geometry">
            <mxRectangle x="160" y="90" width="70" height="30" as="alternateBounds" />
          </mxGeometry>
        </mxCell>
        <mxCell id="vemQYRNhJBQO76WZnsD2-28" value="" style="shape=tableRow;horizontal=0;startSize=0;swimlaneHead=0;swimlaneBody=0;fillColor=none;collapsible=0;dropTarget=0;points=[[0,0.5],[1,0.5]];portConstraint=eastwest;top=0;left=0;right=0;bottom=1;" parent="vemQYRNhJBQO76WZnsD2-27" vertex="1">
          <mxGeometry y="30" width="160" height="30" as="geometry" />
        </mxCell>
        <mxCell id="vemQYRNhJBQO76WZnsD2-29" value="PK" style="shape=partialRectangle;connectable=0;fillColor=none;top=0;left=0;bottom=0;right=0;fontStyle=1;overflow=hidden;whiteSpace=wrap;html=1;" parent="vemQYRNhJBQO76WZnsD2-28" vertex="1">
          <mxGeometry width="30" height="30" as="geometry">
            <mxRectangle width="30" height="30" as="alternateBounds" />
          </mxGeometry>
        </mxCell>
        <mxCell id="vemQYRNhJBQO76WZnsD2-30" value="product_id" style="shape=partialRectangle;connectable=0;fillColor=none;top=0;left=0;bottom=0;right=0;align=left;spacingLeft=6;fontStyle=5;overflow=hidden;whiteSpace=wrap;html=1;" parent="vemQYRNhJBQO76WZnsD2-28" vertex="1">
          <mxGeometry x="30" width="130" height="30" as="geometry">
            <mxRectangle width="130" height="30" as="alternateBounds" />
          </mxGeometry>
        </mxCell>
        <mxCell id="vemQYRNhJBQO76WZnsD2-31" value="" style="shape=tableRow;horizontal=0;startSize=0;swimlaneHead=0;swimlaneBody=0;fillColor=none;collapsible=0;dropTarget=0;points=[[0,0.5],[1,0.5]];portConstraint=eastwest;top=0;left=0;right=0;bottom=0;" parent="vemQYRNhJBQO76WZnsD2-27" vertex="1">
          <mxGeometry y="60" width="160" height="30" as="geometry" />
        </mxCell>
        <mxCell id="vemQYRNhJBQO76WZnsD2-32" value="" style="shape=partialRectangle;connectable=0;fillColor=none;top=0;left=0;bottom=0;right=0;editable=1;overflow=hidden;whiteSpace=wrap;html=1;" parent="vemQYRNhJBQO76WZnsD2-31" vertex="1">
          <mxGeometry width="30" height="30" as="geometry">
            <mxRectangle width="30" height="30" as="alternateBounds" />
          </mxGeometry>
        </mxCell>
        <mxCell id="vemQYRNhJBQO76WZnsD2-33" value="Product_name" style="shape=partialRectangle;connectable=0;fillColor=none;top=0;left=0;bottom=0;right=0;align=left;spacingLeft=6;overflow=hidden;whiteSpace=wrap;html=1;" parent="vemQYRNhJBQO76WZnsD2-31" vertex="1">
          <mxGeometry x="30" width="130" height="30" as="geometry">
            <mxRectangle width="130" height="30" as="alternateBounds" />
          </mxGeometry>
        </mxCell>
        <mxCell id="vemQYRNhJBQO76WZnsD2-34" value="" style="shape=tableRow;horizontal=0;startSize=0;swimlaneHead=0;swimlaneBody=0;fillColor=none;collapsible=0;dropTarget=0;points=[[0,0.5],[1,0.5]];portConstraint=eastwest;top=0;left=0;right=0;bottom=0;" parent="vemQYRNhJBQO76WZnsD2-27" vertex="1">
          <mxGeometry y="90" width="160" height="30" as="geometry" />
        </mxCell>
        <mxCell id="vemQYRNhJBQO76WZnsD2-35" value="FK1" style="shape=partialRectangle;connectable=0;fillColor=none;top=0;left=0;bottom=0;right=0;editable=1;overflow=hidden;whiteSpace=wrap;html=1;" parent="vemQYRNhJBQO76WZnsD2-34" vertex="1">
          <mxGeometry width="30" height="30" as="geometry">
            <mxRectangle width="30" height="30" as="alternateBounds" />
          </mxGeometry>
        </mxCell>
        <mxCell id="vemQYRNhJBQO76WZnsD2-36" value="request_id" style="shape=partialRectangle;connectable=0;fillColor=none;top=0;left=0;bottom=0;right=0;align=left;spacingLeft=6;overflow=hidden;whiteSpace=wrap;html=1;" parent="vemQYRNhJBQO76WZnsD2-34" vertex="1">
          <mxGeometry x="30" width="130" height="30" as="geometry">
            <mxRectangle width="130" height="30" as="alternateBounds" />
          </mxGeometry>
        </mxCell>
        <mxCell id="vemQYRNhJBQO76WZnsD2-96" value="" style="shape=tableRow;horizontal=0;startSize=0;swimlaneHead=0;swimlaneBody=0;fillColor=none;collapsible=0;dropTarget=0;points=[[0,0.5],[1,0.5]];portConstraint=eastwest;top=0;left=0;right=0;bottom=0;" parent="vemQYRNhJBQO76WZnsD2-27" vertex="1">
          <mxGeometry y="120" width="160" height="30" as="geometry" />
        </mxCell>
        <mxCell id="vemQYRNhJBQO76WZnsD2-97" value="" style="shape=partialRectangle;connectable=0;fillColor=none;top=0;left=0;bottom=0;right=0;editable=1;overflow=hidden;whiteSpace=wrap;html=1;" parent="vemQYRNhJBQO76WZnsD2-96" vertex="1">
          <mxGeometry width="30" height="30" as="geometry">
            <mxRectangle width="30" height="30" as="alternateBounds" />
          </mxGeometry>
        </mxCell>
        <mxCell id="vemQYRNhJBQO76WZnsD2-98" value="created_ts" style="shape=partialRectangle;connectable=0;fillColor=none;top=0;left=0;bottom=0;right=0;align=left;spacingLeft=6;overflow=hidden;whiteSpace=wrap;html=1;" parent="vemQYRNhJBQO76WZnsD2-96" vertex="1">
          <mxGeometry x="30" width="130" height="30" as="geometry">
            <mxRectangle width="130" height="30" as="alternateBounds" />
          </mxGeometry>
        </mxCell>
        <mxCell id="vemQYRNhJBQO76WZnsD2-99" value="" style="shape=tableRow;horizontal=0;startSize=0;swimlaneHead=0;swimlaneBody=0;fillColor=none;collapsible=0;dropTarget=0;points=[[0,0.5],[1,0.5]];portConstraint=eastwest;top=0;left=0;right=0;bottom=0;" parent="vemQYRNhJBQO76WZnsD2-27" vertex="1">
          <mxGeometry y="150" width="160" height="30" as="geometry" />
        </mxCell>
        <mxCell id="vemQYRNhJBQO76WZnsD2-100" value="" style="shape=partialRectangle;connectable=0;fillColor=none;top=0;left=0;bottom=0;right=0;editable=1;overflow=hidden;whiteSpace=wrap;html=1;" parent="vemQYRNhJBQO76WZnsD2-99" vertex="1">
          <mxGeometry width="30" height="30" as="geometry">
            <mxRectangle width="30" height="30" as="alternateBounds" />
          </mxGeometry>
        </mxCell>
        <mxCell id="vemQYRNhJBQO76WZnsD2-101" value="last_update_ts" style="shape=partialRectangle;connectable=0;fillColor=none;top=0;left=0;bottom=0;right=0;align=left;spacingLeft=6;overflow=hidden;whiteSpace=wrap;html=1;" parent="vemQYRNhJBQO76WZnsD2-99" vertex="1">
          <mxGeometry x="30" width="130" height="30" as="geometry">
            <mxRectangle width="130" height="30" as="alternateBounds" />
          </mxGeometry>
        </mxCell>
        <mxCell id="vemQYRNhJBQO76WZnsD2-40" value="product_image_info" style="shape=table;startSize=30;container=1;collapsible=1;childLayout=tableLayout;fixedRows=1;rowLines=0;fontStyle=1;align=center;resizeLast=1;html=1;fillColor=#e1d5e7;strokeColor=#9673a6;" parent="1" vertex="1">
          <mxGeometry x="880" y="80" width="160" height="210" as="geometry">
            <mxRectangle x="160" y="90" width="70" height="30" as="alternateBounds" />
          </mxGeometry>
        </mxCell>
        <mxCell id="vemQYRNhJBQO76WZnsD2-41" value="" style="shape=tableRow;horizontal=0;startSize=0;swimlaneHead=0;swimlaneBody=0;fillColor=none;collapsible=0;dropTarget=0;points=[[0,0.5],[1,0.5]];portConstraint=eastwest;top=0;left=0;right=0;bottom=1;" parent="vemQYRNhJBQO76WZnsD2-40" vertex="1">
          <mxGeometry y="30" width="160" height="30" as="geometry" />
        </mxCell>
        <mxCell id="vemQYRNhJBQO76WZnsD2-42" value="PK" style="shape=partialRectangle;connectable=0;fillColor=none;top=0;left=0;bottom=0;right=0;fontStyle=1;overflow=hidden;whiteSpace=wrap;html=1;" parent="vemQYRNhJBQO76WZnsD2-41" vertex="1">
          <mxGeometry width="30" height="30" as="geometry">
            <mxRectangle width="30" height="30" as="alternateBounds" />
          </mxGeometry>
        </mxCell>
        <mxCell id="vemQYRNhJBQO76WZnsD2-43" value="id" style="shape=partialRectangle;connectable=0;fillColor=none;top=0;left=0;bottom=0;right=0;align=left;spacingLeft=6;fontStyle=5;overflow=hidden;whiteSpace=wrap;html=1;" parent="vemQYRNhJBQO76WZnsD2-41" vertex="1">
          <mxGeometry x="30" width="130" height="30" as="geometry">
            <mxRectangle width="130" height="30" as="alternateBounds" />
          </mxGeometry>
        </mxCell>
        <mxCell id="vemQYRNhJBQO76WZnsD2-44" value="" style="shape=tableRow;horizontal=0;startSize=0;swimlaneHead=0;swimlaneBody=0;fillColor=none;collapsible=0;dropTarget=0;points=[[0,0.5],[1,0.5]];portConstraint=eastwest;top=0;left=0;right=0;bottom=0;" parent="vemQYRNhJBQO76WZnsD2-40" vertex="1">
          <mxGeometry y="60" width="160" height="30" as="geometry" />
        </mxCell>
        <mxCell id="vemQYRNhJBQO76WZnsD2-45" value="FK1" style="shape=partialRectangle;connectable=0;fillColor=none;top=0;left=0;bottom=0;right=0;editable=1;overflow=hidden;whiteSpace=wrap;html=1;" parent="vemQYRNhJBQO76WZnsD2-44" vertex="1">
          <mxGeometry width="30" height="30" as="geometry">
            <mxRectangle width="30" height="30" as="alternateBounds" />
          </mxGeometry>
        </mxCell>
        <mxCell id="vemQYRNhJBQO76WZnsD2-46" value="product_id" style="shape=partialRectangle;connectable=0;fillColor=none;top=0;left=0;bottom=0;right=0;align=left;spacingLeft=6;overflow=hidden;whiteSpace=wrap;html=1;" parent="vemQYRNhJBQO76WZnsD2-44" vertex="1">
          <mxGeometry x="30" width="130" height="30" as="geometry">
            <mxRectangle width="130" height="30" as="alternateBounds" />
          </mxGeometry>
        </mxCell>
        <mxCell id="vemQYRNhJBQO76WZnsD2-47" value="" style="shape=tableRow;horizontal=0;startSize=0;swimlaneHead=0;swimlaneBody=0;fillColor=none;collapsible=0;dropTarget=0;points=[[0,0.5],[1,0.5]];portConstraint=eastwest;top=0;left=0;right=0;bottom=0;" parent="vemQYRNhJBQO76WZnsD2-40" vertex="1">
          <mxGeometry y="90" width="160" height="30" as="geometry" />
        </mxCell>
        <mxCell id="vemQYRNhJBQO76WZnsD2-48" value="" style="shape=partialRectangle;connectable=0;fillColor=none;top=0;left=0;bottom=0;right=0;editable=1;overflow=hidden;whiteSpace=wrap;html=1;" parent="vemQYRNhJBQO76WZnsD2-47" vertex="1">
          <mxGeometry width="30" height="30" as="geometry">
            <mxRectangle width="30" height="30" as="alternateBounds" />
          </mxGeometry>
        </mxCell>
        <mxCell id="vemQYRNhJBQO76WZnsD2-49" value="input_image" style="shape=partialRectangle;connectable=0;fillColor=none;top=0;left=0;bottom=0;right=0;align=left;spacingLeft=6;overflow=hidden;whiteSpace=wrap;html=1;" parent="vemQYRNhJBQO76WZnsD2-47" vertex="1">
          <mxGeometry x="30" width="130" height="30" as="geometry">
            <mxRectangle width="130" height="30" as="alternateBounds" />
          </mxGeometry>
        </mxCell>
        <mxCell id="vemQYRNhJBQO76WZnsD2-50" value="" style="shape=tableRow;horizontal=0;startSize=0;swimlaneHead=0;swimlaneBody=0;fillColor=none;collapsible=0;dropTarget=0;points=[[0,0.5],[1,0.5]];portConstraint=eastwest;top=0;left=0;right=0;bottom=0;" parent="vemQYRNhJBQO76WZnsD2-40" vertex="1">
          <mxGeometry y="120" width="160" height="30" as="geometry" />
        </mxCell>
        <mxCell id="vemQYRNhJBQO76WZnsD2-51" value="" style="shape=partialRectangle;connectable=0;fillColor=none;top=0;left=0;bottom=0;right=0;editable=1;overflow=hidden;whiteSpace=wrap;html=1;" parent="vemQYRNhJBQO76WZnsD2-50" vertex="1">
          <mxGeometry width="30" height="30" as="geometry">
            <mxRectangle width="30" height="30" as="alternateBounds" />
          </mxGeometry>
        </mxCell>
        <mxCell id="vemQYRNhJBQO76WZnsD2-52" value="output_image" style="shape=partialRectangle;connectable=0;fillColor=none;top=0;left=0;bottom=0;right=0;align=left;spacingLeft=6;overflow=hidden;whiteSpace=wrap;html=1;" parent="vemQYRNhJBQO76WZnsD2-50" vertex="1">
          <mxGeometry x="30" width="130" height="30" as="geometry">
            <mxRectangle width="130" height="30" as="alternateBounds" />
          </mxGeometry>
        </mxCell>
        <mxCell id="vemQYRNhJBQO76WZnsD2-102" value="" style="shape=tableRow;horizontal=0;startSize=0;swimlaneHead=0;swimlaneBody=0;fillColor=none;collapsible=0;dropTarget=0;points=[[0,0.5],[1,0.5]];portConstraint=eastwest;top=0;left=0;right=0;bottom=0;" parent="vemQYRNhJBQO76WZnsD2-40" vertex="1">
          <mxGeometry y="150" width="160" height="30" as="geometry" />
        </mxCell>
        <mxCell id="vemQYRNhJBQO76WZnsD2-103" value="" style="shape=partialRectangle;connectable=0;fillColor=none;top=0;left=0;bottom=0;right=0;editable=1;overflow=hidden;whiteSpace=wrap;html=1;" parent="vemQYRNhJBQO76WZnsD2-102" vertex="1">
          <mxGeometry width="30" height="30" as="geometry">
            <mxRectangle width="30" height="30" as="alternateBounds" />
          </mxGeometry>
        </mxCell>
        <mxCell id="vemQYRNhJBQO76WZnsD2-104" value="created_ts" style="shape=partialRectangle;connectable=0;fillColor=none;top=0;left=0;bottom=0;right=0;align=left;spacingLeft=6;overflow=hidden;whiteSpace=wrap;html=1;" parent="vemQYRNhJBQO76WZnsD2-102" vertex="1">
          <mxGeometry x="30" width="130" height="30" as="geometry">
            <mxRectangle width="130" height="30" as="alternateBounds" />
          </mxGeometry>
        </mxCell>
        <mxCell id="vemQYRNhJBQO76WZnsD2-105" value="" style="shape=tableRow;horizontal=0;startSize=0;swimlaneHead=0;swimlaneBody=0;fillColor=none;collapsible=0;dropTarget=0;points=[[0,0.5],[1,0.5]];portConstraint=eastwest;top=0;left=0;right=0;bottom=0;" parent="vemQYRNhJBQO76WZnsD2-40" vertex="1">
          <mxGeometry y="180" width="160" height="30" as="geometry" />
        </mxCell>
        <mxCell id="vemQYRNhJBQO76WZnsD2-106" value="" style="shape=partialRectangle;connectable=0;fillColor=none;top=0;left=0;bottom=0;right=0;editable=1;overflow=hidden;whiteSpace=wrap;html=1;" parent="vemQYRNhJBQO76WZnsD2-105" vertex="1">
          <mxGeometry width="30" height="30" as="geometry">
            <mxRectangle width="30" height="30" as="alternateBounds" />
          </mxGeometry>
        </mxCell>
        <mxCell id="vemQYRNhJBQO76WZnsD2-107" value="last_update_ts" style="shape=partialRectangle;connectable=0;fillColor=none;top=0;left=0;bottom=0;right=0;align=left;spacingLeft=6;overflow=hidden;whiteSpace=wrap;html=1;" parent="vemQYRNhJBQO76WZnsD2-105" vertex="1">
          <mxGeometry x="30" width="130" height="30" as="geometry">
            <mxRectangle width="130" height="30" as="alternateBounds" />
          </mxGeometry>
        </mxCell>
        <mxCell id="vemQYRNhJBQO76WZnsD2-53" value="request_info" style="shape=table;startSize=30;container=1;collapsible=1;childLayout=tableLayout;fixedRows=1;rowLines=0;fontStyle=1;align=center;resizeLast=1;html=1;fillColor=#e1d5e7;strokeColor=#9673a6;" parent="1" vertex="1">
          <mxGeometry x="400" y="80" width="160" height="180" as="geometry">
            <mxRectangle x="160" y="90" width="70" height="30" as="alternateBounds" />
          </mxGeometry>
        </mxCell>
        <mxCell id="vemQYRNhJBQO76WZnsD2-54" value="" style="shape=tableRow;horizontal=0;startSize=0;swimlaneHead=0;swimlaneBody=0;fillColor=none;collapsible=0;dropTarget=0;points=[[0,0.5],[1,0.5]];portConstraint=eastwest;top=0;left=0;right=0;bottom=1;" parent="vemQYRNhJBQO76WZnsD2-53" vertex="1">
          <mxGeometry y="30" width="160" height="30" as="geometry" />
        </mxCell>
        <mxCell id="vemQYRNhJBQO76WZnsD2-55" value="PK" style="shape=partialRectangle;connectable=0;fillColor=none;top=0;left=0;bottom=0;right=0;fontStyle=1;overflow=hidden;whiteSpace=wrap;html=1;" parent="vemQYRNhJBQO76WZnsD2-54" vertex="1">
          <mxGeometry width="30" height="30" as="geometry">
            <mxRectangle width="30" height="30" as="alternateBounds" />
          </mxGeometry>
        </mxCell>
        <mxCell id="vemQYRNhJBQO76WZnsD2-56" value="request_id" style="shape=partialRectangle;connectable=0;fillColor=none;top=0;left=0;bottom=0;right=0;align=left;spacingLeft=6;fontStyle=5;overflow=hidden;whiteSpace=wrap;html=1;" parent="vemQYRNhJBQO76WZnsD2-54" vertex="1">
          <mxGeometry x="30" width="130" height="30" as="geometry">
            <mxRectangle width="130" height="30" as="alternateBounds" />
          </mxGeometry>
        </mxCell>
        <mxCell id="vemQYRNhJBQO76WZnsD2-57" value="" style="shape=tableRow;horizontal=0;startSize=0;swimlaneHead=0;swimlaneBody=0;fillColor=none;collapsible=0;dropTarget=0;points=[[0,0.5],[1,0.5]];portConstraint=eastwest;top=0;left=0;right=0;bottom=0;" parent="vemQYRNhJBQO76WZnsD2-53" vertex="1">
          <mxGeometry y="60" width="160" height="30" as="geometry" />
        </mxCell>
        <mxCell id="vemQYRNhJBQO76WZnsD2-58" value="FK1" style="shape=partialRectangle;connectable=0;fillColor=none;top=0;left=0;bottom=0;right=0;editable=1;overflow=hidden;whiteSpace=wrap;html=1;" parent="vemQYRNhJBQO76WZnsD2-57" vertex="1">
          <mxGeometry width="30" height="30" as="geometry">
            <mxRectangle width="30" height="30" as="alternateBounds" />
          </mxGeometry>
        </mxCell>
        <mxCell id="vemQYRNhJBQO76WZnsD2-59" value="account_id" style="shape=partialRectangle;connectable=0;fillColor=none;top=0;left=0;bottom=0;right=0;align=left;spacingLeft=6;overflow=hidden;whiteSpace=wrap;html=1;" parent="vemQYRNhJBQO76WZnsD2-57" vertex="1">
          <mxGeometry x="30" width="130" height="30" as="geometry">
            <mxRectangle width="130" height="30" as="alternateBounds" />
          </mxGeometry>
        </mxCell>
        <mxCell id="vemQYRNhJBQO76WZnsD2-63" value="" style="shape=tableRow;horizontal=0;startSize=0;swimlaneHead=0;swimlaneBody=0;fillColor=none;collapsible=0;dropTarget=0;points=[[0,0.5],[1,0.5]];portConstraint=eastwest;top=0;left=0;right=0;bottom=0;" parent="vemQYRNhJBQO76WZnsD2-53" vertex="1">
          <mxGeometry y="90" width="160" height="30" as="geometry" />
        </mxCell>
        <mxCell id="vemQYRNhJBQO76WZnsD2-64" value="" style="shape=partialRectangle;connectable=0;fillColor=none;top=0;left=0;bottom=0;right=0;editable=1;overflow=hidden;whiteSpace=wrap;html=1;" parent="vemQYRNhJBQO76WZnsD2-63" vertex="1">
          <mxGeometry width="30" height="30" as="geometry">
            <mxRectangle width="30" height="30" as="alternateBounds" />
          </mxGeometry>
        </mxCell>
        <mxCell id="vemQYRNhJBQO76WZnsD2-65" value="status" style="shape=partialRectangle;connectable=0;fillColor=none;top=0;left=0;bottom=0;right=0;align=left;spacingLeft=6;overflow=hidden;whiteSpace=wrap;html=1;" parent="vemQYRNhJBQO76WZnsD2-63" vertex="1">
          <mxGeometry x="30" width="130" height="30" as="geometry">
            <mxRectangle width="130" height="30" as="alternateBounds" />
          </mxGeometry>
        </mxCell>
        <mxCell id="vemQYRNhJBQO76WZnsD2-89" value="" style="shape=tableRow;horizontal=0;startSize=0;swimlaneHead=0;swimlaneBody=0;fillColor=none;collapsible=0;dropTarget=0;points=[[0,0.5],[1,0.5]];portConstraint=eastwest;top=0;left=0;right=0;bottom=0;" parent="vemQYRNhJBQO76WZnsD2-53" vertex="1">
          <mxGeometry y="120" width="160" height="30" as="geometry" />
        </mxCell>
        <mxCell id="vemQYRNhJBQO76WZnsD2-90" value="" style="shape=partialRectangle;connectable=0;fillColor=none;top=0;left=0;bottom=0;right=0;editable=1;overflow=hidden;whiteSpace=wrap;html=1;" parent="vemQYRNhJBQO76WZnsD2-89" vertex="1">
          <mxGeometry width="30" height="30" as="geometry">
            <mxRectangle width="30" height="30" as="alternateBounds" />
          </mxGeometry>
        </mxCell>
        <mxCell id="vemQYRNhJBQO76WZnsD2-91" value="created_ts" style="shape=partialRectangle;connectable=0;fillColor=none;top=0;left=0;bottom=0;right=0;align=left;spacingLeft=6;overflow=hidden;whiteSpace=wrap;html=1;" parent="vemQYRNhJBQO76WZnsD2-89" vertex="1">
          <mxGeometry x="30" width="130" height="30" as="geometry">
            <mxRectangle width="130" height="30" as="alternateBounds" />
          </mxGeometry>
        </mxCell>
        <mxCell id="vemQYRNhJBQO76WZnsD2-92" value="" style="shape=tableRow;horizontal=0;startSize=0;swimlaneHead=0;swimlaneBody=0;fillColor=none;collapsible=0;dropTarget=0;points=[[0,0.5],[1,0.5]];portConstraint=eastwest;top=0;left=0;right=0;bottom=0;" parent="vemQYRNhJBQO76WZnsD2-53" vertex="1">
          <mxGeometry y="150" width="160" height="30" as="geometry" />
        </mxCell>
        <mxCell id="vemQYRNhJBQO76WZnsD2-93" value="" style="shape=partialRectangle;connectable=0;fillColor=none;top=0;left=0;bottom=0;right=0;editable=1;overflow=hidden;whiteSpace=wrap;html=1;" parent="vemQYRNhJBQO76WZnsD2-92" vertex="1">
          <mxGeometry width="30" height="30" as="geometry">
            <mxRectangle width="30" height="30" as="alternateBounds" />
          </mxGeometry>
        </mxCell>
        <mxCell id="vemQYRNhJBQO76WZnsD2-94" value="last_update_ts" style="shape=partialRectangle;connectable=0;fillColor=none;top=0;left=0;bottom=0;right=0;align=left;spacingLeft=6;overflow=hidden;whiteSpace=wrap;html=1;" parent="vemQYRNhJBQO76WZnsD2-92" vertex="1">
          <mxGeometry x="30" width="130" height="30" as="geometry">
            <mxRectangle width="130" height="30" as="alternateBounds" />
          </mxGeometry>
        </mxCell>
        <mxCell id="vemQYRNhJBQO76WZnsD2-66" value="" style="shape=link;html=1;rounded=0;exitX=0;exitY=0.5;exitDx=0;exitDy=0;entryX=0.008;entryY=0.366;entryDx=0;entryDy=0;fillColor=#fff2cc;strokeColor=#d6b656;strokeWidth=2;entryPerimeter=0;" parent="1" source="vemQYRNhJBQO76WZnsD2-2" target="pUwHZq8H0UQNYKBvJwCt-2" edge="1">
          <mxGeometry relative="1" as="geometry">
            <mxPoint x="500" y="320" as="sourcePoint" />
            <mxPoint x="160" y="365" as="targetPoint" />
            <Array as="points">
              <mxPoint x="110" y="125" />
              <mxPoint x="110" y="240" />
              <mxPoint x="110" y="340" />
            </Array>
          </mxGeometry>
        </mxCell>
        <mxCell id="vemQYRNhJBQO76WZnsD2-67" value="1" style="resizable=0;html=1;whiteSpace=wrap;align=right;verticalAlign=bottom;" parent="vemQYRNhJBQO76WZnsD2-66" connectable="0" vertex="1">
          <mxGeometry x="1" relative="1" as="geometry" />
        </mxCell>
        <mxCell id="vemQYRNhJBQO76WZnsD2-70" value="" style="edgeStyle=entityRelationEdgeStyle;fontSize=12;html=1;endArrow=ERzeroToMany;endFill=1;rounded=0;exitX=1.007;exitY=0.8;exitDx=0;exitDy=0;exitPerimeter=0;fillColor=#fff2cc;strokeColor=#d6b656;strokeWidth=2;" parent="1" source="vemQYRNhJBQO76WZnsD2-2" target="vemQYRNhJBQO76WZnsD2-57" edge="1">
          <mxGeometry width="100" height="100" relative="1" as="geometry">
            <mxPoint x="470" y="390" as="sourcePoint" />
            <mxPoint x="570" y="290" as="targetPoint" />
          </mxGeometry>
        </mxCell>
        <mxCell id="vemQYRNhJBQO76WZnsD2-72" value="" style="edgeStyle=entityRelationEdgeStyle;fontSize=12;html=1;endArrow=ERoneToMany;rounded=0;exitX=1;exitY=0.5;exitDx=0;exitDy=0;entryX=0;entryY=0.5;entryDx=0;entryDy=0;fillColor=#fff2cc;strokeColor=#d6b656;strokeWidth=2;" parent="1" source="vemQYRNhJBQO76WZnsD2-54" target="vemQYRNhJBQO76WZnsD2-34" edge="1">
          <mxGeometry width="100" height="100" relative="1" as="geometry">
            <mxPoint x="610" y="260" as="sourcePoint" />
            <mxPoint x="710" y="160" as="targetPoint" />
          </mxGeometry>
        </mxCell>
        <mxCell id="vemQYRNhJBQO76WZnsD2-74" value="" style="edgeStyle=entityRelationEdgeStyle;fontSize=12;html=1;endArrow=ERmany;startArrow=ERmany;rounded=0;exitX=1;exitY=0.5;exitDx=0;exitDy=0;fillColor=#fff2cc;strokeColor=#d6b656;strokeWidth=2;" parent="1" source="vemQYRNhJBQO76WZnsD2-28" target="vemQYRNhJBQO76WZnsD2-44" edge="1">
          <mxGeometry width="100" height="100" relative="1" as="geometry">
            <mxPoint x="770" y="320" as="sourcePoint" />
            <mxPoint x="870" y="220" as="targetPoint" />
            <Array as="points">
              <mxPoint x="890" y="240" />
              <mxPoint x="930" y="200" />
              <mxPoint x="860" y="250" />
            </Array>
          </mxGeometry>
        </mxCell>
        <mxCell id="B6_3PV-Tp_PE39W2CO1n-1" value="webhook_info" style="shape=table;startSize=30;container=1;collapsible=1;childLayout=tableLayout;fixedRows=1;rowLines=0;fontStyle=1;align=center;resizeLast=1;html=1;fillColor=#e1d5e7;strokeColor=#9673a6;" parent="1" vertex="1">
          <mxGeometry x="400" y="320" width="160" height="180" as="geometry">
            <mxRectangle x="160" y="90" width="70" height="30" as="alternateBounds" />
          </mxGeometry>
        </mxCell>
        <mxCell id="B6_3PV-Tp_PE39W2CO1n-2" value="" style="shape=tableRow;horizontal=0;startSize=0;swimlaneHead=0;swimlaneBody=0;fillColor=none;collapsible=0;dropTarget=0;points=[[0,0.5],[1,0.5]];portConstraint=eastwest;top=0;left=0;right=0;bottom=1;" parent="B6_3PV-Tp_PE39W2CO1n-1" vertex="1">
          <mxGeometry y="30" width="160" height="30" as="geometry" />
        </mxCell>
        <mxCell id="B6_3PV-Tp_PE39W2CO1n-3" value="PK" style="shape=partialRectangle;connectable=0;fillColor=none;top=0;left=0;bottom=0;right=0;fontStyle=1;overflow=hidden;whiteSpace=wrap;html=1;" parent="B6_3PV-Tp_PE39W2CO1n-2" vertex="1">
          <mxGeometry width="30" height="30" as="geometry">
            <mxRectangle width="30" height="30" as="alternateBounds" />
          </mxGeometry>
        </mxCell>
        <mxCell id="B6_3PV-Tp_PE39W2CO1n-4" value="id" style="shape=partialRectangle;connectable=0;fillColor=none;top=0;left=0;bottom=0;right=0;align=left;spacingLeft=6;fontStyle=5;overflow=hidden;whiteSpace=wrap;html=1;" parent="B6_3PV-Tp_PE39W2CO1n-2" vertex="1">
          <mxGeometry x="30" width="130" height="30" as="geometry">
            <mxRectangle width="130" height="30" as="alternateBounds" />
          </mxGeometry>
        </mxCell>
        <mxCell id="B6_3PV-Tp_PE39W2CO1n-5" value="" style="shape=tableRow;horizontal=0;startSize=0;swimlaneHead=0;swimlaneBody=0;fillColor=none;collapsible=0;dropTarget=0;points=[[0,0.5],[1,0.5]];portConstraint=eastwest;top=0;left=0;right=0;bottom=0;" parent="B6_3PV-Tp_PE39W2CO1n-1" vertex="1">
          <mxGeometry y="60" width="160" height="30" as="geometry" />
        </mxCell>
        <mxCell id="B6_3PV-Tp_PE39W2CO1n-6" value="FK1" style="shape=partialRectangle;connectable=0;fillColor=none;top=0;left=0;bottom=0;right=0;editable=1;overflow=hidden;whiteSpace=wrap;html=1;" parent="B6_3PV-Tp_PE39W2CO1n-5" vertex="1">
          <mxGeometry width="30" height="30" as="geometry">
            <mxRectangle width="30" height="30" as="alternateBounds" />
          </mxGeometry>
        </mxCell>
        <mxCell id="B6_3PV-Tp_PE39W2CO1n-7" value="account_id" style="shape=partialRectangle;connectable=0;fillColor=none;top=0;left=0;bottom=0;right=0;align=left;spacingLeft=6;overflow=hidden;whiteSpace=wrap;html=1;" parent="B6_3PV-Tp_PE39W2CO1n-5" vertex="1">
          <mxGeometry x="30" width="130" height="30" as="geometry">
            <mxRectangle width="130" height="30" as="alternateBounds" />
          </mxGeometry>
        </mxCell>
        <mxCell id="B6_3PV-Tp_PE39W2CO1n-8" value="" style="shape=tableRow;horizontal=0;startSize=0;swimlaneHead=0;swimlaneBody=0;fillColor=none;collapsible=0;dropTarget=0;points=[[0,0.5],[1,0.5]];portConstraint=eastwest;top=0;left=0;right=0;bottom=0;" parent="B6_3PV-Tp_PE39W2CO1n-1" vertex="1">
          <mxGeometry y="90" width="160" height="30" as="geometry" />
        </mxCell>
        <mxCell id="B6_3PV-Tp_PE39W2CO1n-9" value="" style="shape=partialRectangle;connectable=0;fillColor=none;top=0;left=0;bottom=0;right=0;editable=1;overflow=hidden;whiteSpace=wrap;html=1;" parent="B6_3PV-Tp_PE39W2CO1n-8" vertex="1">
          <mxGeometry width="30" height="30" as="geometry">
            <mxRectangle width="30" height="30" as="alternateBounds" />
          </mxGeometry>
        </mxCell>
        <mxCell id="B6_3PV-Tp_PE39W2CO1n-10" value="url" style="shape=partialRectangle;connectable=0;fillColor=none;top=0;left=0;bottom=0;right=0;align=left;spacingLeft=6;overflow=hidden;whiteSpace=wrap;html=1;" parent="B6_3PV-Tp_PE39W2CO1n-8" vertex="1">
          <mxGeometry x="30" width="130" height="30" as="geometry">
            <mxRectangle width="130" height="30" as="alternateBounds" />
          </mxGeometry>
        </mxCell>
        <mxCell id="B6_3PV-Tp_PE39W2CO1n-11" value="" style="shape=tableRow;horizontal=0;startSize=0;swimlaneHead=0;swimlaneBody=0;fillColor=none;collapsible=0;dropTarget=0;points=[[0,0.5],[1,0.5]];portConstraint=eastwest;top=0;left=0;right=0;bottom=0;" parent="B6_3PV-Tp_PE39W2CO1n-1" vertex="1">
          <mxGeometry y="120" width="160" height="30" as="geometry" />
        </mxCell>
        <mxCell id="B6_3PV-Tp_PE39W2CO1n-12" value="" style="shape=partialRectangle;connectable=0;fillColor=none;top=0;left=0;bottom=0;right=0;editable=1;overflow=hidden;whiteSpace=wrap;html=1;" parent="B6_3PV-Tp_PE39W2CO1n-11" vertex="1">
          <mxGeometry width="30" height="30" as="geometry">
            <mxRectangle width="30" height="30" as="alternateBounds" />
          </mxGeometry>
        </mxCell>
        <mxCell id="B6_3PV-Tp_PE39W2CO1n-13" value="created_ts" style="shape=partialRectangle;connectable=0;fillColor=none;top=0;left=0;bottom=0;right=0;align=left;spacingLeft=6;overflow=hidden;whiteSpace=wrap;html=1;" parent="B6_3PV-Tp_PE39W2CO1n-11" vertex="1">
          <mxGeometry x="30" width="130" height="30" as="geometry">
            <mxRectangle width="130" height="30" as="alternateBounds" />
          </mxGeometry>
        </mxCell>
        <mxCell id="B6_3PV-Tp_PE39W2CO1n-17" value="" style="shape=tableRow;horizontal=0;startSize=0;swimlaneHead=0;swimlaneBody=0;fillColor=none;collapsible=0;dropTarget=0;points=[[0,0.5],[1,0.5]];portConstraint=eastwest;top=0;left=0;right=0;bottom=0;" parent="B6_3PV-Tp_PE39W2CO1n-1" vertex="1">
          <mxGeometry y="150" width="160" height="30" as="geometry" />
        </mxCell>
        <mxCell id="B6_3PV-Tp_PE39W2CO1n-18" value="" style="shape=partialRectangle;connectable=0;fillColor=none;top=0;left=0;bottom=0;right=0;editable=1;overflow=hidden;whiteSpace=wrap;html=1;" parent="B6_3PV-Tp_PE39W2CO1n-17" vertex="1">
          <mxGeometry width="30" height="30" as="geometry">
            <mxRectangle width="30" height="30" as="alternateBounds" />
          </mxGeometry>
        </mxCell>
        <mxCell id="B6_3PV-Tp_PE39W2CO1n-19" value="last_update_ts" style="shape=partialRectangle;connectable=0;fillColor=none;top=0;left=0;bottom=0;right=0;align=left;spacingLeft=6;overflow=hidden;whiteSpace=wrap;html=1;" parent="B6_3PV-Tp_PE39W2CO1n-17" vertex="1">
          <mxGeometry x="30" width="130" height="30" as="geometry">
            <mxRectangle width="130" height="30" as="alternateBounds" />
          </mxGeometry>
        </mxCell>
        <mxCell id="B6_3PV-Tp_PE39W2CO1n-20" value="" style="edgeStyle=entityRelationEdgeStyle;fontSize=12;html=1;endArrow=ERzeroToMany;startArrow=ERmandOne;rounded=0;exitX=1.002;exitY=0.827;exitDx=0;exitDy=0;exitPerimeter=0;entryX=0;entryY=0.5;entryDx=0;entryDy=0;fillColor=#ffe6cc;strokeColor=#d79b00;strokeWidth=2;" parent="1" source="vemQYRNhJBQO76WZnsD2-2" target="B6_3PV-Tp_PE39W2CO1n-5" edge="1">
          <mxGeometry width="100" height="100" relative="1" as="geometry">
            <mxPoint x="660" y="410" as="sourcePoint" />
            <mxPoint x="760" y="310" as="targetPoint" />
          </mxGeometry>
        </mxCell>
        <mxCell id="pUwHZq8H0UQNYKBvJwCt-1" value="account_credential" style="shape=table;startSize=30;container=1;collapsible=1;childLayout=tableLayout;fixedRows=1;rowLines=0;fontStyle=1;align=center;resizeLast=1;html=1;fillColor=#e1d5e7;strokeColor=#9673a6;" vertex="1" parent="1">
          <mxGeometry x="160" y="300" width="160" height="180" as="geometry" />
        </mxCell>
        <mxCell id="pUwHZq8H0UQNYKBvJwCt-2" value="" style="shape=tableRow;horizontal=0;startSize=0;swimlaneHead=0;swimlaneBody=0;fillColor=none;collapsible=0;dropTarget=0;points=[[0,0.5],[1,0.5]];portConstraint=eastwest;top=0;left=0;right=0;bottom=1;" vertex="1" parent="pUwHZq8H0UQNYKBvJwCt-1">
          <mxGeometry y="30" width="160" height="30" as="geometry" />
        </mxCell>
        <mxCell id="pUwHZq8H0UQNYKBvJwCt-3" value="PK" style="shape=partialRectangle;connectable=0;fillColor=none;top=0;left=0;bottom=0;right=0;fontStyle=1;overflow=hidden;whiteSpace=wrap;html=1;" vertex="1" parent="pUwHZq8H0UQNYKBvJwCt-2">
          <mxGeometry width="50" height="30" as="geometry">
            <mxRectangle width="50" height="30" as="alternateBounds" />
          </mxGeometry>
        </mxCell>
        <mxCell id="pUwHZq8H0UQNYKBvJwCt-4" value="id" style="shape=partialRectangle;connectable=0;fillColor=none;top=0;left=0;bottom=0;right=0;align=left;spacingLeft=6;fontStyle=5;overflow=hidden;whiteSpace=wrap;html=1;" vertex="1" parent="pUwHZq8H0UQNYKBvJwCt-2">
          <mxGeometry x="50" width="110" height="30" as="geometry">
            <mxRectangle width="110" height="30" as="alternateBounds" />
          </mxGeometry>
        </mxCell>
        <mxCell id="pUwHZq8H0UQNYKBvJwCt-5" value="" style="shape=tableRow;horizontal=0;startSize=0;swimlaneHead=0;swimlaneBody=0;fillColor=none;collapsible=0;dropTarget=0;points=[[0,0.5],[1,0.5]];portConstraint=eastwest;top=0;left=0;right=0;bottom=0;" vertex="1" parent="pUwHZq8H0UQNYKBvJwCt-1">
          <mxGeometry y="60" width="160" height="30" as="geometry" />
        </mxCell>
        <mxCell id="pUwHZq8H0UQNYKBvJwCt-6" value="FK1, UK" style="shape=partialRectangle;connectable=0;fillColor=none;top=0;left=0;bottom=0;right=0;editable=1;overflow=hidden;whiteSpace=wrap;html=1;" vertex="1" parent="pUwHZq8H0UQNYKBvJwCt-5">
          <mxGeometry width="50" height="30" as="geometry">
            <mxRectangle width="50" height="30" as="alternateBounds" />
          </mxGeometry>
        </mxCell>
        <mxCell id="pUwHZq8H0UQNYKBvJwCt-7" value="account_id" style="shape=partialRectangle;connectable=0;fillColor=none;top=0;left=0;bottom=0;right=0;align=left;spacingLeft=6;overflow=hidden;whiteSpace=wrap;html=1;" vertex="1" parent="pUwHZq8H0UQNYKBvJwCt-5">
          <mxGeometry x="50" width="110" height="30" as="geometry">
            <mxRectangle width="110" height="30" as="alternateBounds" />
          </mxGeometry>
        </mxCell>
        <mxCell id="pUwHZq8H0UQNYKBvJwCt-8" value="" style="shape=tableRow;horizontal=0;startSize=0;swimlaneHead=0;swimlaneBody=0;fillColor=none;collapsible=0;dropTarget=0;points=[[0,0.5],[1,0.5]];portConstraint=eastwest;top=0;left=0;right=0;bottom=0;" vertex="1" parent="pUwHZq8H0UQNYKBvJwCt-1">
          <mxGeometry y="90" width="160" height="30" as="geometry" />
        </mxCell>
        <mxCell id="pUwHZq8H0UQNYKBvJwCt-9" value="" style="shape=partialRectangle;connectable=0;fillColor=none;top=0;left=0;bottom=0;right=0;editable=1;overflow=hidden;whiteSpace=wrap;html=1;" vertex="1" parent="pUwHZq8H0UQNYKBvJwCt-8">
          <mxGeometry width="50" height="30" as="geometry">
            <mxRectangle width="50" height="30" as="alternateBounds" />
          </mxGeometry>
        </mxCell>
        <mxCell id="pUwHZq8H0UQNYKBvJwCt-10" value="password" style="shape=partialRectangle;connectable=0;fillColor=none;top=0;left=0;bottom=0;right=0;align=left;spacingLeft=6;overflow=hidden;whiteSpace=wrap;html=1;" vertex="1" parent="pUwHZq8H0UQNYKBvJwCt-8">
          <mxGeometry x="50" width="110" height="30" as="geometry">
            <mxRectangle width="110" height="30" as="alternateBounds" />
          </mxGeometry>
        </mxCell>
        <mxCell id="pUwHZq8H0UQNYKBvJwCt-11" value="" style="shape=tableRow;horizontal=0;startSize=0;swimlaneHead=0;swimlaneBody=0;fillColor=none;collapsible=0;dropTarget=0;points=[[0,0.5],[1,0.5]];portConstraint=eastwest;top=0;left=0;right=0;bottom=0;" vertex="1" parent="pUwHZq8H0UQNYKBvJwCt-1">
          <mxGeometry y="120" width="160" height="30" as="geometry" />
        </mxCell>
        <mxCell id="pUwHZq8H0UQNYKBvJwCt-12" value="" style="shape=partialRectangle;connectable=0;fillColor=none;top=0;left=0;bottom=0;right=0;editable=1;overflow=hidden;whiteSpace=wrap;html=1;" vertex="1" parent="pUwHZq8H0UQNYKBvJwCt-11">
          <mxGeometry width="50" height="30" as="geometry">
            <mxRectangle width="50" height="30" as="alternateBounds" />
          </mxGeometry>
        </mxCell>
        <mxCell id="pUwHZq8H0UQNYKBvJwCt-13" value="created_ts" style="shape=partialRectangle;connectable=0;fillColor=none;top=0;left=0;bottom=0;right=0;align=left;spacingLeft=6;overflow=hidden;whiteSpace=wrap;html=1;" vertex="1" parent="pUwHZq8H0UQNYKBvJwCt-11">
          <mxGeometry x="50" width="110" height="30" as="geometry">
            <mxRectangle width="110" height="30" as="alternateBounds" />
          </mxGeometry>
        </mxCell>
        <mxCell id="pUwHZq8H0UQNYKBvJwCt-14" value="" style="shape=tableRow;horizontal=0;startSize=0;swimlaneHead=0;swimlaneBody=0;fillColor=none;collapsible=0;dropTarget=0;points=[[0,0.5],[1,0.5]];portConstraint=eastwest;top=0;left=0;right=0;bottom=0;" vertex="1" parent="pUwHZq8H0UQNYKBvJwCt-1">
          <mxGeometry y="150" width="160" height="30" as="geometry" />
        </mxCell>
        <mxCell id="pUwHZq8H0UQNYKBvJwCt-15" value="" style="shape=partialRectangle;connectable=0;fillColor=none;top=0;left=0;bottom=0;right=0;editable=1;overflow=hidden;whiteSpace=wrap;html=1;" vertex="1" parent="pUwHZq8H0UQNYKBvJwCt-14">
          <mxGeometry width="50" height="30" as="geometry">
            <mxRectangle width="50" height="30" as="alternateBounds" />
          </mxGeometry>
        </mxCell>
        <mxCell id="pUwHZq8H0UQNYKBvJwCt-16" value="last_update_ts" style="shape=partialRectangle;connectable=0;fillColor=none;top=0;left=0;bottom=0;right=0;align=left;spacingLeft=6;overflow=hidden;whiteSpace=wrap;html=1;" vertex="1" parent="pUwHZq8H0UQNYKBvJwCt-14">
          <mxGeometry x="50" width="110" height="30" as="geometry">
            <mxRectangle width="110" height="30" as="alternateBounds" />
          </mxGeometry>
        </mxCell>
      </root>
    </mxGraphModel>
  </diagram>
  <diagram name="HLD" id="Nx6W-gvZsH8VPvmO8sb0">
    <mxGraphModel dx="1050" dy="1446" grid="1" gridSize="10" guides="1" tooltips="1" connect="1" arrows="1" fold="1" page="1" pageScale="1" pageWidth="1169" pageHeight="827" math="0" shadow="0">
      <root>
        <mxCell id="0" />
        <mxCell id="1" parent="0" />
        <mxCell id="_nKDaGLRIUqMEB5DJism-35" value="" style="points=[];aspect=fixed;html=1;align=center;shadow=0;dashed=0;fillColor=#FF6A00;strokeColor=none;shape=mxgraph.alibaba_cloud.domain;" parent="1" vertex="1">
          <mxGeometry x="80" y="-175.34" width="140" height="140" as="geometry" />
        </mxCell>
        <mxCell id="_nKDaGLRIUqMEB5DJism-39" value="" style="image;sketch=0;aspect=fixed;html=1;points=[];align=center;fontSize=12;image=img/lib/mscae/Cache_Redis_Product.svg;" parent="1" vertex="1">
          <mxGeometry x="1142.73" y="-340" width="115.84" height="97.3" as="geometry" />
        </mxCell>
        <mxCell id="_nKDaGLRIUqMEB5DJism-45" value="" style="sketch=0;outlineConnect=0;fontColor=#232F3E;gradientColor=none;fillColor=#7AA116;strokeColor=none;dashed=0;verticalLabelPosition=bottom;verticalAlign=top;align=center;html=1;fontSize=12;fontStyle=0;aspect=fixed;pointerEvents=1;shape=mxgraph.aws4.bucket_with_objects;" parent="1" vertex="1">
          <mxGeometry x="1886.03" y="-685" width="124.49" height="129.47" as="geometry" />
        </mxCell>
        <mxCell id="RHB_pN6yy8svmLqYVbG7-1" value="" style="points=[];aspect=fixed;html=1;align=center;shadow=0;dashed=0;fillColor=#FF6A00;strokeColor=none;shape=mxgraph.alibaba_cloud.ahas_application_high_availability_service;" parent="1" vertex="1">
          <mxGeometry x="1780" y="-455.03" width="160.52" height="185.37" as="geometry" />
        </mxCell>
        <mxCell id="RHB_pN6yy8svmLqYVbG7-2" value="" style="points=[];aspect=fixed;html=1;align=center;shadow=0;dashed=0;fillColor=#FF6A00;strokeColor=none;shape=mxgraph.alibaba_cloud.ahas_application_high_availability_service;" parent="1" vertex="1">
          <mxGeometry x="1780" y="-70" width="160.52" height="185.37" as="geometry" />
        </mxCell>
        <mxCell id="sokSjqJYdPygAkye1XA7-3" value="" style="image;aspect=fixed;html=1;points=[];align=center;fontSize=12;image=img/lib/azure2/databases/SQL_Database.svg;" parent="1" vertex="1">
          <mxGeometry x="2220" y="-230" width="83" height="110.67" as="geometry" />
        </mxCell>
        <mxCell id="2_uP3W8vZetUixopo-HL-2" value="" style="group" parent="1" vertex="1" connectable="0">
          <mxGeometry x="1030.65" y="-90" width="340" height="150" as="geometry" />
        </mxCell>
        <mxCell id="nfc_CJliKzLETDadEk0b-1" value="" style="strokeWidth=2;html=1;shape=mxgraph.flowchart.direct_data;whiteSpace=wrap;" parent="2_uP3W8vZetUixopo-HL-2" vertex="1">
          <mxGeometry width="340" height="150" as="geometry" />
        </mxCell>
        <mxCell id="_nKDaGLRIUqMEB5DJism-40" value="" style="shape=image;verticalLabelPosition=bottom;verticalAlign=top;imageAspect=0;aspect=fixed;image=https://apache.org/logos/res/kafka/kafka.png" parent="2_uP3W8vZetUixopo-HL-2" vertex="1">
          <mxGeometry x="70" y="30" width="180.01" height="90" as="geometry" />
        </mxCell>
        <mxCell id="2_uP3W8vZetUixopo-HL-7" value="" style="shape=image;imageAspect=0;aspect=fixed;verticalLabelPosition=bottom;verticalAlign=top;image=data:image/svg+xml;base64,PHN2ZyB4bWxuczp4bGluaz0iaHR0cDovL3d3dy53My5vcmcvMTk5OS94bGluayIgeG1sbnM9Imh0dHA6Ly93d3cudzMub3JnLzIwMDAvc3ZnIiB3aWR0aD0iMjU2IiB2aWV3Qm94PSIwLjAwMDAwMzgxNDY5NzI2NTYyNSAtMC4wMDAwMDc2MjkzOTQ1MzEyNSAyNTYgMjc4LjE5ODQ4NjMyODEyNSIgcHJlc2VydmVBc3BlY3RSYXRpbz0ieE1pZFlNaWQiIGhlaWdodD0iMjc4LjE5ODQ4NjMyODEyNSI+PGxpbmVhckdyYWRpZW50IHkyPSIzMS4xMzkwMDglIiB5MT0iMTIyLjQ1MDM1OCUiIHgyPSI0OS45OTQ3ODQlIiB4MT0iNDkuOTk0Nzg0JSIgaWQ9ImEiPjxzdG9wIHN0b3AtY29sb3I9IiNmZmYxMDAiIG9mZnNldD0iMCIvPjxzdG9wIHN0b3AtY29sb3I9IiNmMDVhMjgiIG9mZnNldD0iMSIvPjwvbGluZWFyR3JhZGllbnQ+PHBhdGggZmlsbD0idXJsKCNhKSIgZD0ibTI1NS41OTAxIDEyMi43NzUyMTVjLS40NTk4MzItNC42NzQ5NjItMS4yMjYyMTktMTAuMDM5NjcyLTIuNzU4OTkzLTE2LjAxNzQ5MS0xLjUzMjc3NS01LjkwMTE4MS0zLjgzMTkzNi0xMi40MTU0NzExLTcuMjA0MDM5LTE5LjE1OTY3NzctMy4zNzIxMDMtNi43NDQyMDY1LTcuNzQwNTEtMTMuNzE4MzI5Mi0xMy40MTE3NzUtMjAuNTM5MTc0NC0yLjIyMjUyMi0yLjY4MjM1NDktNC42NzQ5NjEtNS4yODgwNzExLTcuMjgwNjc3LTcuODE3MTQ4NSAzLjkwODU3NC0xNS41NTc2NTgzLTQuNzUxNi0yOS4wNDYwNzE0LTQuNzUxNi0yOS4wNDYwNzE0LTE0Ljk0NDU0OS0uOTE5NjY0NS0yNC40NDc3NDkgNC42NzQ5NjE0LTI3Ljk3MzEzIDcuMjA0MDM4OC0uNjEzMTA5LS4yMjk5MTYxLTEuMTQ5NTgtLjUzNjQ3MDktMS43NjI2OS0uNzY2Mzg3MS0yLjUyOTA3Ny0uOTk2MzAzMi01LjEzNDc5NC0xLjk5MjYwNjUtNy44OTM3ODctMi44MzU2MzIzLTIuNjgyMzU1LS44NDMwMjU4LTUuNDQxMzQ5LTEuNjA5NDEyOS04LjI3Njk4MS0yLjI5OTE2MTNzLTUuNjcxMjY0LTEuMjI2MjE5NC04LjU4MzUzNS0xLjY4NjA1MTZjLS41MzY0NzEtLjA3NjYzODctLjk5NjMwNC0uMTUzMjc3NS0xLjUzMjc3NS0uMjI5OTE2Mi02LjUxNDI5LTIwLjg0NTcyOTI4LTI1LjIxNDEzNS0yOS41ODI1NDIzLTI1LjIxNDEzNS0yOS41ODI1NDIzLTIwLjkyMjM2OSAxMy4yNTg0OTctMjQuODMwOTQzIDMxLjgwNTA2NDktMjQuODMwOTQzIDMxLjgwNTA2NDlzLS4wNzY2MzguMzgzMTkzNi0uMjI5OTE2IDEuMDcyOTQyYy0xLjE0OTU4MS4zMDY1NTQ4LTIuMjk5MTYxLjY4OTc0ODQtMy40NDg3NDIuOTk2MzAzMi0xLjYwOTQxMy40NTk4MzIzLTMuMjE4ODI2IDEuMDcyOTQyLTQuNzUxNiAxLjY4NjA1MTctMS42MDk0MTMuNjEzMTA5Ny0zLjE0MjE4NyAxLjIyNjIxOTMtNC43NTE2IDEuOTE1OTY3Ny0zLjE0MjE4NzEgMS4zNzk0OTY4LTYuMjg0Mzc0MyAyLjkxMjI3MS05LjM0OTkyMjcgNC41OTgzMjI3LTIuOTg4OTA5NyAxLjY4NjA1MTYtNS45MDExODA3IDMuNTI1MzgwNy04LjczNjgxMyA1LjQ0MTM0ODQtLjM4MzE5MzYtLjE1MzI3NzQtLjc2NjM4NzEtLjMwNjU1NDgtLjc2NjM4NzEtLjMwNjU1NDgtMjguOTY5NDMyNy0xMS4wMzU5NzQzLTU0LjY0MzQwMDggMi4yMjI1MjI2LTU0LjY0MzQwMDggMi4yMjI1MjI2LTIuMzc1OCAzMC44MDg3NjE3IDExLjU3MjQ0NTQgNTAuMTk4MzU1NSAxNC4zMzE0Mzg5IDUzLjcyMzczNjYtLjY4OTc0ODQgMS45MTU5NjctMS4zMDI4NTggMy44MzE5MzUtMS45MTU5Njc3IDUuNzQ3OTAzLTIuMTQ1ODgzOSA2Ljk3NDEyMy0zLjc1NTI5NjkgMTQuMTAxNTIzLTQuNzUxNjAwMSAyMS41MzU0NzgtLjE1MzI3NzQgMS4wNzI5NDItLjMwNjU1NDggMi4xNDU4ODQtLjM4MzE5MzUgMy4yMTg4MjUtMjYuODIzNTQ4OCAxMy4yNTg0OTctMzQuNzE3MzM2IDQwLjMxMTk2Mi0zNC43MTczMzYgNDAuMzExOTYyIDIyLjMwMTg2NDggMjUuNjczOTY4IDQ4LjM1OTAyNjUgMjcuMjgzMzgxIDQ4LjM1OTAyNjUgMjcuMjgzMzgxcy4wNzY2Mzg3LS4wNzY2MzguMDc2NjM4Ny0uMDc2NjM4YzMuMjk1NDY0NSA1LjkwMTE4IDcuMTI3NDAwMSAxMS40OTU4MDYgMTEuNDE5MTY3OSAxNi43ODM4NzcgMS44MzkzMjkgMi4yMjI1MjMgMy42Nzg2NTgxIDQuMjkxNzY4IDUuNjcxMjY0NiA2LjM2MTAxMy04LjEyMzcwMzQgMjMuMjk4MTY4IDEuMTQ5NTgwNiA0Mi42MTExMjMgMS4xNDk1ODA2IDQyLjYxMTEyMyAyNC44MzA5NDIzLjkxOTY2NSA0MS4xNTQ5ODc3LTEwLjg4MjY5NyA0NC42MDM3Mjk3LTEzLjU2NTA1MSAyLjQ1MjQzOS44NDMwMjUgNC45ODE1MTYgMS42MDk0MTMgNy41MTA1OTQgMi4yMjI1MjIgNy42NjM4NzEgMS45OTI2MDcgMTUuNDgxMDE5IDMuMTQyMTg3IDIzLjI5ODE2OCAzLjQ0ODc0MiAxLjkxNTk2Ny4wNzY2MzkgMy45MDg1NzQuMTUzMjc4IDUuODI0NTQyLjA3NjYzOWguOTE5NjY0LjYxMzExIDEuMjI2MjE5bDEuMjI2MjItLjA3NjYzOXYuMDc2NjM5YzExLjcyNTcyMiAxNi43MDcyMzkgMzIuMjY0ODk3IDE5LjA4MzAzOSAzMi4yNjQ4OTcgMTkuMDgzMDM5IDE0LjYzNzk5NC0xNS40MDQzODEgMTUuNDgxMDE5LTMwLjczMjEyMyAxNS40ODEwMTktMzQuMDI3NTg4IDAgMCAwLS4wNzY2MzggMC0uMjI5OTE2IDAtLjMwNjU1NSAwLS40NTk4MzIgMC0uNDU5ODMyIDAtLjIyOTkxNiAwLS40NTk4MzIgMC0uNjg5NzQ4IDMuMDY1NTQ5LTIuMTQ1ODg0IDUuOTc3ODItNC40NDUwNDYgOC43MzY4MTMtNi45NzQxMjMgNS44MjQ1NDItNS4yODgwNzEgMTAuOTU5MzM2LTExLjM0MjUyOSAxNS4yNTExMDQtMTcuODU2ODIuMzgzMTkzLS42MTMxMDkuNzY2Mzg3LTEuMjI2MjE5IDEuMTQ5NTgxLTEuODM5MzI5IDE2LjU1Mzk2MS45MTk2NjUgMjguMjc5Njg0LTEwLjI2OTU4NyAyOC4yNzk2ODQtMTAuMjY5NTg3LTIuNzU4OTk0LTE3LjI0MzcxLTEyLjU2ODc0OS0yNS42NzM5NjgtMTQuNjM3OTk0LTI3LjI4MzM4MSAwIDAtLjA3NjYzOS0uMDc2NjM5LS4yMjk5MTYtLjE1MzI3Ny0uMTUzMjc4LS4wNzY2MzktLjE1MzI3OC0uMTUzMjc4LS4xNTMyNzgtLjE1MzI3OC0uMDc2NjM4LS4wNzY2MzktLjIyOTkxNi0uMTUzMjc3LS4zODMxOTMtLjIyOTkxNi4wNzY2MzktMS4wNzI5NDIuMTUzMjc3LTIuMDY5MjQ1LjIyOTkxNi0zLjE0MjE4Ny4xNTMyNzctMS44MzkzMjkuMTUzMjc3LTMuNzU1Mjk3LjE1MzI3Ny01LjU5NDYyNnYtMS4zNzk0OTctLjY4OTc0OC0uMzgzMTk0YzAtLjQ1OTgzMiAwLS4zMDY1NTUgMC0uNDU5ODMybC0uMDc2NjM4LTEuMTQ5NTgxLS4wNzY2MzktMS41MzI3NzRjMC0uNTM2NDcxLS4wNzY2MzktLjk5NjMwMy0uMTUzMjc3LTEuNDU2MTM1LS4wNzY2MzktLjQ1OTgzMy0uMDc2NjM5LS45OTYzMDQtLjE1MzI3OC0xLjQ1NjEzNmwtLjE1MzI3Ny0xLjQ1NjEzNS0uMjI5OTE2LTEuNDU2MTM2Yy0uMzA2NTU1LTEuOTE1OTY4LS42MTMxMS0zLjc1NTI5Ny0xLjA3Mjk0Mi01LjY3MTI2NS0xLjc2MjY5MS03LjQzMzk1NC00LjY3NDk2Mi0xNC40ODQ3MTYtOC40MzAyNTgtMjAuODQ1NzI5LTMuODMxOTM2LTYuMzYxMDEzLTguNTgzNTM2LTExLjk1NTYzOS0xNC4wMjQ4ODUtMTYuNzA3MjM5LTUuMzY0NzA5LTQuNzUxNi0xMS40MTkxNjctOC41ODM1MzUtMTcuNzAzNTQyLTExLjQxOTE2OC02LjM2MTAxMy0yLjgzNTYzMi0xMi45NTE5NDItNC42NzQ5NjEtMTkuNTQyODcxLTUuNTE3OTg2OC0zLjI5NTQ2NS0uNDU5ODMyMy02LjU5MDkyOS0uNjEzMTA5Ny05Ljg4NjM5NC0uNTM2NDcxaC0xLjIyNjIxOS0uMzA2NTU1Yy0uMDc2NjM5IDAtLjQ1OTgzMiAwLS4zODMxOTMgMGgtLjUzNjQ3MWwtMS4yMjYyMi4wNzY2Mzg3Yy0uNDU5ODMyIDAtLjkxOTY2NC4wNzY2Mzg3LTEuMzAyODU4LjA3NjYzODctMS42ODYwNTEuMTUzMjc3NC0zLjM3MjEwMy4zODMxOTM2LTQuOTgxNTE2LjY4OTc0ODQtNi41OTA5MjkgMS4yMjYyMTk0LTEyLjc5ODY2NSAzLjYwMjAxOS0xOC4yNDAwMTMgNi44OTc0ODQtNS40NDEzNDkgMy4yOTU0NjUtMTAuMTkyOTQ5IDcuMzU3MzE2LTE0LjAyNDg4NCAxMS45NTU2MzktMy44MzE5MzYgNC41OTgzMjItNi44MjA4NDUgOS43MzMxMTYtOC44OTAwOTEgMTUuMDIxMTg3LTIuMDY5MjQ1IDUuMjg4MDcxLTMuMjE4ODI2IDEwLjgwNjA1OC0zLjUyNTM4IDE2LjA5NDEyOS0uMDc2NjM5IDEuMzAyODU4LS4wNzY2MzkgMi42ODIzNTUtLjA3NjYzOSAzLjk4NTIxM3YuOTk2MzA0bC4wNzY2MzkgMS4wNzI5NDJjLjA3NjYzOC42MTMxMDkuMDc2NjM4IDEuMzAyODU4LjE1MzI3NyAxLjkxNTk2Ny4yMjk5MTYgMi42ODIzNTUuNzY2Mzg3IDUuMjg4MDcxIDEuNDU2MTM2IDcuNzQwNTEgMS40NTYxMzUgNC45ODE1MTYgMy43NTUyOTYgOS41MDMyIDYuNTkwOTI5IDEzLjMzNTEzNiAyLjgzNTYzMiAzLjgzMTkzNSA2LjI4NDM3NCA2Ljk3NDEyMiA5Ljg4NjM5MyA5LjUwMzIgMy42MDIwMiAyLjQ1MjQzOSA3LjUxMDU5NCA0LjIxNTEyOSAxMS4zNDI1MyA1LjM2NDcxIDMuODMxOTM1IDEuMTQ5NTggNy42NjM4NzEgMS42MDk0MTMgMTEuMjY1ODkgMS42MDk0MTNoMS4zMDI4NTguNjg5NzQ4Yy4yMjk5MTcgMCAuNDU5ODMzIDAgLjY4OTc0OS0uMDc2NjM5LjM4MzE5MyAwIC43NjYzODctLjA3NjYzOSAxLjE0OTU4MS0uMDc2NjM5LjA3NjYzOCAwIC4yMjk5MTYgMCAuMzA2NTU0LS4wNzY2MzlsLjM4MzE5NC0uMDc2NjM4Yy4yMjk5MTYgMCAuNDU5ODMyLS4wNzY2MzkuNjg5NzQ4LS4wNzY2MzkuNDU5ODMzLS4wNzY2MzkuODQzMDI2LS4xNTMyNzcgMS4zMDI4NTgtLjIyOTkxNi40NTk4MzMtLjA3NjYzOS44NDMwMjYtLjE1MzI3OCAxLjIyNjIyLS4zMDY1NTUuODQzMDI2LS4xNTMyNzcgMS42MDk0MTMtLjQ1OTgzMiAyLjM3NTgtLjY4OTc0OCAxLjUzMjc3NC0uNTM2NDcxIDMuMDY1NTQ4LTEuMTQ5NTgxIDQuMzY4NDA2LTEuODM5MzI5IDEuMzc5NDk3LS42ODk3NDkgMi42MDU3MTctMS41MzI3NzUgMy44MzE5MzYtMi4yOTkxNjIuMzA2NTU1LS4yMjk5MTYuNjg5NzQ4LS40NTk4MzIuOTk2MzAzLS43NjYzODcgMS4yMjYyMTktLjk5NjMwMyAxLjQ1NjEzNi0yLjgzNTYzMi40NTk4MzItNC4wNjE4NTItLjg0MzAyNS0xLjA3Mjk0MS0yLjM3NTgtMS4zNzk0OTYtMy42MDIwMTktLjY4OTc0OC0uMzA2NTU1LjE1MzI3Ny0uNjEzMTEuMzA2NTU1LS45MTk2NjUuNDU5ODMyLTEuMDcyOTQxLjUzNjQ3MS0yLjE0NTg4My45OTYzMDQtMy4yOTU0NjQgMS4zNzk0OTctMS4xNDk1ODEuMzgzMTk0LTIuMzc1OC42ODk3NDktMy42MDIwMi45MTk2NjUtLjYxMzEwOS4wNzY2MzgtMS4yMjYyMTkuMTUzMjc3LTEuOTE1OTY3LjIyOTkxNi0uMzA2NTU1IDAtLjYxMzExLjA3NjYzOC0uOTk2MzA0LjA3NjYzOC0uMzA2NTU0IDAtLjY4OTc0OCAwLS45MTk2NjQgMC0uMzA2NTU1IDAtLjYxMzExIDAtLjkxOTY2NSAwLS4zODMxOTMgMC0uNzY2Mzg3IDAtMS4xNDk1OC0uMDc2NjM4aC0uMDc2NjM5LS4xNTMyNzctLjIyOTkxN2MtLjE1MzI3NyAwLS4zODMxOTMgMC0uNTM2NDctLjA3NjYzOS0uMzgzMTk0LS4wNzY2MzktLjY4OTc0OS0uMDc2NjM5LTEuMDcyOTQyLS4xNTMyNzctMi44MzU2MzMtLjM4MzE5NC01LjY3MTI2NS0xLjIyNjIyLTguMzUzNjItMi40NTI0MzktMi43NTg5OTMtMS4yMjYyMTktNS4zNjQ3MS0yLjkxMjI3MS03Ljc0MDUxLTUuMDU4MTU1cy00LjQ0NTA0NS00LjY3NDk2MS02LjA1NDQ1OC03LjU4NzIzMi0yLjc1ODk5My02LjEzMTA5Ny0zLjI5NTQ2NC05LjUwMzJjLS4yMjk5MTctMS42ODYwNTItLjM4MzE5NC0zLjQ0ODc0Mi0uMzA2NTU1LTUuMTM0Nzk0IDAtLjQ1OTgzMi4wNzY2MzgtLjkxOTY2NS4wNzY2MzgtMS4zNzk0OTd2LS4wNzY2MzktLjE1MzI3Ny0uMzgzMTk0YzAtLjIyOTkxNi4wNzY2MzktLjQ1OTgzMi4wNzY2MzktLjY4OTc0OC4wNzY2MzktLjkxOTY2NS4yMjk5MTYtMS44MzkzMjkuMzgzMTk0LTIuNzU4OTk0IDEuMzAyODU4LTcuMzU3MzE2IDQuOTgxNTE2LTE0LjU2MTM1NSAxMC42NTI3ODEtMjAuMDAyNzAzIDEuNDU2MTM1LTEuMzc5NDk3IDIuOTg4OTA5LTIuNjA1NzE2IDQuNTk4MzIyLTMuNzU1Mjk3czMuMzcyMTAzLTIuMTQ1ODg0IDUuMjExNDMzLTIuOTg4OTFjMS44MzkzMjktLjg0MzAyNSAzLjY3ODY1OC0xLjUzMjc3NCA1LjY3MTI2NC0yLjA2OTI0NSAxLjkxNTk2OC0uNTM2NDcxIDMuOTA4NTc0LS44NDMwMjYgNS45Nzc4Mi0xLjA3Mjk0Mi45OTYzMDMtLjA3NjYzOCAxLjk5MjYwNi0uMTUzMjc3IDMuMDY1NTQ4LS4xNTMyNzdoLjY4OTc0OC44NDMwMjYuNTM2NDcxLjA3NjYzOS4yMjk5MTZsLjg0MzAyNi4wNzY2MzljMi4yMjI1MjIuMTUzMjc3IDQuMzY4NDA2LjQ1OTgzMiA2LjUxNDI5Ljk5NjMwMyA0LjI5MTc2OC45MTk2NjQgOC41MDY4OTcgMi41MjkwNzcgMTIuNDE1NDcxIDQuNjc0OTYxIDcuODE3MTQ5IDQuMzY4NDA3IDE0LjQ4NDcxNyAxMS4xMTI2MTMgMTguNTQ2NTY4IDE5LjIzNjMxNyAyLjA2OTI0NiA0LjA2MTg1MSAzLjUyNTM4MSA4LjQzMDI1OCA0LjIxNTEyOSAxMi45NTE5NDIuMTUzMjc4IDEuMTQ5NTguMzA2NTU1IDIuMjk5MTYxLjM4MzE5NCAzLjQ0ODc0MmwuMDc2NjM5Ljg0MzAyNS4wNzY2MzguODQzMDI2di44NDMwMjYuODQzMDI2Ljc2NjM4Ny44NDMwMjZjMCAuNTM2NDcxLS4wNzY2MzggMS40NTYxMzUtLjA3NjYzOCAxLjk5MjYwNi0uMDc2NjM5IDEuMjI2MjItLjIyOTkxNiAyLjUyOTA3OC0uMzgzMTk0IDMuNzU1Mjk3LS4xNTMyNzcgMS4yMjYyMTktLjM4MzE5MyAyLjQ1MjQzOS0uNjEzMTEgMy42Nzg2NTgtLjIyOTkxNiAxLjIyNjIyLS41MzY0NzEgMi40NTI0MzktLjg0MzAyNSAzLjYwMjAyLS42MTMxMSAyLjM3NTgtMS4zNzk0OTcgNC43NTE2LTIuMjk5MTYyIDcuMTI3NC0xLjgzOTMyOSA0LjU5ODMyMi00LjI5MTc2NyA5LjA0MzM2OC03LjIwNDAzOCAxMy4xMDUyMTktNS45MDExODEgOC4xMjM3MDQtMTMuOTQ4MjQ2IDE0LjcxNDYzMy0yMy4xNDQ4OTEgMTguOTI5NzYyLTQuNTk4MzIzIDIuMDY5MjQ1LTkuNDI2NTYyIDMuNjAyMDE5LTE0LjQwODA3OCA0LjM2ODQwNi0yLjQ1MjQzOC40NTk4MzMtNC45ODE1MTYuNjg5NzQ5LTcuNTEwNTkzLjc2NjM4N2gtLjQ1OTgzMy0uMzgzMTkzLS44NDMwMjYtMS4yMjYyMTktLjYxMzExLS4wNzY2MzktLjIyOTkxNmMtMS4zNzk0OTcgMC0yLjY4MjM1NS0uMDc2NjM4LTQuMDYxODUyLS4yMjk5MTYtNS4zNjQ3MDktLjM4MzE5My0xMC42NTI3OC0xLjM3OTQ5Ni0xNS44NjQyMTMtMi44MzU2MzItNS4xMzQ3OTMtMS40NTYxMzYtMTAuMTE2MzEtMy41MjUzODEtMTQuODY3OTEtNS45Nzc4MTktOS40MjY1NjEtNS4wNTgxNTUtMTcuOTMzNDU3OS0xMS45NTU2MzktMjQuNTI0Mzg3LTIwLjMwOTI1OS0zLjI5NTQ2NDYtNC4xMzg0OS02LjIwNzczNTYtOC42NjAxNzQtOC41ODM1MzU2LTEzLjMzNTEzNS0yLjM3NTgtNC42NzQ5NjItNC4yOTE3Njc4LTkuNjU2NDc4LTUuNjcxMjY0Ni0xNC42Mzc5OTQtMS4zNzk0OTY4LTUuMDU4MTU1LTIuMjIyNTIyNi0xMC4xOTI5NDktMi42MDU3MTYyLTE1LjQwNDM4MWwtLjA3NjYzODctLjk5NjMwM3YtLjIyOTkxNi0uMjI5OTE3LS40NTk4MzItLjg0MzAyNi0uMjI5OTE2LS4zMDY1NTUtLjYxMzEwOS0xLjIyNjIyLS4yMjk5MTZzMCAuMDc2NjM5IDAtLjA3NjYzOHYtLjQ1OTgzM2MwLS42MTMxMDkgMC0xLjMwMjg1OCAwLTEuOTE1OTY4LjA3NjYzODctMi41MjkwNzcuMzA2NTU0OS01LjIxMTQzMi42MTMxMDk3LTcuODE3MTQ4LjMwNjU1NDktMi42MDU3MTYuNzY2Mzg3MS01LjI4ODA3MSAxLjMwMjg1ODEtNy44OTM3ODdzMS4xNDk1ODA3LTUuMjExNDMzIDEuOTE1OTY3OC03LjgxNzE0OWMxLjQ1NjEzNTUtNS4xMzQ3OTMgMy4yOTU0NjQ1LTEwLjExNjMxIDUuNDQxMzQ4NC0xNC43OTEyNzEgNC4zNjg0MDY1LTkuMzQ5OTIyNiAxMC4wMzk2NzExLTE3LjcwMzU0MjEgMTYuODYwNTE2NC0yNC4zNzExMDk5IDEuNjg2MDUxNi0xLjY4NjA1MTYgMy40NDg3NDE3LTMuMjE4ODI1OCA1LjI4ODA3MDctNC43NTE2MDAxIDEuODM5MzI5LTEuNDU2MTM1NSAzLjc1NTI5Ny0yLjgzNTYzMjIgNS43NDc5MDQtNC4xMzg0OTAzIDEuOTE1OTY3LTEuMzAyODU4MSAzLjk4NTIxMy0yLjQ1MjQzODggNi4wNTQ0NTgtMy41MjUzODA3Ljk5NjMwMy0uNTM2NDcxIDIuMDY5MjQ1LTEuMDcyOTQyIDMuMTQyMTg3LTEuNTMyNzc0Mi41MzY0NzEtLjIyOTkxNjIgMS4wNzI5NDItLjQ1OTgzMjMgMS42MDk0MTMtLjY4OTc0ODQuNTM2NDcxLS4yMjk5MTYyIDEuMDcyOTQyLS40NTk4MzIzIDEuNjA5NDEzLS42ODk3NDg0IDIuMTQ1ODg0LS45MTk2NjQ2IDQuMzY4NDA2LTEuNjg2MDUxNyA2LjY2NzU2OC0yLjM3NTgwMDEuNTM2NDcxLS4xNTMyNzc0IDEuMTQ5NTgtLjMwNjU1NDggMS42ODYwNTEtLjUzNjQ3MDkuNTM2NDcxLS4xNTMyNzc1IDEuMTQ5NTgxLS4zMDY1NTQ5IDEuNjg2MDUyLS40NTk4MzIzIDEuMTQ5NTgxLS4zMDY1NTQ4IDIuMjk5MTYxLS42MTMxMDk3IDMuNDQ4NzQyLS44NDMwMjU4LjUzNjQ3MS0uMTUzMjc3NCAxLjE0OTU4MS0uMjI5OTE2MiAxLjc2MjY5LS4zODMxOTM2LjYxMzExLS4xNTMyNzc0IDEuMTQ5NTgxLS4yMjk5MTYxIDEuNzYyNjkxLS4zODMxOTM1LjYxMzEwOS0uMDc2NjM4NyAxLjE0OTU4LS4yMjk5MTYyIDEuNzYyNjktLjMwNjU1NDlsLjg0MzAyNi0uMTUzMjc3NC45MTk2NjQtLjE1MzI3NzRjLjYxMzExLS4wNzY2Mzg3IDEuMTQ5NTgxLS4xNTMyNzc0IDEuNzYyNjkxLS4yMjk5MTYxLjY4OTc0OC0uMDc2NjM4OCAxLjMwMjg1OC0uMTUzMjc3NSAxLjk5MjYwNi0uMjI5OTE2Mi41MzY0NzEtLjA3NjYzODcgMS40NTYxMzYtLjE1MzI3NzQgMS45OTI2MDctLjIyOTkxNjEuMzgzMTkzLS4wNzY2Mzg3Ljg0MzAyNS0uMDc2NjM4NyAxLjIyNjIxOS0uMTUzMjc3NGwuODQzMDI2LS4wNzY2Mzg3LjM4MzE5My0uMDc2NjM4OGguNDU5ODMzYy42ODk3NDgtLjA3NjYzODcgMS4zMDI4NTgtLjA3NjYzODcgMS45OTI2MDYtLjE1MzI3NzRsLjk5NjMwMy0uMDc2NjM4N3MuMzgzMTk0IDAgLjA3NjYzOSAwaC4yMjk5MTYuNDU5ODMyYy41MzY0NzEgMCAxLjE0OTU4MS0uMDc2NjM4NyAxLjY4NjA1Mi0uMDc2NjM4NyAyLjIyMjUyMy0uMDc2NjM4NyA0LjUyMTY4NC0uMDc2NjM4NyA2Ljc0NDIwNyAwIDQuNDQ1MDQ1LjE1MzI3NzQgOC44MTM0NTEuNjg5NzQ4NCAxMy4wMjg1OCAxLjQ1NjEzNTUgOC41MDY4OTcgMS42MDk0MTI5IDE2LjQ3NzMyMyA0LjI5MTc2NzggMjMuNzU4MDAxIDcuODkzNzg3MiA3LjI4MDY3NyAzLjUyNTM4MDcgMTMuNzE4MzI5IDcuODkzNzg3MiAxOS4zODk1OTMgMTIuNjQ1Mzg3My4zODMxOTQuMzA2NTU0OC42ODk3NDkuNjEzMTA5NyAxLjA3Mjk0Mi45MTk2NjQ1LjMwNjU1NS4zMDY1NTQ5LjY4OTc0OS42MTMxMDk3Ljk5NjMwNC45MTk2NjQ1LjY4OTc0OC42MTMxMDk3IDEuMzAyODU4IDEuMjI2MjE5NCAxLjk5MjYwNiAxLjgzOTMyOTEuNjg5NzQ5LjYxMzEwOTcgMS4zMDI4NTggMS4yMjYyMTk0IDEuOTE1OTY4IDEuODM5MzI5MS42MTMxMS42MTMxMDk2IDEuMjI2MjE5IDEuMjI2MjE5MyAxLjgzOTMyOSAxLjkxNTk2NzcgMi4zNzU4IDIuNTI5MDc3NSA0LjU5ODMyMyA1LjA1ODE1NDkgNi41OTA5MjkgNy42NjM4NzExIDMuOTg1MjEzIDUuMTM0Nzk0IDcuMjA0MDM5IDEwLjM0NjIyNiA5LjczMzExNiAxNS4yNTExMDMuMTUzMjc4LjMwNjU1NS4zMDY1NTUuNjEzMTEuNDU5ODMzLjkxOTY2NS4xNTMyNzcuMzA2NTU1LjMwNjU1NC42MTMxMS40NTk4MzIuOTE5NjY0LjMwNjU1NS42MTMxMS42MTMxMSAxLjIyNjIyLjg0MzAyNiAxLjgzOTMzLjMwNjU1NS42MTMxMDkuNTM2NDcxIDEuMTQ5NTguODQzMDI2IDEuNzYyNjkuMjI5OTE2LjYxMzExLjUzNjQ3MSAxLjE0OTU4MS43NjYzODcgMS43NjI2OS45MTk2NjQgMi4yOTkxNjIgMS44MzkzMjkgNC41MjE2ODQgMi41MjkwNzcgNi41OTA5MjkgMS4xNDk1ODEgMy4zNzIxMDQgMS45OTI2MDcgNi4zNjEwMTMgMi42ODIzNTUgOC45NjY3My4yMjk5MTYgMS4wNzI5NDEgMS4yMjYyMTkgMS43NjI2OSAyLjI5OTE2MSAxLjYwOTQxMiAxLjE0OTU4MS0uMDc2NjM4IDEuOTkyNjA3LS45OTYzMDMgMS45OTI2MDctMi4xNDU4ODMuMDc2NjM4LTIuNzU4OTk0IDAtNi4wNTQ0NTktLjM4MzE5NC05LjgwOTc1NXoiLz48L3N2Zz4=;base64,PHN2ZyB4bWxucz0iaHR0cDovL3d3dy53My5vcmcvMjAwMC9zdmciIHZlcnNpb249IjEuMSIgeG1sOnNwYWNlPSJwcmVzZXJ2ZSIgaGVpZ2h0PSIxMDMuOTIwMDA1Nzk4MzM5ODQiIHdpZHRoPSI4OS42Mzk5OTE3NjAyNTM5IiB2aWV3Qm94PSIwIDAgODkuNjM5OTkxNzYwMjUzOSAxMDMuOTIwMDA1Nzk4MzM5ODQiPiYjeGE7IDxkZWZzPiYjeGE7ICA8bGluZWFyR3JhZGllbnQgaWQ9IlNWR0lEXzFfIiB4MT0iMC45MjAxNiIgeTE9IjMuMjA1MTUiIHgyPSItMS4xMTY4OCIgeTI9Ii0xMC4wMzIyNyI+JiN4YTsgICA8c3RvcCBvZmZzZXQ9IjAiIHN0b3AtY29sb3I9IiNmYWVkMWUiLz4mI3hhOyAgIDxzdG9wIG9mZnNldD0iMSIgc3RvcC1jb2xvcj0iI2YxNWIyYiIvPiYjeGE7ICA8L2xpbmVhckdyYWRpZW50PiYjeGE7ICA8bGluZWFyR3JhZGllbnQgaWQ9IlNWR0lEXzJfIiB4MT0iMC42NTg4OCIgeTE9IjMuMjkxMTIiIHgyPSIwLjE0NDEiIHkyPSItNS44MDY2NCI+JiN4YTsgICA8c3RvcCBvZmZzZXQ9IjAiIHN0b3AtY29sb3I9IiNmYWVkMWUiLz4mI3hhOyAgIDxzdG9wIG9mZnNldD0iMSIgc3RvcC1jb2xvcj0iI2YxNWIyYiIvPiYjeGE7ICA8L2xpbmVhckdyYWRpZW50PiYjeGE7ICA8bGluZWFyR3JhZGllbnQgaWQ9IlNWR0lEXzNfIiB4MT0iMS4xMjg5MSIgeTE9IjQuNTYxNzMiIHgyPSItMC45MDgxMyIgeTI9Ii04LjY3NTY5Ij4mI3hhOyAgIDxzdG9wIG9mZnNldD0iMCIgc3RvcC1jb2xvcj0iI2ZhZWQxZSIvPiYjeGE7ICAgPHN0b3Agb2Zmc2V0PSIxIiBzdG9wLWNvbG9yPSIjZjE1YjJiIi8+JiN4YTsgIDwvbGluZWFyR3JhZGllbnQ+JiN4YTsgIDxsaW5lYXJHcmFkaWVudCBpZD0iU1ZHSURfNF8iIHgxPSIwLjkxOTkzIiB5MT0iMy4yMDQ1NyIgeDI9Ii0xLjExNzExIiB5Mj0iLTEwLjAzMjg2Ij4mI3hhOyAgIDxzdG9wIG9mZnNldD0iMCIgc3RvcC1jb2xvcj0iI2ZhZWQxZSIvPiYjeGE7ICAgPHN0b3Agb2Zmc2V0PSIxIiBzdG9wLWNvbG9yPSIjZjE1YjJiIi8+JiN4YTsgIDwvbGluZWFyR3JhZGllbnQ+JiN4YTsgIDxsaW5lYXJHcmFkaWVudCBpZD0iU1ZHSURfNV8iIHgxPSIxLjEyOTUiIHkxPSI0LjU2MTg0IiB4Mj0iLTAuOTA5NjciIHkyPSItOC42NzU1OCI+JiN4YTsgICA8c3RvcCBvZmZzZXQ9IjAiIHN0b3AtY29sb3I9IiNmYWVkMWUiLz4mI3hhOyAgIDxzdG9wIG9mZnNldD0iMSIgc3RvcC1jb2xvcj0iI2YxNWIyYiIvPiYjeGE7ICA8L2xpbmVhckdyYWRpZW50PiYjeGE7ICA8bGluZWFyR3JhZGllbnQgaWQ9IlNWR0lEXzZfIiB4MT0iMC42MDYyNyIgeTE9IjIuMzU4NjkiIHgyPSIwLjA5MTQ5IiB5Mj0iLTYuNzM5MDciPiYjeGE7ICAgPHN0b3Agb2Zmc2V0PSIwIiBzdG9wLWNvbG9yPSIjZmFlZDFlIi8+JiN4YTsgICA8c3RvcCBvZmZzZXQ9IjEiIHN0b3AtY29sb3I9IiNmMTViMmIiLz4mI3hhOyAgPC9saW5lYXJHcmFkaWVudD4mI3hhOyAgPGxpbmVhckdyYWRpZW50IGlkPSJTVkdJRF83XyIgeDE9IjAuOTIwNjciIHkxPSIzLjIwNTA0IiB4Mj0iLTEuMTE4NTEiIHkyPSItMTAuMDMyMzkiPiYjeGE7ICAgPHN0b3Agb2Zmc2V0PSIwIiBzdG9wLWNvbG9yPSIjZmFlZDFlIi8+JiN4YTsgICA8c3RvcCBvZmZzZXQ9IjEiIHN0b3AtY29sb3I9IiNmMTViMmIiLz4mI3hhOyAgPC9saW5lYXJHcmFkaWVudD4mI3hhOyAgPGxpbmVhckdyYWRpZW50IGlkPSJTVkdJRF84XyIgeDE9IjEuMTI5MTQiIHkxPSI0LjU2MTI2IiB4Mj0iLTAuOTA3OSIgeTI9Ii04LjY3NjE2Ij4mI3hhOyAgIDxzdG9wIG9mZnNldD0iMCIgc3RvcC1jb2xvcj0iI2ZhZWQxZSIvPiYjeGE7ICAgPHN0b3Agb2Zmc2V0PSIxIiBzdG9wLWNvbG9yPSIjZjE1YjJiIi8+JiN4YTsgIDwvbGluZWFyR3JhZGllbnQ+JiN4YTsgIDxsaW5lYXJHcmFkaWVudCBpZD0iU1ZHSURfOV8iIHgxPSIxLjM4MzI0IiB5MT0iMS42NzIyNyIgeDI9IjAuMDM0MTIiIHkyPSItMC4xMjM5MiI+JiN4YTsgICA8c3RvcCBvZmZzZXQ9IjAiIHN0b3AtY29sb3I9IiNmYWVkMWUiLz4mI3hhOyAgIDxzdG9wIG9mZnNldD0iMSIgc3RvcC1jb2xvcj0iI2YxNWIyYiIvPiYjeGE7ICA8L2xpbmVhckdyYWRpZW50PiYjeGE7ICA8bGluZWFyR3JhZGllbnQgaWQ9IlNWR0lEXzEwXyIgeDE9IjEuMzk4NzgiIHkxPSIxLjY3Mjk0IiB4Mj0iMC4wMjU1MiIgeTI9Ii0wLjEyNDI5Ij4mI3hhOyAgIDxzdG9wIG9mZnNldD0iMCIgc3RvcC1jb2xvcj0iI2ZhZWQxZSIvPiYjeGE7ICAgPHN0b3Agb2Zmc2V0PSIxIiBzdG9wLWNvbG9yPSIjZjE1YjJiIi8+JiN4YTsgIDwvbGluZWFyR3JhZGllbnQ+JiN4YTsgIDxsaW5lYXJHcmFkaWVudCBpZD0iU1ZHSURfMTFfIiB4MT0iMS40MTEyIiB5MT0iMS42NzM2MSIgeDI9IjAuMDE4OCIgeTI9Ii0wLjEyNDYyIj4mI3hhOyAgIDxzdG9wIG9mZnNldD0iMCIgc3RvcC1jb2xvcj0iI2ZhZWQxZSIvPiYjeGE7ICAgPHN0b3Agb2Zmc2V0PSIxIiBzdG9wLWNvbG9yPSIjZjE1YjJiIi8+JiN4YTsgIDwvbGluZWFyR3JhZGllbnQ+JiN4YTsgIDxsaW5lYXJHcmFkaWVudCBpZD0iU1ZHSURfMTJfIiB4MT0iMS4zOTEyOSIgeTE9IjEuNjcyNzgiIHgyPSIwLjAyOTkxIiB5Mj0iLTAuMTI0MTMiPiYjeGE7ICAgPHN0b3Agb2Zmc2V0PSIwIiBzdG9wLWNvbG9yPSIjZmFlZDFlIi8+JiN4YTsgICA8c3RvcCBvZmZzZXQ9IjEiIHN0b3AtY29sb3I9IiNmMTViMmIiLz4mI3hhOyAgPC9saW5lYXJHcmFkaWVudD4mI3hhOyAgPGxpbmVhckdyYWRpZW50IGlkPSJTVkdJRF8xM18iIHgxPSIxLjM2NDQ0IiB5MT0iMS42NzE1MSIgeDI9IjAuMDQ0NDciIHkyPSItMC4xMjM2MSI+JiN4YTsgICA8c3RvcCBvZmZzZXQ9IjAiIHN0b3AtY29sb3I9IiNmYWVkMWUiLz4mI3hhOyAgIDxzdG9wIG9mZnNldD0iMSIgc3RvcC1jb2xvcj0iI2YxNWIyYiIvPiYjeGE7ICA8L2xpbmVhckdyYWRpZW50PiYjeGE7ICA8bGluZWFyR3JhZGllbnQgaWQ9IlNWR0lEXzE0XyIgeDE9IjEuMzczMDQiIHkxPSIxLjY3MTkiIHgyPSIwLjAzOTciIHkyPSItMC4xMjM4NCI+JiN4YTsgICA8c3RvcCBvZmZzZXQ9IjAiIHN0b3AtY29sb3I9IiNmYWVkMWUiLz4mI3hhOyAgIDxzdG9wIG9mZnNldD0iMSIgc3RvcC1jb2xvcj0iI2YxNWIyYiIvPiYjeGE7ICA8L2xpbmVhckdyYWRpZW50PiYjeGE7IDwvZGVmcz4mI3hhOyA8Zz4mI3hhOyAgPHRpdGxlPkxheWVyIDE8L3RpdGxlPiYjeGE7ICA8ZyBpZD0ic3ZnXzEiPiYjeGE7ICAgPGcgaWQ9InN2Z18xNSI+JiN4YTsgICAgPHBvbHlnb24gcG9pbnRzPSIyMS4xODk5OTQ4MTIwMTE3Miw5NC4zNTk5OTc1NzA1MTQ2OCAxMi45MDk5OTYwMzI3MTQ4NDQsOTUuNjM5OTk2MzQ5ODExNTUgMTQuMTg5OTk0ODEyMDExNzE5LDEwMy45MjAwMDI3NTg1MDI5NiAyMi40NzAwMDEyMjA3MDMxMjUsMTAyLjY0OTk5ODQ4NjA0MjAyIiBmaWxsPSJ1cmwoI1NWR0lEXzFfKSIgaWQ9InN2Z18xNiIvPiYjeGE7ICAgIDxwb2x5Z29uIHBvaW50cz0iNTEuMDkwMDAzOTY3Mjg1MTU2LDg0Ljk2OTk5ODE4MDg2NjI0IDg3LjY1MDAwMTUyNTg3ODksNzkuMzQwMDAwOTI3NDQ4MjcgODYuMzcwMDAyNzQ2NTgyMDMsNzEuMDYwMDAyMTQ4MTUxNCA0OS44MTk5OTk2OTQ4MjQyMiw3Ni42Nzk5OTcyNjUzMzg5IiBmaWxsPSJ1cmwoI1NWR0lEXzJfKSIgaWQ9InN2Z18xNyIvPiYjeGE7ICAgIDxwb2x5Z29uIHBvaW50cz0iMzYuODQ5OTk4NDc0MTIxMDk0LDc4LjY3OTk5NzI2NTMzODkgMzguMTE5OTk1MTE3MTg3NSw4Ni45NjAwMDM2NzQwMzAzIDQ2LjQwOTk5NjAzMjcxNDg0NCw4NS42ODk5OTk0MDE1NjkzNyA0NS4xMjk5OTcyNTM0MTc5Nyw3Ny4zOTk5OTg0ODYwNDIwMiIgZmlsbD0idXJsKCNTVkdJRF8zXykiIGlkPSJzdmdfMTgiLz4mI3hhOyAgICA8cG9seWdvbiBwb2ludHM9IjM1LjQzOTk5NDgxMjAxMTcyLDEwMC42NDk5OTg0ODYwNDIwMiAzNC4xNTk5OTYwMzI3MTQ4NDQsOTIuMzY5OTk5NzA2NzQ1MTUgMjUuODc5OTk3MjUzNDE3OTcsOTMuNjM5OTk2MzQ5ODExNTUgMjcuMTUwMDAxNTI1ODc4OTA2LDEwMS45Mjk5OTcyNjUzMzg5IiBmaWxsPSJ1cmwoI1NWR0lEXzRfKSIgaWQ9InN2Z18xOSIvPiYjeGE7ICAgIDxwb2x5Z29uIHBvaW50cz0iMTIuMTg5OTk0ODEyMDExNzE5LDkwLjk1MDAwMTUzNzc5OTg0IDIwLjQ3MDAwMTIyMDcwMzEyNSw4OS42Nzk5OTcyNjUzMzg5IDE5LjE5OTk5Njk0ODI0MjE4OCw4MS4zODk5OTYzNDk4MTE1NSAxMC45MTk5OTgxNjg5NDUzMTIsODIuNjcwMDAyNzU4NTAyOTYiIGZpbGw9InVybCgjU1ZHSURfNV8pIiBpZD0ic3ZnXzIwIi8+JiN4YTsgICAgPHBvbHlnb24gcG9pbnRzPSI4OC4zNzAwMDI3NDY1ODIwMyw4NC4wMzAwMDMzNjg4NTQ1MiA1MS44MTAwMDUxODc5ODgyOCw4OS42NDk5OTg0ODYwNDIwMiA1My4wOTAwMDM5NjcyODUxNTYsOTcuOTM5OTk5NDAxNTY5MzcgODkuNjM5OTkxNzYwMjUzOSw5Mi4zMTAwMDIxNDgxNTE0IiBmaWxsPSJ1cmwoI1NWR0lEXzZfKSIgaWQ9InN2Z18yMSIvPiYjeGE7ICAgIDxwb2x5Z29uIHBvaW50cz0iMzguODQ5OTk4NDc0MTIxMDk0LDkxLjY0OTk5ODQ4NjA0MjAyIDQwLjExOTk5NTExNzE4NzUsOTkuOTI5OTk3MjY1MzM4OSA0OC40MDAwMDE1MjU4Nzg5MDYsOTguNjYwMDAwNjIyMjcyNDkgNDcuMTI5OTk3MjUzNDE3OTcsOTAuMzY5OTk5NzA2NzQ1MTUiIGZpbGw9InVybCgjU1ZHSURfN18pIiBpZD0ic3ZnXzIyIi8+JiN4YTsgICAgPHBvbHlnb24gcG9pbnRzPSIyNS4xNTk5OTYwMzI3MTQ4NDQsODguOTYwMDAzNjc0MDMwMyAzMy40Mzk5OTQ4MTIwMTE3Miw4Ny42Nzk5OTcyNjUzMzg5IDMyLjE2OTk5ODE2ODk0NTMxLDc5LjM5OTk5ODQ4NjA0MjAyIDIzLjg3OTk5NzI1MzQxNzk3LDgwLjY3MDAwMjc1ODUwMjk2IiBmaWxsPSJ1cmwoI1NWR0lEXzhfKSIgaWQ9InN2Z18yMyIvPiYjeGE7ICAgIDxwb2x5Z29uIHBvaW50cz0iMTAuMTk5OTk2OTQ4MjQyMTg4LDc3Ljk5MDAwMjQ1MzMyNzE4IDEzLjY4OTk5NDgxMjAxMTcxOSw3Ny40NTAwMDE1Mzc3OTk4NCAzLjUsMTEuMTY5OTk5ODk3NDgwMDExIDAsMTEuNzA5OTk5ODU5MzMzMDM4IiBmaWxsPSJ1cmwoI1NWR0lEXzlfKSIgaWQ9InN2Z18yNCIvPiYjeGE7ICAgIDxwb2x5Z29uIHBvaW50cz0iMTUsNzcuMjQ5OTk2OTYwMTYzMTIgMTguNSw3Ni43MTAwMDM2NzQwMzAzIDcuNTU5OTk3NTU4NTkzNzUsNS41NTAwMDAwMTE5MjA5MjkgNC4wNTk5OTc1NTg1OTM3NSw2LjA4OTk5OTk3Mzc3Mzk1NiIgZmlsbD0idXJsKCNTVkdJRF8xMF8pIiBpZD0ic3ZnXzI1Ii8+JiN4YTsgICAgPHBvbHlnb24gcG9pbnRzPSIyMy4yMjAwMDEyMjA3MDMxMjUsNzUuOTgwMDAwMzE3MDk2NzEgMjYuNzA5OTk5MDg0NDcyNjU2LDc1LjQzOTk5OTQwMTU2OTM3IDE1LjExMDAwMDYxMDM1MTU2MiwwIDExLjYxMDAwMDYxMDM1MTU2MiwwLjU0MDAwMDAyMTQ1NzY3MjEiIGZpbGw9InVybCgjU1ZHSURfMTFfKSIgaWQ9InN2Z18yNiIvPiYjeGE7ICAgIDxwb2x5Z29uIHBvaW50cz0iMjguMDE5OTk2NjQzMDY2NDA2LDc1LjI0MDAwMjQ1MzMyNzE4IDMxLjUxOTk5NjY0MzA2NjQwNiw3NC43MDAwMDE1Mzc3OTk4NCAyMC45Mzk5OTQ4MTIwMTE3Miw1LjkxOTk5OTg5NzQ4MDAxMSAxNy40Mzk5OTQ4MTIwMTE3Miw2LjQ1OTk5OTg1OTMzMzAzOCIgZmlsbD0idXJsKCNTVkdJRF8xMl8pIiBpZD0ic3ZnXzI3Ii8+JiN4YTsgICAgPHBvbHlnb24gcG9pbnRzPSIzNi4xMjk5OTcyNTM0MTc5Nyw3My45OTk5OTY5NjAxNjMxMiAzOS42Mjk5OTcyNTM0MTc5Nyw3My40NjAwMDM2NzQwMzAzIDMwLjIyOTk5NTcyNzUzOTA2MiwxMi4zNjAwMDA0MzE1Mzc2MjggMjYuNzI5OTk1NzI3NTM5MDYyLDEyLjg5MDAwMDE2NDUwODgyIiBmaWxsPSJ1cmwoI1NWR0lEXzEzXykiIGlkPSJzdmdfMjgiLz4mI3hhOyAgICA8cG9seWdvbiBwb2ludHM9IjQwLjkzOTk5NDgxMjAxMTcyLDczLjI1OTk5OTA5NjM5MzU5IDQ0LjQzOTk5NDgxMjAxMTcyLDcyLjcxOTk5ODE4MDg2NjI0IDM0LjY4MDAwMDMwNTE3NTc4LDkuMjc5OTk5NTU0MTU3MjU3IDMxLjE4MDAwMDMwNTE3NTc4LDkuODEwMDAwMjQwODAyNzY1IiBmaWxsPSJ1cmwoI1NWR0lEXzE0XykiIGlkPSJzdmdfMjkiLz4mI3hhOyAgIDwvZz4mI3hhOyAgPC9nPiYjeGE7IDwvZz4mI3hhOzwvc3ZnPg==;" parent="1" vertex="1">
          <mxGeometry x="1350" y="-70" as="geometry" />
        </mxCell>
        <mxCell id="2_uP3W8vZetUixopo-HL-8" value="" style="shape=image;imageAspect=0;aspect=fixed;verticalLabelPosition=bottom;verticalAlign=top;image=data:image/svg+xml,PHN2ZyB4bWxucz0iaHR0cDovL3d3dy53My5vcmcvMjAwMC9zdmciIHdpZHRoPSIyNTYiIHZpZXdCb3g9Ii0wLjAwMDAwOTUzNjc0MzE2NDA2MjUgMC4wMDAwMTE1NjMzMDEwODY0MjU3ODEgMjU2IDI0Ny4zMTUyNDY1ODIwMzEyNSIgcHJlc2VydmVBc3BlY3RSYXRpbz0ieE1pZFlNaWQiIGhlaWdodD0iMjQ3LjMxNTI0NjU4MjAzMTI1Ij48cGF0aCBmaWxsPSIjNDE5ZWRhIiBkPSJtMjUyLjM4NjQxNiAxMjguMDYzNTQ3Yy0xLjIwMjIzOC4xMDA3NTktMi40MTAyMDEuMTQ3NzAzLTMuNjkzNzM0LjE0NzcwMy03LjQ0NTg2MSAwLTE0LjY2OTU5NC0xLjc0NjEwNy0yMS4xODY4Ny00Ljk0NDA2MSAyLjE2OTc1NC0xMi40NDcxNzEgMy4wOTI2MTUtMjQuOTg3MDg3MiAyLjg1MTAyMi0zNy40ODEyMDM1LTcuMDY1NzI1LTEwLjIyMDE2ODgtMTUuMTQxMzMtMTkuODYzMjYzMy0yNC4yNTY1ODUtMjguNzQ3MjMwMyAzLjk1NDc5MS03LjQxNDk0NjYgOS44MDExMDMtMTMuNzk0ODIzNCAxNy4wOTkyNjEtMTguMzE4NjczNmwzLjEzMzgzNC0xLjkzNzMyMDgtMi40NDIyNjEtMi43NTM2OTc4Yy0xMi41ODExMzUtMTQuMTY2OTQ0Ny0yNy41OTY1MTctMjUuMTE5OTA2MjItNDQuNjIwMjA4LTMyLjU1MjAyNzYzbC0zLjM5NDg5Mi0xLjQ3NzAzNTM3LS44NjIxNzYgMy41ODgzOTQ0N2MtMi4wMzAwNjUgOC4zNjI5OTcyMy02LjI3MzM5MyAxNS45MDczMjc0My0xMi4wOTkwOTUgMjEuOTYyMDI3NTMtMTEuMTk2ODQ0LTUuOTUxNjUxMS0yMi44OTQwNDktMTAuNzYxNzQ4NC0zNC45NTY1MDQtMTQuNDA1MTAyNC0xMi4wMzM4MzEgMy42MzUzMzktMjMuNzEwNDI1IDguNDMxNjk2NS0zNC45MDI2ODk1IDE0LjM3NDE4NzctNS44MDE2NTc1LTYuMDQ2Njg1MS0xMC4wMzQ2ODA2LTEzLjU3MjY5NTYtMTIuMDU2NzMwNi0yMS45MTE2NDgwM2wtLjg2NzkwMTQtMy41ODcyNDk0Ny0zLjM4MjI5NjUgMS40NzAxNjU0NGMtMTYuODA5NTc4NSA3LjMyNDQ5MjQ3LTMyLjIzODMwMDggMTguNTc0MDA2MDYtNDQuNjEzMzM4MiAzMi41MzAyNzI4NmwtMi40NDkxMzA4IDIuNzU5NDIyNyAzLjEzMDM5OSAxLjkzNzMyMDhjNy4yNzUyNTggNC41MDY2NzU0IDEzLjEwNTU0MDMgMTAuODQ4NzY3NiAxNy4wNTM0NjEyIDE4LjIyMzYzOTUtOS4wODc3NzUgOC44NDk2MTc0LTE3LjE1NDIyMDIgMTguNDYxNzk3Mi0yNC4yMTQyMjAzIDI4LjYzNTAyMTUtLjI3NDc5NzIgMTIuNDg4MzkxMy42MDExMTkxIDI1LjExOTkwNjQgMi43ODExNzc1IDM3LjczODgyNjQtNi40ODUyMTU4IDMuMTY4MTg0LTEzLjY2ODg3NDYgNC44OTQ4MjYtMjEuMDY1NTAxMzkgNC44OTQ4MjYtMS4yOTg0MTcxNSAwLTIuNTEzMjUwMTItLjA0Njk0NC0zLjY5MzczMzQzLS4xNDU0MTNsLTMuNjc3NzAzNTgtLjI4MDUyMi4zNDQ2NDE1OSAzLjY3MTk3OGMxLjgwMjIxMjE1IDE4LjU3NzQ0MSA3LjU3MDY2NTAzIDM2LjI0NjkwNiAxNy4xNTQyMjAxMSA1Mi41MjI5MmwxLjg3MDkxMTUgMy4xNzYxOTkgMi44MDg2NTcyLTIuMzgzODY3YzYuNTA5MjYwNS01LjUyMTEzNSAxNC4zNzQxODc2LTkuMTc3MDg0IDIyLjczNzE4NDgtMTAuNjUwNjg0IDUuNTEzMTIwNCAxMS4yNzI0MTMgMTIuMDQ3NTcwNyAyMS44NjM1NTggMTkuNDYwMjI3MyAzMS42OTY3MjEgMTEuODI3NzMyOSA0LjEzNjg0NCAyNC4xNTEyNDU5IDcuMjI0ODc4IDM2Ljg3Nzc5NDUgOS4wNjI1ODUgMS4yMjA1NTggOC40MTY4MTIuMjQ4NDYzIDE3LjEyMjE2MS0zLjA3MjAwNDIgMjUuMTcxNDMxbC0xLjQwMDMyMTIgMy40MTA5MjEgMy42MDA5ODk0Ljc5MjMzMmM5LjIyMDU5NCAyLjAyNzc3NSAxOC41MjI0ODIgMy4wNjA1NTUgMjcuNjMwODY2IDMuMDYwNTU1bDI3LjYyMjg1Mi0zLjA2MDU1NSAzLjYwNDQyNC0uNzkyMzMyLTEuNDAzNzU2LTMuNDE3NzkxYy0zLjMxMTMwNy04LjA0OTI3LTQuMjgzNDAzLTE2Ljc2NDkyNC0zLjA2Mjg0NS0yNS4xODI4ODEgMTIuNjc2MTctMS44Mzg4NTEgMjQuOTUzODgzLTQuOTIwMDE2IDM2LjczODEwNy05LjA0NDI2NSA3LjQxOTUyNi05Ljg0MTE3OCAxMy45NTk3MDEtMjAuNDM5MTkzIDE5LjQ4MTk4Mi0zMS43MjY0OTEgOC4zODkzMzIgMS40NjQ0NDEgMTYuMjk4OTEzIDUuMTIyNjc5IDIyLjg0ODI0OCAxMC42NTk4NDVsMi44MDg2NTggMi4zODA0MzEgMS44NjE3NTEtMy4xNjgxODRjOS42MDA3My0xNi4yOTY2MjMgMTUuMzY4MDM4LTMzLjk2NDk0MyAxNy4xNDI3Ny01Mi41MTI2MTVsLjM0NDY0Mi0zLjY2NTEwOHptLTg0Ljg5NjMzIDQ0Ljg5NjE1Yy0xMy4wNjc3NTUgMy41NTQwNDUtMjYuMzM5MzE5IDUuMzQ4MjQyLTM5LjUzMTg3OCA1LjM0ODI0Mi0xMy4yMjgwNTQgMC0yNi40ODM1ODgtMS43OTMwNTItMzkuNTYyNzkzMy01LjM0ODI0Mi03LjE3NTY0NC0xMS4xNDk4OTktMTIuODQ5MDYyOC0yMy4wOTQ0MjEtMTYuOTMyMDkyNC0zNS42Njk4MzEtNC4wNjU4NTQ3LTEyLjUxNzAxNy02LjQ0NTE0MTEtMjUuNjMwNTcyLTcuMTM1NTY5My0zOS4xMzM0MjMgOC40NDY1ODE0LTEwLjQ0MzQ0MTYgMTguMDUxODkxMi0xOS41OTE5MDEgMjguNjY0NzkxMi0yNy4yOTMwOTQ3IDEwLjc4NDY0NzgtNy44NDQzMTczIDIyLjUxNzM0NjgtMTQuMjE3MzI0MiAzNC45NjU2NjM4LTE5LjAxMTM5MTggMTIuNDI3NzA3IDQuNzk1MjEyNiAyNC4xMzg2NTEgMTEuMTU5MDU5NSAzNC44OTgxMDkgMTguOTcwMTcyMiAxMC42NTQxMiA3Ljc0MjQxMzMgMjAuMzAxNzk0IDE2Ljk2MTg2MiAyOC43ODk1OTUgMjcuNDcwNTY4LS43MjM2MzMgMTMuNDI2MTM3My0zLjEzMTU0NCAyNi40NjQxMjMzLTcuMjA0MjY4IDM4Ljk2MDUyOTMtNC4wNzI3MjUgMTIuNTczMTItOS43NjQ0NjQgMjQuNTU1NDI3LTE2Ljk1MTU1OCAzNS43MDY0NzF6bS0yOC43MzkyMTUtNjIuOTk3Mjc2YzAgOS4yMzIwNDQgNy40ODEzNTYgMTYuNjk5NjYgMTYuNzAwODA1IDE2LjY5OTY2IDkuMjE3MTU4IDAgMTYuNjkwNDk5LTcuNDY2NDcxIDE2LjY5MDQ5OS0xNi42OTk2NiAwLTkuMTk2NTQ5LTcuNDczMzQxLTE2LjY5Mjc4OTYtMTYuNjkwNDk5LTE2LjY5Mjc4OTYtOS4yMTk0NDkgMC0xNi43MDA4MDUgNy40OTYyNDA2LTE2LjcwMDgwNSAxNi42OTI3ODk2em0tMjEuNTc4NDU2IDBjMCA5LjIzMjA0NC03LjQ4MDIxMSAxNi42OTk2Ni0xNi42OTk2NiAxNi42OTk2Ni05LjIyNjMxODYgMC0xNi42ODU5MTk3LTcuNDY2NDcxLTE2LjY4NTkxOTctMTYuNjk5NjYgMC05LjE5MzExNCA3LjQ2MDc0NjEtMTYuNjg5MzU0NiAxNi42ODU5MTk3LTE2LjY4OTM1NDYgOS4yMTk0NDkgMCAxNi42OTk2NiA3LjQ5NjI0MDYgMTYuNjk5NjYgMTYuNjg5MzU0NnoiLz48L3N2Zz4=;" parent="1" vertex="1">
          <mxGeometry x="1130" y="200" width="176.19" height="170" as="geometry" />
        </mxCell>
        <mxCell id="dY3BJDOpuEyH1GTdtF5J-5" value="" style="image;aspect=fixed;html=1;points=[];align=center;fontSize=12;image=img/lib/azure2/networking/Connections.svg;" parent="1" vertex="1">
          <mxGeometry x="1120" y="-540.37" width="117" height="117" as="geometry" />
        </mxCell>
        <mxCell id="ZmUZul0mUvVKAIZT7241-2" value="" style="group" parent="1" vertex="1" connectable="0">
          <mxGeometry x="820" y="510" width="853.32" height="150" as="geometry" />
        </mxCell>
        <mxCell id="ZmUZul0mUvVKAIZT7241-4" value="" style="group" parent="ZmUZul0mUvVKAIZT7241-2" vertex="1" connectable="0">
          <mxGeometry width="853.32" height="150" as="geometry" />
        </mxCell>
        <mxCell id="ZmUZul0mUvVKAIZT7241-1" value="" style="rounded=1;whiteSpace=wrap;html=1;opacity=50;fillColor=#d5e8d4;strokeColor=#82b366;" parent="ZmUZul0mUvVKAIZT7241-4" vertex="1">
          <mxGeometry width="853.32" height="150" as="geometry" />
        </mxCell>
        <mxCell id="2_uP3W8vZetUixopo-HL-11" value="" style="shape=image;imageAspect=0;aspect=fixed;verticalLabelPosition=bottom;verticalAlign=top;image=data:image/svg+xml,PHN2ZyB4bWxucz0iaHR0cDovL3d3dy53My5vcmcvMjAwMC9zdmciIHZlcnNpb249IjEuMSIgeG1sOnNwYWNlPSJwcmVzZXJ2ZSIgaGVpZ2h0PSIxMDMuOTIwMDA1Nzk4MzM5ODQiIHdpZHRoPSI4OS42Mzk5OTE3NjAyNTM5IiB2aWV3Qm94PSIwIDAgODkuNjM5OTkxNzYwMjUzOSAxMDMuOTIwMDA1Nzk4MzM5ODQiPiYjeGE7IDxkZWZzPiYjeGE7ICA8bGluZWFyR3JhZGllbnQgaWQ9IlNWR0lEXzFfIiB4MT0iMC45MjAxNiIgeTE9IjMuMjA1MTUiIHgyPSItMS4xMTY4OCIgeTI9Ii0xMC4wMzIyNyI+JiN4YTsgICA8c3RvcCBvZmZzZXQ9IjAiIHN0b3AtY29sb3I9IiNmYWVkMWUiLz4mI3hhOyAgIDxzdG9wIG9mZnNldD0iMSIgc3RvcC1jb2xvcj0iI2YxNWIyYiIvPiYjeGE7ICA8L2xpbmVhckdyYWRpZW50PiYjeGE7ICA8bGluZWFyR3JhZGllbnQgaWQ9IlNWR0lEXzJfIiB4MT0iMC42NTg4OCIgeTE9IjMuMjkxMTIiIHgyPSIwLjE0NDEiIHkyPSItNS44MDY2NCI+JiN4YTsgICA8c3RvcCBvZmZzZXQ9IjAiIHN0b3AtY29sb3I9IiNmYWVkMWUiLz4mI3hhOyAgIDxzdG9wIG9mZnNldD0iMSIgc3RvcC1jb2xvcj0iI2YxNWIyYiIvPiYjeGE7ICA8L2xpbmVhckdyYWRpZW50PiYjeGE7ICA8bGluZWFyR3JhZGllbnQgaWQ9IlNWR0lEXzNfIiB4MT0iMS4xMjg5MSIgeTE9IjQuNTYxNzMiIHgyPSItMC45MDgxMyIgeTI9Ii04LjY3NTY5Ij4mI3hhOyAgIDxzdG9wIG9mZnNldD0iMCIgc3RvcC1jb2xvcj0iI2ZhZWQxZSIvPiYjeGE7ICAgPHN0b3Agb2Zmc2V0PSIxIiBzdG9wLWNvbG9yPSIjZjE1YjJiIi8+JiN4YTsgIDwvbGluZWFyR3JhZGllbnQ+JiN4YTsgIDxsaW5lYXJHcmFkaWVudCBpZD0iU1ZHSURfNF8iIHgxPSIwLjkxOTkzIiB5MT0iMy4yMDQ1NyIgeDI9Ii0xLjExNzExIiB5Mj0iLTEwLjAzMjg2Ij4mI3hhOyAgIDxzdG9wIG9mZnNldD0iMCIgc3RvcC1jb2xvcj0iI2ZhZWQxZSIvPiYjeGE7ICAgPHN0b3Agb2Zmc2V0PSIxIiBzdG9wLWNvbG9yPSIjZjE1YjJiIi8+JiN4YTsgIDwvbGluZWFyR3JhZGllbnQ+JiN4YTsgIDxsaW5lYXJHcmFkaWVudCBpZD0iU1ZHSURfNV8iIHgxPSIxLjEyOTUiIHkxPSI0LjU2MTg0IiB4Mj0iLTAuOTA5NjciIHkyPSItOC42NzU1OCI+JiN4YTsgICA8c3RvcCBvZmZzZXQ9IjAiIHN0b3AtY29sb3I9IiNmYWVkMWUiLz4mI3hhOyAgIDxzdG9wIG9mZnNldD0iMSIgc3RvcC1jb2xvcj0iI2YxNWIyYiIvPiYjeGE7ICA8L2xpbmVhckdyYWRpZW50PiYjeGE7ICA8bGluZWFyR3JhZGllbnQgaWQ9IlNWR0lEXzZfIiB4MT0iMC42MDYyNyIgeTE9IjIuMzU4NjkiIHgyPSIwLjA5MTQ5IiB5Mj0iLTYuNzM5MDciPiYjeGE7ICAgPHN0b3Agb2Zmc2V0PSIwIiBzdG9wLWNvbG9yPSIjZmFlZDFlIi8+JiN4YTsgICA8c3RvcCBvZmZzZXQ9IjEiIHN0b3AtY29sb3I9IiNmMTViMmIiLz4mI3hhOyAgPC9saW5lYXJHcmFkaWVudD4mI3hhOyAgPGxpbmVhckdyYWRpZW50IGlkPSJTVkdJRF83XyIgeDE9IjAuOTIwNjciIHkxPSIzLjIwNTA0IiB4Mj0iLTEuMTE4NTEiIHkyPSItMTAuMDMyMzkiPiYjeGE7ICAgPHN0b3Agb2Zmc2V0PSIwIiBzdG9wLWNvbG9yPSIjZmFlZDFlIi8+JiN4YTsgICA8c3RvcCBvZmZzZXQ9IjEiIHN0b3AtY29sb3I9IiNmMTViMmIiLz4mI3hhOyAgPC9saW5lYXJHcmFkaWVudD4mI3hhOyAgPGxpbmVhckdyYWRpZW50IGlkPSJTVkdJRF84XyIgeDE9IjEuMTI5MTQiIHkxPSI0LjU2MTI2IiB4Mj0iLTAuOTA3OSIgeTI9Ii04LjY3NjE2Ij4mI3hhOyAgIDxzdG9wIG9mZnNldD0iMCIgc3RvcC1jb2xvcj0iI2ZhZWQxZSIvPiYjeGE7ICAgPHN0b3Agb2Zmc2V0PSIxIiBzdG9wLWNvbG9yPSIjZjE1YjJiIi8+JiN4YTsgIDwvbGluZWFyR3JhZGllbnQ+JiN4YTsgIDxsaW5lYXJHcmFkaWVudCBpZD0iU1ZHSURfOV8iIHgxPSIxLjM4MzI0IiB5MT0iMS42NzIyNyIgeDI9IjAuMDM0MTIiIHkyPSItMC4xMjM5MiI+JiN4YTsgICA8c3RvcCBvZmZzZXQ9IjAiIHN0b3AtY29sb3I9IiNmYWVkMWUiLz4mI3hhOyAgIDxzdG9wIG9mZnNldD0iMSIgc3RvcC1jb2xvcj0iI2YxNWIyYiIvPiYjeGE7ICA8L2xpbmVhckdyYWRpZW50PiYjeGE7ICA8bGluZWFyR3JhZGllbnQgaWQ9IlNWR0lEXzEwXyIgeDE9IjEuMzk4NzgiIHkxPSIxLjY3Mjk0IiB4Mj0iMC4wMjU1MiIgeTI9Ii0wLjEyNDI5Ij4mI3hhOyAgIDxzdG9wIG9mZnNldD0iMCIgc3RvcC1jb2xvcj0iI2ZhZWQxZSIvPiYjeGE7ICAgPHN0b3Agb2Zmc2V0PSIxIiBzdG9wLWNvbG9yPSIjZjE1YjJiIi8+JiN4YTsgIDwvbGluZWFyR3JhZGllbnQ+JiN4YTsgIDxsaW5lYXJHcmFkaWVudCBpZD0iU1ZHSURfMTFfIiB4MT0iMS40MTEyIiB5MT0iMS42NzM2MSIgeDI9IjAuMDE4OCIgeTI9Ii0wLjEyNDYyIj4mI3hhOyAgIDxzdG9wIG9mZnNldD0iMCIgc3RvcC1jb2xvcj0iI2ZhZWQxZSIvPiYjeGE7ICAgPHN0b3Agb2Zmc2V0PSIxIiBzdG9wLWNvbG9yPSIjZjE1YjJiIi8+JiN4YTsgIDwvbGluZWFyR3JhZGllbnQ+JiN4YTsgIDxsaW5lYXJHcmFkaWVudCBpZD0iU1ZHSURfMTJfIiB4MT0iMS4zOTEyOSIgeTE9IjEuNjcyNzgiIHgyPSIwLjAyOTkxIiB5Mj0iLTAuMTI0MTMiPiYjeGE7ICAgPHN0b3Agb2Zmc2V0PSIwIiBzdG9wLWNvbG9yPSIjZmFlZDFlIi8+JiN4YTsgICA8c3RvcCBvZmZzZXQ9IjEiIHN0b3AtY29sb3I9IiNmMTViMmIiLz4mI3hhOyAgPC9saW5lYXJHcmFkaWVudD4mI3hhOyAgPGxpbmVhckdyYWRpZW50IGlkPSJTVkdJRF8xM18iIHgxPSIxLjM2NDQ0IiB5MT0iMS42NzE1MSIgeDI9IjAuMDQ0NDciIHkyPSItMC4xMjM2MSI+JiN4YTsgICA8c3RvcCBvZmZzZXQ9IjAiIHN0b3AtY29sb3I9IiNmYWVkMWUiLz4mI3hhOyAgIDxzdG9wIG9mZnNldD0iMSIgc3RvcC1jb2xvcj0iI2YxNWIyYiIvPiYjeGE7ICA8L2xpbmVhckdyYWRpZW50PiYjeGE7ICA8bGluZWFyR3JhZGllbnQgaWQ9IlNWR0lEXzE0XyIgeDE9IjEuMzczMDQiIHkxPSIxLjY3MTkiIHgyPSIwLjAzOTciIHkyPSItMC4xMjM4NCI+JiN4YTsgICA8c3RvcCBvZmZzZXQ9IjAiIHN0b3AtY29sb3I9IiNmYWVkMWUiLz4mI3hhOyAgIDxzdG9wIG9mZnNldD0iMSIgc3RvcC1jb2xvcj0iI2YxNWIyYiIvPiYjeGE7ICA8L2xpbmVhckdyYWRpZW50PiYjeGE7IDwvZGVmcz4mI3hhOyA8Zz4mI3hhOyAgPHRpdGxlPkxheWVyIDE8L3RpdGxlPiYjeGE7ICA8ZyBpZD0ic3ZnXzEiPiYjeGE7ICAgPGcgaWQ9InN2Z18xNSI+JiN4YTsgICAgPHBvbHlnb24gcG9pbnRzPSIyMS4xODk5OTQ4MTIwMTE3Miw5NC4zNTk5OTc1NzA1MTQ2OCAxMi45MDk5OTYwMzI3MTQ4NDQsOTUuNjM5OTk2MzQ5ODExNTUgMTQuMTg5OTk0ODEyMDExNzE5LDEwMy45MjAwMDI3NTg1MDI5NiAyMi40NzAwMDEyMjA3MDMxMjUsMTAyLjY0OTk5ODQ4NjA0MjAyIiBmaWxsPSJ1cmwoI1NWR0lEXzFfKSIgaWQ9InN2Z18xNiIvPiYjeGE7ICAgIDxwb2x5Z29uIHBvaW50cz0iNTEuMDkwMDAzOTY3Mjg1MTU2LDg0Ljk2OTk5ODE4MDg2NjI0IDg3LjY1MDAwMTUyNTg3ODksNzkuMzQwMDAwOTI3NDQ4MjcgODYuMzcwMDAyNzQ2NTgyMDMsNzEuMDYwMDAyMTQ4MTUxNCA0OS44MTk5OTk2OTQ4MjQyMiw3Ni42Nzk5OTcyNjUzMzg5IiBmaWxsPSJ1cmwoI1NWR0lEXzJfKSIgaWQ9InN2Z18xNyIvPiYjeGE7ICAgIDxwb2x5Z29uIHBvaW50cz0iMzYuODQ5OTk4NDc0MTIxMDk0LDc4LjY3OTk5NzI2NTMzODkgMzguMTE5OTk1MTE3MTg3NSw4Ni45NjAwMDM2NzQwMzAzIDQ2LjQwOTk5NjAzMjcxNDg0NCw4NS42ODk5OTk0MDE1NjkzNyA0NS4xMjk5OTcyNTM0MTc5Nyw3Ny4zOTk5OTg0ODYwNDIwMiIgZmlsbD0idXJsKCNTVkdJRF8zXykiIGlkPSJzdmdfMTgiLz4mI3hhOyAgICA8cG9seWdvbiBwb2ludHM9IjM1LjQzOTk5NDgxMjAxMTcyLDEwMC42NDk5OTg0ODYwNDIwMiAzNC4xNTk5OTYwMzI3MTQ4NDQsOTIuMzY5OTk5NzA2NzQ1MTUgMjUuODc5OTk3MjUzNDE3OTcsOTMuNjM5OTk2MzQ5ODExNTUgMjcuMTUwMDAxNTI1ODc4OTA2LDEwMS45Mjk5OTcyNjUzMzg5IiBmaWxsPSJ1cmwoI1NWR0lEXzRfKSIgaWQ9InN2Z18xOSIvPiYjeGE7ICAgIDxwb2x5Z29uIHBvaW50cz0iMTIuMTg5OTk0ODEyMDExNzE5LDkwLjk1MDAwMTUzNzc5OTg0IDIwLjQ3MDAwMTIyMDcwMzEyNSw4OS42Nzk5OTcyNjUzMzg5IDE5LjE5OTk5Njk0ODI0MjE4OCw4MS4zODk5OTYzNDk4MTE1NSAxMC45MTk5OTgxNjg5NDUzMTIsODIuNjcwMDAyNzU4NTAyOTYiIGZpbGw9InVybCgjU1ZHSURfNV8pIiBpZD0ic3ZnXzIwIi8+JiN4YTsgICAgPHBvbHlnb24gcG9pbnRzPSI4OC4zNzAwMDI3NDY1ODIwMyw4NC4wMzAwMDMzNjg4NTQ1MiA1MS44MTAwMDUxODc5ODgyOCw4OS42NDk5OTg0ODYwNDIwMiA1My4wOTAwMDM5NjcyODUxNTYsOTcuOTM5OTk5NDAxNTY5MzcgODkuNjM5OTkxNzYwMjUzOSw5Mi4zMTAwMDIxNDgxNTE0IiBmaWxsPSJ1cmwoI1NWR0lEXzZfKSIgaWQ9InN2Z18yMSIvPiYjeGE7ICAgIDxwb2x5Z29uIHBvaW50cz0iMzguODQ5OTk4NDc0MTIxMDk0LDkxLjY0OTk5ODQ4NjA0MjAyIDQwLjExOTk5NTExNzE4NzUsOTkuOTI5OTk3MjY1MzM4OSA0OC40MDAwMDE1MjU4Nzg5MDYsOTguNjYwMDAwNjIyMjcyNDkgNDcuMTI5OTk3MjUzNDE3OTcsOTAuMzY5OTk5NzA2NzQ1MTUiIGZpbGw9InVybCgjU1ZHSURfN18pIiBpZD0ic3ZnXzIyIi8+JiN4YTsgICAgPHBvbHlnb24gcG9pbnRzPSIyNS4xNTk5OTYwMzI3MTQ4NDQsODguOTYwMDAzNjc0MDMwMyAzMy40Mzk5OTQ4MTIwMTE3Miw4Ny42Nzk5OTcyNjUzMzg5IDMyLjE2OTk5ODE2ODk0NTMxLDc5LjM5OTk5ODQ4NjA0MjAyIDIzLjg3OTk5NzI1MzQxNzk3LDgwLjY3MDAwMjc1ODUwMjk2IiBmaWxsPSJ1cmwoI1NWR0lEXzhfKSIgaWQ9InN2Z18yMyIvPiYjeGE7ICAgIDxwb2x5Z29uIHBvaW50cz0iMTAuMTk5OTk2OTQ4MjQyMTg4LDc3Ljk5MDAwMjQ1MzMyNzE4IDEzLjY4OTk5NDgxMjAxMTcxOSw3Ny40NTAwMDE1Mzc3OTk4NCAzLjUsMTEuMTY5OTk5ODk3NDgwMDExIDAsMTEuNzA5OTk5ODU5MzMzMDM4IiBmaWxsPSJ1cmwoI1NWR0lEXzlfKSIgaWQ9InN2Z18yNCIvPiYjeGE7ICAgIDxwb2x5Z29uIHBvaW50cz0iMTUsNzcuMjQ5OTk2OTYwMTYzMTIgMTguNSw3Ni43MTAwMDM2NzQwMzAzIDcuNTU5OTk3NTU4NTkzNzUsNS41NTAwMDAwMTE5MjA5MjkgNC4wNTk5OTc1NTg1OTM3NSw2LjA4OTk5OTk3Mzc3Mzk1NiIgZmlsbD0idXJsKCNTVkdJRF8xMF8pIiBpZD0ic3ZnXzI1Ii8+JiN4YTsgICAgPHBvbHlnb24gcG9pbnRzPSIyMy4yMjAwMDEyMjA3MDMxMjUsNzUuOTgwMDAwMzE3MDk2NzEgMjYuNzA5OTk5MDg0NDcyNjU2LDc1LjQzOTk5OTQwMTU2OTM3IDE1LjExMDAwMDYxMDM1MTU2MiwwIDExLjYxMDAwMDYxMDM1MTU2MiwwLjU0MDAwMDAyMTQ1NzY3MjEiIGZpbGw9InVybCgjU1ZHSURfMTFfKSIgaWQ9InN2Z18yNiIvPiYjeGE7ICAgIDxwb2x5Z29uIHBvaW50cz0iMjguMDE5OTk2NjQzMDY2NDA2LDc1LjI0MDAwMjQ1MzMyNzE4IDMxLjUxOTk5NjY0MzA2NjQwNiw3NC43MDAwMDE1Mzc3OTk4NCAyMC45Mzk5OTQ4MTIwMTE3Miw1LjkxOTk5OTg5NzQ4MDAxMSAxNy40Mzk5OTQ4MTIwMTE3Miw2LjQ1OTk5OTg1OTMzMzAzOCIgZmlsbD0idXJsKCNTVkdJRF8xMl8pIiBpZD0ic3ZnXzI3Ii8+JiN4YTsgICAgPHBvbHlnb24gcG9pbnRzPSIzNi4xMjk5OTcyNTM0MTc5Nyw3My45OTk5OTY5NjAxNjMxMiAzOS42Mjk5OTcyNTM0MTc5Nyw3My40NjAwMDM2NzQwMzAzIDMwLjIyOTk5NTcyNzUzOTA2MiwxMi4zNjAwMDA0MzE1Mzc2MjggMjYuNzI5OTk1NzI3NTM5MDYyLDEyLjg5MDAwMDE2NDUwODgyIiBmaWxsPSJ1cmwoI1NWR0lEXzEzXykiIGlkPSJzdmdfMjgiLz4mI3hhOyAgICA8cG9seWdvbiBwb2ludHM9IjQwLjkzOTk5NDgxMjAxMTcyLDczLjI1OTk5OTA5NjM5MzU5IDQ0LjQzOTk5NDgxMjAxMTcyLDcyLjcxOTk5ODE4MDg2NjI0IDM0LjY4MDAwMDMwNTE3NTc4LDkuMjc5OTk5NTU0MTU3MjU3IDMxLjE4MDAwMDMwNTE3NTc4LDkuODEwMDAwMjQwODAyNzY1IiBmaWxsPSJ1cmwoI1NWR0lEXzE0XykiIGlkPSJzdmdfMjkiLz4mI3hhOyAgIDwvZz4mI3hhOyAgPC9nPiYjeGE7IDwvZz4mI3hhOzwvc3ZnPg==;" parent="ZmUZul0mUvVKAIZT7241-4" vertex="1">
          <mxGeometry x="319.995" y="25" width="81.13125" height="93.75" as="geometry" />
        </mxCell>
        <mxCell id="2_uP3W8vZetUixopo-HL-12" value="" style="shape=image;imageAspect=0;aspect=fixed;verticalLabelPosition=bottom;verticalAlign=top;image=data:image/svg+xml,PHN2ZyB4bWxucz0iaHR0cDovL3d3dy53My5vcmcvMjAwMC9zdmciIHZpZXdCb3g9IjQuNjAwOTY3NDA3MjI2NTYyNSA3LjA2Nzk5MzE2NDA2MjUgNDIxLjgxODIwNjc4NzEwOTQgNDE2LjAxMzA2MTUyMzQzNzUiIHdpZHRoPSI0MjEuODE4MjA2Nzg3MTA5NCIgaGVpZ2h0PSI0MTYuMDEzMDYxNTIzNDM3NSI+PHBhdGggZmlsbD0iI2U3NTIyNSIgZD0ibTIxNS45MjYgNy4wNjhjMTE1LjY4NC4wMjQgMjEwLjYzOCA5My43ODQgMjEwLjQ5MyAyMDcuODQ0LS4xNDggMTE1Ljc5My05NC43MTMgMjA4LjI1Mi0yMTIuOTEyIDIwOC4xNjktMTE1LjU1Ny0uMDgxLTIwOC45ODctOTMuOTM4LTIwOC45MDYtMjA5Ljg2LjA3OS0xMTMuMzU0IDk1LjIzMi0yMDYuMTc3IDIxMS4zMjUtMjA2LjE1M3ptLTYzLjk0NyA3My4wMDFjMi42NTIgMTIuOTc4LjA3NiAyNS4wODItMy44NDYgMzYuOTg4LTIuNzE2IDguMjQ0LTYuNDcgMTYuMTgzLTguNzExIDI0LjUzOS0zLjY5NCAxMy43NjktNy44ODUgMjcuNjE5LTkuNDIyIDQxLjcwMS0yLjIxIDIwLjI1IDUuNzk1IDM4LjA4NiAxOS40OTMgNTUuODIybC02Mi45NjYtMTMuMTc5Yy4xMSAxLjk3OC0uMDA3IDIuNzI3LjIxIDMuMzYxIDUuOTY4IDE3LjQzIDE2LjQ3MSAzMi4xMTUgMjguMjQzIDQ1Ljk1NyAxLjI0NiAxLjQ2NSA0LjA4MiAyLjIxNyA2LjE4MiAyLjIyMSA2Mi43ODIuMTE1IDEyNS41NjUuMTA5IDE4OC4zNDcuMDI4IDEuOTQ4LS4wMDMgNC41NDYtLjM2OSA1Ljc0MS0xLjYxOCAxMy40NTYtMTQuMDYzIDIzLjc0Ni0zMC4wNzkgMzAuMTc5LTUwLjI1N2wtNjYuNjU4IDEyLjk3NmM0LjM5Ny04LjU2NyA5LjQxNy0xNi4xIDEyLjMwMi0yNC4zNzcgOS44NjktMjguMzE1IDUuNzc5LTU1LjY5LTguMzg3LTgxLjUwOS0xMS4zNjgtMjAuNzItMjEuODU0LTQxLjM0OS0xNi4xODMtNjYuMzItMTIuMDA1IDExLjc4Ni0xNi42MTUgMjYuNzktMTkuNTQxIDQyLjI1My0yLjg4MiAxNS4yMy00LjU4IDMwLjY4NC02LjgxMSA0Ni4xMzYtLjMxNy0uNDY3LS43MjgtLjgxMS0uNzkyLTEuMjEyLS4yNTgtMS42MjEtLjQ5OS0zLjI1NS0uNTg3LTQuODkzLTEuMzU1LTI1LjMxLTYuMzI4LTQ5LjY5Ni0xNi44MjMtNzIuOTg3LTYuMTc4LTEzLjcxLTEyLjk5LTI3LjcyNy02LjYyMi00NC4wODEtNC4zMSAyLjI1OS04LjIwNSA0LjUwNS0xMC45OTcgNy43MTEtOC4zMzMgOS41NjktMTEuNzc5IDIxLjA2Mi0xMi42NjYgMzMuNjQ1LS43NTcgMTAuNzUtMS43OTYgMjEuNTUyLTMuODAxIDMyLjEyMy0yLjEwNyAxMS4xMDktNS40NDggMjEuOTk4LTEyLjk1NiAzMi4yMDktMy4wMzMtMjEuODEtMy4zNy00My4zOC0yMi45MjgtNTcuMjM3em0xNjEuODc3IDIxNi41MjNoLTE5Ni45MTR2MzQuMDA3aDE5Ni45MTR6bS0xNTcuODcxIDUxLjU3NWMtLjE2MyAyOC4zMTcgMjguODUxIDQ5LjQxNCA2NC43MDkgNDcuODgzIDI5LjcxNi0xLjI2OSA1Ni4wMTYtMjQuNTEgNTMuNzU1LTQ3Ljg4M3oiLz48L3N2Zz4=;" parent="ZmUZul0mUvVKAIZT7241-4" vertex="1">
          <mxGeometry x="32.82" y="31.249999999999996" width="96.99999999999999" height="95.625" as="geometry" />
        </mxCell>
        <mxCell id="2_uP3W8vZetUixopo-HL-13" value="" style="shape=image;imageAspect=0;aspect=fixed;verticalLabelPosition=bottom;verticalAlign=top;image=data:image/svg+xml,PHN2ZyB4bWxuczp4bGluaz0iaHR0cDovL3d3dy53My5vcmcvMTk5OS94bGluayIgeG1sbnM9Imh0dHA6Ly93d3cudzMub3JnLzIwMDAvc3ZnIiB3aWR0aD0iMjU2IiB2aWV3Qm94PSIwLjAwMDAwMzgxNDY5NzI2NTYyNSAtMC4wMDAwMDc2MjkzOTQ1MzEyNSAyNTYgMjc4LjE5ODQ4NjMyODEyNSIgcHJlc2VydmVBc3BlY3RSYXRpbz0ieE1pZFlNaWQiIGhlaWdodD0iMjc4LjE5ODQ4NjMyODEyNSI+PGxpbmVhckdyYWRpZW50IHkyPSIzMS4xMzkwMDglIiB5MT0iMTIyLjQ1MDM1OCUiIHgyPSI0OS45OTQ3ODQlIiB4MT0iNDkuOTk0Nzg0JSIgaWQ9ImEiPjxzdG9wIHN0b3AtY29sb3I9IiNmZmYxMDAiIG9mZnNldD0iMCIvPjxzdG9wIHN0b3AtY29sb3I9IiNmMDVhMjgiIG9mZnNldD0iMSIvPjwvbGluZWFyR3JhZGllbnQ+PHBhdGggZmlsbD0idXJsKCNhKSIgZD0ibTI1NS41OTAxIDEyMi43NzUyMTVjLS40NTk4MzItNC42NzQ5NjItMS4yMjYyMTktMTAuMDM5NjcyLTIuNzU4OTkzLTE2LjAxNzQ5MS0xLjUzMjc3NS01LjkwMTE4MS0zLjgzMTkzNi0xMi40MTU0NzExLTcuMjA0MDM5LTE5LjE1OTY3NzctMy4zNzIxMDMtNi43NDQyMDY1LTcuNzQwNTEtMTMuNzE4MzI5Mi0xMy40MTE3NzUtMjAuNTM5MTc0NC0yLjIyMjUyMi0yLjY4MjM1NDktNC42NzQ5NjEtNS4yODgwNzExLTcuMjgwNjc3LTcuODE3MTQ4NSAzLjkwODU3NC0xNS41NTc2NTgzLTQuNzUxNi0yOS4wNDYwNzE0LTQuNzUxNi0yOS4wNDYwNzE0LTE0Ljk0NDU0OS0uOTE5NjY0NS0yNC40NDc3NDkgNC42NzQ5NjE0LTI3Ljk3MzEzIDcuMjA0MDM4OC0uNjEzMTA5LS4yMjk5MTYxLTEuMTQ5NTgtLjUzNjQ3MDktMS43NjI2OS0uNzY2Mzg3MS0yLjUyOTA3Ny0uOTk2MzAzMi01LjEzNDc5NC0xLjk5MjYwNjUtNy44OTM3ODctMi44MzU2MzIzLTIuNjgyMzU1LS44NDMwMjU4LTUuNDQxMzQ5LTEuNjA5NDEyOS04LjI3Njk4MS0yLjI5OTE2MTNzLTUuNjcxMjY0LTEuMjI2MjE5NC04LjU4MzUzNS0xLjY4NjA1MTZjLS41MzY0NzEtLjA3NjYzODctLjk5NjMwNC0uMTUzMjc3NS0xLjUzMjc3NS0uMjI5OTE2Mi02LjUxNDI5LTIwLjg0NTcyOTI4LTI1LjIxNDEzNS0yOS41ODI1NDIzLTI1LjIxNDEzNS0yOS41ODI1NDIzLTIwLjkyMjM2OSAxMy4yNTg0OTctMjQuODMwOTQzIDMxLjgwNTA2NDktMjQuODMwOTQzIDMxLjgwNTA2NDlzLS4wNzY2MzguMzgzMTkzNi0uMjI5OTE2IDEuMDcyOTQyYy0xLjE0OTU4MS4zMDY1NTQ4LTIuMjk5MTYxLjY4OTc0ODQtMy40NDg3NDIuOTk2MzAzMi0xLjYwOTQxMy40NTk4MzIzLTMuMjE4ODI2IDEuMDcyOTQyLTQuNzUxNiAxLjY4NjA1MTctMS42MDk0MTMuNjEzMTA5Ny0zLjE0MjE4NyAxLjIyNjIxOTMtNC43NTE2IDEuOTE1OTY3Ny0zLjE0MjE4NzEgMS4zNzk0OTY4LTYuMjg0Mzc0MyAyLjkxMjI3MS05LjM0OTkyMjcgNC41OTgzMjI3LTIuOTg4OTA5NyAxLjY4NjA1MTYtNS45MDExODA3IDMuNTI1MzgwNy04LjczNjgxMyA1LjQ0MTM0ODQtLjM4MzE5MzYtLjE1MzI3NzQtLjc2NjM4NzEtLjMwNjU1NDgtLjc2NjM4NzEtLjMwNjU1NDgtMjguOTY5NDMyNy0xMS4wMzU5NzQzLTU0LjY0MzQwMDggMi4yMjI1MjI2LTU0LjY0MzQwMDggMi4yMjI1MjI2LTIuMzc1OCAzMC44MDg3NjE3IDExLjU3MjQ0NTQgNTAuMTk4MzU1NSAxNC4zMzE0Mzg5IDUzLjcyMzczNjYtLjY4OTc0ODQgMS45MTU5NjctMS4zMDI4NTggMy44MzE5MzUtMS45MTU5Njc3IDUuNzQ3OTAzLTIuMTQ1ODgzOSA2Ljk3NDEyMy0zLjc1NTI5NjkgMTQuMTAxNTIzLTQuNzUxNjAwMSAyMS41MzU0NzgtLjE1MzI3NzQgMS4wNzI5NDItLjMwNjU1NDggMi4xNDU4ODQtLjM4MzE5MzUgMy4yMTg4MjUtMjYuODIzNTQ4OCAxMy4yNTg0OTctMzQuNzE3MzM2IDQwLjMxMTk2Mi0zNC43MTczMzYgNDAuMzExOTYyIDIyLjMwMTg2NDggMjUuNjczOTY4IDQ4LjM1OTAyNjUgMjcuMjgzMzgxIDQ4LjM1OTAyNjUgMjcuMjgzMzgxcy4wNzY2Mzg3LS4wNzY2MzguMDc2NjM4Ny0uMDc2NjM4YzMuMjk1NDY0NSA1LjkwMTE4IDcuMTI3NDAwMSAxMS40OTU4MDYgMTEuNDE5MTY3OSAxNi43ODM4NzcgMS44MzkzMjkgMi4yMjI1MjMgMy42Nzg2NTgxIDQuMjkxNzY4IDUuNjcxMjY0NiA2LjM2MTAxMy04LjEyMzcwMzQgMjMuMjk4MTY4IDEuMTQ5NTgwNiA0Mi42MTExMjMgMS4xNDk1ODA2IDQyLjYxMTEyMyAyNC44MzA5NDIzLjkxOTY2NSA0MS4xNTQ5ODc3LTEwLjg4MjY5NyA0NC42MDM3Mjk3LTEzLjU2NTA1MSAyLjQ1MjQzOS44NDMwMjUgNC45ODE1MTYgMS42MDk0MTMgNy41MTA1OTQgMi4yMjI1MjIgNy42NjM4NzEgMS45OTI2MDcgMTUuNDgxMDE5IDMuMTQyMTg3IDIzLjI5ODE2OCAzLjQ0ODc0MiAxLjkxNTk2Ny4wNzY2MzkgMy45MDg1NzQuMTUzMjc4IDUuODI0NTQyLjA3NjYzOWguOTE5NjY0LjYxMzExIDEuMjI2MjE5bDEuMjI2MjItLjA3NjYzOXYuMDc2NjM5YzExLjcyNTcyMiAxNi43MDcyMzkgMzIuMjY0ODk3IDE5LjA4MzAzOSAzMi4yNjQ4OTcgMTkuMDgzMDM5IDE0LjYzNzk5NC0xNS40MDQzODEgMTUuNDgxMDE5LTMwLjczMjEyMyAxNS40ODEwMTktMzQuMDI3NTg4IDAgMCAwLS4wNzY2MzggMC0uMjI5OTE2IDAtLjMwNjU1NSAwLS40NTk4MzIgMC0uNDU5ODMyIDAtLjIyOTkxNiAwLS40NTk4MzIgMC0uNjg5NzQ4IDMuMDY1NTQ5LTIuMTQ1ODg0IDUuOTc3ODItNC40NDUwNDYgOC43MzY4MTMtNi45NzQxMjMgNS44MjQ1NDItNS4yODgwNzEgMTAuOTU5MzM2LTExLjM0MjUyOSAxNS4yNTExMDQtMTcuODU2ODIuMzgzMTkzLS42MTMxMDkuNzY2Mzg3LTEuMjI2MjE5IDEuMTQ5NTgxLTEuODM5MzI5IDE2LjU1Mzk2MS45MTk2NjUgMjguMjc5Njg0LTEwLjI2OTU4NyAyOC4yNzk2ODQtMTAuMjY5NTg3LTIuNzU4OTk0LTE3LjI0MzcxLTEyLjU2ODc0OS0yNS42NzM5NjgtMTQuNjM3OTk0LTI3LjI4MzM4MSAwIDAtLjA3NjYzOS0uMDc2NjM5LS4yMjk5MTYtLjE1MzI3Ny0uMTUzMjc4LS4wNzY2MzktLjE1MzI3OC0uMTUzMjc4LS4xNTMyNzgtLjE1MzI3OC0uMDc2NjM4LS4wNzY2MzktLjIyOTkxNi0uMTUzMjc3LS4zODMxOTMtLjIyOTkxNi4wNzY2MzktMS4wNzI5NDIuMTUzMjc3LTIuMDY5MjQ1LjIyOTkxNi0zLjE0MjE4Ny4xNTMyNzctMS44MzkzMjkuMTUzMjc3LTMuNzU1Mjk3LjE1MzI3Ny01LjU5NDYyNnYtMS4zNzk0OTctLjY4OTc0OC0uMzgzMTk0YzAtLjQ1OTgzMiAwLS4zMDY1NTUgMC0uNDU5ODMybC0uMDc2NjM4LTEuMTQ5NTgxLS4wNzY2MzktMS41MzI3NzRjMC0uNTM2NDcxLS4wNzY2MzktLjk5NjMwMy0uMTUzMjc3LTEuNDU2MTM1LS4wNzY2MzktLjQ1OTgzMy0uMDc2NjM5LS45OTYzMDQtLjE1MzI3OC0xLjQ1NjEzNmwtLjE1MzI3Ny0xLjQ1NjEzNS0uMjI5OTE2LTEuNDU2MTM2Yy0uMzA2NTU1LTEuOTE1OTY4LS42MTMxMS0zLjc1NTI5Ny0xLjA3Mjk0Mi01LjY3MTI2NS0xLjc2MjY5MS03LjQzMzk1NC00LjY3NDk2Mi0xNC40ODQ3MTYtOC40MzAyNTgtMjAuODQ1NzI5LTMuODMxOTM2LTYuMzYxMDEzLTguNTgzNTM2LTExLjk1NTYzOS0xNC4wMjQ4ODUtMTYuNzA3MjM5LTUuMzY0NzA5LTQuNzUxNi0xMS40MTkxNjctOC41ODM1MzUtMTcuNzAzNTQyLTExLjQxOTE2OC02LjM2MTAxMy0yLjgzNTYzMi0xMi45NTE5NDItNC42NzQ5NjEtMTkuNTQyODcxLTUuNTE3OTg2OC0zLjI5NTQ2NS0uNDU5ODMyMy02LjU5MDkyOS0uNjEzMTA5Ny05Ljg4NjM5NC0uNTM2NDcxaC0xLjIyNjIxOS0uMzA2NTU1Yy0uMDc2NjM5IDAtLjQ1OTgzMiAwLS4zODMxOTMgMGgtLjUzNjQ3MWwtMS4yMjYyMi4wNzY2Mzg3Yy0uNDU5ODMyIDAtLjkxOTY2NC4wNzY2Mzg3LTEuMzAyODU4LjA3NjYzODctMS42ODYwNTEuMTUzMjc3NC0zLjM3MjEwMy4zODMxOTM2LTQuOTgxNTE2LjY4OTc0ODQtNi41OTA5MjkgMS4yMjYyMTk0LTEyLjc5ODY2NSAzLjYwMjAxOS0xOC4yNDAwMTMgNi44OTc0ODQtNS40NDEzNDkgMy4yOTU0NjUtMTAuMTkyOTQ5IDcuMzU3MzE2LTE0LjAyNDg4NCAxMS45NTU2MzktMy44MzE5MzYgNC41OTgzMjItNi44MjA4NDUgOS43MzMxMTYtOC44OTAwOTEgMTUuMDIxMTg3LTIuMDY5MjQ1IDUuMjg4MDcxLTMuMjE4ODI2IDEwLjgwNjA1OC0zLjUyNTM4IDE2LjA5NDEyOS0uMDc2NjM5IDEuMzAyODU4LS4wNzY2MzkgMi42ODIzNTUtLjA3NjYzOSAzLjk4NTIxM3YuOTk2MzA0bC4wNzY2MzkgMS4wNzI5NDJjLjA3NjYzOC42MTMxMDkuMDc2NjM4IDEuMzAyODU4LjE1MzI3NyAxLjkxNTk2Ny4yMjk5MTYgMi42ODIzNTUuNzY2Mzg3IDUuMjg4MDcxIDEuNDU2MTM2IDcuNzQwNTEgMS40NTYxMzUgNC45ODE1MTYgMy43NTUyOTYgOS41MDMyIDYuNTkwOTI5IDEzLjMzNTEzNiAyLjgzNTYzMiAzLjgzMTkzNSA2LjI4NDM3NCA2Ljk3NDEyMiA5Ljg4NjM5MyA5LjUwMzIgMy42MDIwMiAyLjQ1MjQzOSA3LjUxMDU5NCA0LjIxNTEyOSAxMS4zNDI1MyA1LjM2NDcxIDMuODMxOTM1IDEuMTQ5NTggNy42NjM4NzEgMS42MDk0MTMgMTEuMjY1ODkgMS42MDk0MTNoMS4zMDI4NTguNjg5NzQ4Yy4yMjk5MTcgMCAuNDU5ODMzIDAgLjY4OTc0OS0uMDc2NjM5LjM4MzE5MyAwIC43NjYzODctLjA3NjYzOSAxLjE0OTU4MS0uMDc2NjM5LjA3NjYzOCAwIC4yMjk5MTYgMCAuMzA2NTU0LS4wNzY2MzlsLjM4MzE5NC0uMDc2NjM4Yy4yMjk5MTYgMCAuNDU5ODMyLS4wNzY2MzkuNjg5NzQ4LS4wNzY2MzkuNDU5ODMzLS4wNzY2MzkuODQzMDI2LS4xNTMyNzcgMS4zMDI4NTgtLjIyOTkxNi40NTk4MzMtLjA3NjYzOS44NDMwMjYtLjE1MzI3OCAxLjIyNjIyLS4zMDY1NTUuODQzMDI2LS4xNTMyNzcgMS42MDk0MTMtLjQ1OTgzMiAyLjM3NTgtLjY4OTc0OCAxLjUzMjc3NC0uNTM2NDcxIDMuMDY1NTQ4LTEuMTQ5NTgxIDQuMzY4NDA2LTEuODM5MzI5IDEuMzc5NDk3LS42ODk3NDkgMi42MDU3MTctMS41MzI3NzUgMy44MzE5MzYtMi4yOTkxNjIuMzA2NTU1LS4yMjk5MTYuNjg5NzQ4LS40NTk4MzIuOTk2MzAzLS43NjYzODcgMS4yMjYyMTktLjk5NjMwMyAxLjQ1NjEzNi0yLjgzNTYzMi40NTk4MzItNC4wNjE4NTItLjg0MzAyNS0xLjA3Mjk0MS0yLjM3NTgtMS4zNzk0OTYtMy42MDIwMTktLjY4OTc0OC0uMzA2NTU1LjE1MzI3Ny0uNjEzMTEuMzA2NTU1LS45MTk2NjUuNDU5ODMyLTEuMDcyOTQxLjUzNjQ3MS0yLjE0NTg4My45OTYzMDQtMy4yOTU0NjQgMS4zNzk0OTctMS4xNDk1ODEuMzgzMTk0LTIuMzc1OC42ODk3NDktMy42MDIwMi45MTk2NjUtLjYxMzEwOS4wNzY2MzgtMS4yMjYyMTkuMTUzMjc3LTEuOTE1OTY3LjIyOTkxNi0uMzA2NTU1IDAtLjYxMzExLjA3NjYzOC0uOTk2MzA0LjA3NjYzOC0uMzA2NTU0IDAtLjY4OTc0OCAwLS45MTk2NjQgMC0uMzA2NTU1IDAtLjYxMzExIDAtLjkxOTY2NSAwLS4zODMxOTMgMC0uNzY2Mzg3IDAtMS4xNDk1OC0uMDc2NjM4aC0uMDc2NjM5LS4xNTMyNzctLjIyOTkxN2MtLjE1MzI3NyAwLS4zODMxOTMgMC0uNTM2NDctLjA3NjYzOS0uMzgzMTk0LS4wNzY2MzktLjY4OTc0OS0uMDc2NjM5LTEuMDcyOTQyLS4xNTMyNzctMi44MzU2MzMtLjM4MzE5NC01LjY3MTI2NS0xLjIyNjIyLTguMzUzNjItMi40NTI0MzktMi43NTg5OTMtMS4yMjYyMTktNS4zNjQ3MS0yLjkxMjI3MS03Ljc0MDUxLTUuMDU4MTU1cy00LjQ0NTA0NS00LjY3NDk2MS02LjA1NDQ1OC03LjU4NzIzMi0yLjc1ODk5My02LjEzMTA5Ny0zLjI5NTQ2NC05LjUwMzJjLS4yMjk5MTctMS42ODYwNTItLjM4MzE5NC0zLjQ0ODc0Mi0uMzA2NTU1LTUuMTM0Nzk0IDAtLjQ1OTgzMi4wNzY2MzgtLjkxOTY2NS4wNzY2MzgtMS4zNzk0OTd2LS4wNzY2MzktLjE1MzI3Ny0uMzgzMTk0YzAtLjIyOTkxNi4wNzY2MzktLjQ1OTgzMi4wNzY2MzktLjY4OTc0OC4wNzY2MzktLjkxOTY2NS4yMjk5MTYtMS44MzkzMjkuMzgzMTk0LTIuNzU4OTk0IDEuMzAyODU4LTcuMzU3MzE2IDQuOTgxNTE2LTE0LjU2MTM1NSAxMC42NTI3ODEtMjAuMDAyNzAzIDEuNDU2MTM1LTEuMzc5NDk3IDIuOTg4OTA5LTIuNjA1NzE2IDQuNTk4MzIyLTMuNzU1Mjk3czMuMzcyMTAzLTIuMTQ1ODg0IDUuMjExNDMzLTIuOTg4OTFjMS44MzkzMjktLjg0MzAyNSAzLjY3ODY1OC0xLjUzMjc3NCA1LjY3MTI2NC0yLjA2OTI0NSAxLjkxNTk2OC0uNTM2NDcxIDMuOTA4NTc0LS44NDMwMjYgNS45Nzc4Mi0xLjA3Mjk0Mi45OTYzMDMtLjA3NjYzOCAxLjk5MjYwNi0uMTUzMjc3IDMuMDY1NTQ4LS4xNTMyNzdoLjY4OTc0OC44NDMwMjYuNTM2NDcxLjA3NjYzOS4yMjk5MTZsLjg0MzAyNi4wNzY2MzljMi4yMjI1MjIuMTUzMjc3IDQuMzY4NDA2LjQ1OTgzMiA2LjUxNDI5Ljk5NjMwMyA0LjI5MTc2OC45MTk2NjQgOC41MDY4OTcgMi41MjkwNzcgMTIuNDE1NDcxIDQuNjc0OTYxIDcuODE3MTQ5IDQuMzY4NDA3IDE0LjQ4NDcxNyAxMS4xMTI2MTMgMTguNTQ2NTY4IDE5LjIzNjMxNyAyLjA2OTI0NiA0LjA2MTg1MSAzLjUyNTM4MSA4LjQzMDI1OCA0LjIxNTEyOSAxMi45NTE5NDIuMTUzMjc4IDEuMTQ5NTguMzA2NTU1IDIuMjk5MTYxLjM4MzE5NCAzLjQ0ODc0MmwuMDc2NjM5Ljg0MzAyNS4wNzY2MzguODQzMDI2di44NDMwMjYuODQzMDI2Ljc2NjM4Ny44NDMwMjZjMCAuNTM2NDcxLS4wNzY2MzggMS40NTYxMzUtLjA3NjYzOCAxLjk5MjYwNi0uMDc2NjM5IDEuMjI2MjItLjIyOTkxNiAyLjUyOTA3OC0uMzgzMTk0IDMuNzU1Mjk3LS4xNTMyNzcgMS4yMjYyMTktLjM4MzE5MyAyLjQ1MjQzOS0uNjEzMTEgMy42Nzg2NTgtLjIyOTkxNiAxLjIyNjIyLS41MzY0NzEgMi40NTI0MzktLjg0MzAyNSAzLjYwMjAyLS42MTMxMSAyLjM3NTgtMS4zNzk0OTcgNC43NTE2LTIuMjk5MTYyIDcuMTI3NC0xLjgzOTMyOSA0LjU5ODMyMi00LjI5MTc2NyA5LjA0MzM2OC03LjIwNDAzOCAxMy4xMDUyMTktNS45MDExODEgOC4xMjM3MDQtMTMuOTQ4MjQ2IDE0LjcxNDYzMy0yMy4xNDQ4OTEgMTguOTI5NzYyLTQuNTk4MzIzIDIuMDY5MjQ1LTkuNDI2NTYyIDMuNjAyMDE5LTE0LjQwODA3OCA0LjM2ODQwNi0yLjQ1MjQzOC40NTk4MzMtNC45ODE1MTYuNjg5NzQ5LTcuNTEwNTkzLjc2NjM4N2gtLjQ1OTgzMy0uMzgzMTkzLS44NDMwMjYtMS4yMjYyMTktLjYxMzExLS4wNzY2MzktLjIyOTkxNmMtMS4zNzk0OTcgMC0yLjY4MjM1NS0uMDc2NjM4LTQuMDYxODUyLS4yMjk5MTYtNS4zNjQ3MDktLjM4MzE5My0xMC42NTI3OC0xLjM3OTQ5Ni0xNS44NjQyMTMtMi44MzU2MzItNS4xMzQ3OTMtMS40NTYxMzYtMTAuMTE2MzEtMy41MjUzODEtMTQuODY3OTEtNS45Nzc4MTktOS40MjY1NjEtNS4wNTgxNTUtMTcuOTMzNDU3OS0xMS45NTU2MzktMjQuNTI0Mzg3LTIwLjMwOTI1OS0zLjI5NTQ2NDYtNC4xMzg0OS02LjIwNzczNTYtOC42NjAxNzQtOC41ODM1MzU2LTEzLjMzNTEzNS0yLjM3NTgtNC42NzQ5NjItNC4yOTE3Njc4LTkuNjU2NDc4LTUuNjcxMjY0Ni0xNC42Mzc5OTQtMS4zNzk0OTY4LTUuMDU4MTU1LTIuMjIyNTIyNi0xMC4xOTI5NDktMi42MDU3MTYyLTE1LjQwNDM4MWwtLjA3NjYzODctLjk5NjMwM3YtLjIyOTkxNi0uMjI5OTE3LS40NTk4MzItLjg0MzAyNi0uMjI5OTE2LS4zMDY1NTUtLjYxMzEwOS0xLjIyNjIyLS4yMjk5MTZzMCAuMDc2NjM5IDAtLjA3NjYzOHYtLjQ1OTgzM2MwLS42MTMxMDkgMC0xLjMwMjg1OCAwLTEuOTE1OTY4LjA3NjYzODctMi41MjkwNzcuMzA2NTU0OS01LjIxMTQzMi42MTMxMDk3LTcuODE3MTQ4LjMwNjU1NDktMi42MDU3MTYuNzY2Mzg3MS01LjI4ODA3MSAxLjMwMjg1ODEtNy44OTM3ODdzMS4xNDk1ODA3LTUuMjExNDMzIDEuOTE1OTY3OC03LjgxNzE0OWMxLjQ1NjEzNTUtNS4xMzQ3OTMgMy4yOTU0NjQ1LTEwLjExNjMxIDUuNDQxMzQ4NC0xNC43OTEyNzEgNC4zNjg0MDY1LTkuMzQ5OTIyNiAxMC4wMzk2NzExLTE3LjcwMzU0MjEgMTYuODYwNTE2NC0yNC4zNzExMDk5IDEuNjg2MDUxNi0xLjY4NjA1MTYgMy40NDg3NDE3LTMuMjE4ODI1OCA1LjI4ODA3MDctNC43NTE2MDAxIDEuODM5MzI5LTEuNDU2MTM1NSAzLjc1NTI5Ny0yLjgzNTYzMjIgNS43NDc5MDQtNC4xMzg0OTAzIDEuOTE1OTY3LTEuMzAyODU4MSAzLjk4NTIxMy0yLjQ1MjQzODggNi4wNTQ0NTgtMy41MjUzODA3Ljk5NjMwMy0uNTM2NDcxIDIuMDY5MjQ1LTEuMDcyOTQyIDMuMTQyMTg3LTEuNTMyNzc0Mi41MzY0NzEtLjIyOTkxNjIgMS4wNzI5NDItLjQ1OTgzMjMgMS42MDk0MTMtLjY4OTc0ODQuNTM2NDcxLS4yMjk5MTYyIDEuMDcyOTQyLS40NTk4MzIzIDEuNjA5NDEzLS42ODk3NDg0IDIuMTQ1ODg0LS45MTk2NjQ2IDQuMzY4NDA2LTEuNjg2MDUxNyA2LjY2NzU2OC0yLjM3NTgwMDEuNTM2NDcxLS4xNTMyNzc0IDEuMTQ5NTgtLjMwNjU1NDggMS42ODYwNTEtLjUzNjQ3MDkuNTM2NDcxLS4xNTMyNzc1IDEuMTQ5NTgxLS4zMDY1NTQ5IDEuNjg2MDUyLS40NTk4MzIzIDEuMTQ5NTgxLS4zMDY1NTQ4IDIuMjk5MTYxLS42MTMxMDk3IDMuNDQ4NzQyLS44NDMwMjU4LjUzNjQ3MS0uMTUzMjc3NCAxLjE0OTU4MS0uMjI5OTE2MiAxLjc2MjY5LS4zODMxOTM2LjYxMzExLS4xNTMyNzc0IDEuMTQ5NTgxLS4yMjk5MTYxIDEuNzYyNjkxLS4zODMxOTM1LjYxMzEwOS0uMDc2NjM4NyAxLjE0OTU4LS4yMjk5MTYyIDEuNzYyNjktLjMwNjU1NDlsLjg0MzAyNi0uMTUzMjc3NC45MTk2NjQtLjE1MzI3NzRjLjYxMzExLS4wNzY2Mzg3IDEuMTQ5NTgxLS4xNTMyNzc0IDEuNzYyNjkxLS4yMjk5MTYxLjY4OTc0OC0uMDc2NjM4OCAxLjMwMjg1OC0uMTUzMjc3NSAxLjk5MjYwNi0uMjI5OTE2Mi41MzY0NzEtLjA3NjYzODcgMS40NTYxMzYtLjE1MzI3NzQgMS45OTI2MDctLjIyOTkxNjEuMzgzMTkzLS4wNzY2Mzg3Ljg0MzAyNS0uMDc2NjM4NyAxLjIyNjIxOS0uMTUzMjc3NGwuODQzMDI2LS4wNzY2Mzg3LjM4MzE5My0uMDc2NjM4OGguNDU5ODMzYy42ODk3NDgtLjA3NjYzODcgMS4zMDI4NTgtLjA3NjYzODcgMS45OTI2MDYtLjE1MzI3NzRsLjk5NjMwMy0uMDc2NjM4N3MuMzgzMTk0IDAgLjA3NjYzOSAwaC4yMjk5MTYuNDU5ODMyYy41MzY0NzEgMCAxLjE0OTU4MS0uMDc2NjM4NyAxLjY4NjA1Mi0uMDc2NjM4NyAyLjIyMjUyMy0uMDc2NjM4NyA0LjUyMTY4NC0uMDc2NjM4NyA2Ljc0NDIwNyAwIDQuNDQ1MDQ1LjE1MzI3NzQgOC44MTM0NTEuNjg5NzQ4NCAxMy4wMjg1OCAxLjQ1NjEzNTUgOC41MDY4OTcgMS42MDk0MTI5IDE2LjQ3NzMyMyA0LjI5MTc2NzggMjMuNzU4MDAxIDcuODkzNzg3MiA3LjI4MDY3NyAzLjUyNTM4MDcgMTMuNzE4MzI5IDcuODkzNzg3MiAxOS4zODk1OTMgMTIuNjQ1Mzg3My4zODMxOTQuMzA2NTU0OC42ODk3NDkuNjEzMTA5NyAxLjA3Mjk0Mi45MTk2NjQ1LjMwNjU1NS4zMDY1NTQ5LjY4OTc0OS42MTMxMDk3Ljk5NjMwNC45MTk2NjQ1LjY4OTc0OC42MTMxMDk3IDEuMzAyODU4IDEuMjI2MjE5NCAxLjk5MjYwNiAxLjgzOTMyOTEuNjg5NzQ5LjYxMzEwOTcgMS4zMDI4NTggMS4yMjYyMTk0IDEuOTE1OTY4IDEuODM5MzI5MS42MTMxMS42MTMxMDk2IDEuMjI2MjE5IDEuMjI2MjE5MyAxLjgzOTMyOSAxLjkxNTk2NzcgMi4zNzU4IDIuNTI5MDc3NSA0LjU5ODMyMyA1LjA1ODE1NDkgNi41OTA5MjkgNy42NjM4NzExIDMuOTg1MjEzIDUuMTM0Nzk0IDcuMjA0MDM5IDEwLjM0NjIyNiA5LjczMzExNiAxNS4yNTExMDMuMTUzMjc4LjMwNjU1NS4zMDY1NTUuNjEzMTEuNDU5ODMzLjkxOTY2NS4xNTMyNzcuMzA2NTU1LjMwNjU1NC42MTMxMS40NTk4MzIuOTE5NjY0LjMwNjU1NS42MTMxMS42MTMxMSAxLjIyNjIyLjg0MzAyNiAxLjgzOTMzLjMwNjU1NS42MTMxMDkuNTM2NDcxIDEuMTQ5NTguODQzMDI2IDEuNzYyNjkuMjI5OTE2LjYxMzExLjUzNjQ3MSAxLjE0OTU4MS43NjYzODcgMS43NjI2OS45MTk2NjQgMi4yOTkxNjIgMS44MzkzMjkgNC41MjE2ODQgMi41MjkwNzcgNi41OTA5MjkgMS4xNDk1ODEgMy4zNzIxMDQgMS45OTI2MDcgNi4zNjEwMTMgMi42ODIzNTUgOC45NjY3My4yMjk5MTYgMS4wNzI5NDEgMS4yMjYyMTkgMS43NjI2OSAyLjI5OTE2MSAxLjYwOTQxMiAxLjE0OTU4MS0uMDc2NjM4IDEuOTkyNjA3LS45OTYzMDMgMS45OTI2MDctMi4xNDU4ODMuMDc2NjM4LTIuNzU4OTk0IDAtNi4wNTQ0NTktLjM4MzE5NC05LjgwOTc1NXoiLz48L3N2Zz4=;" parent="ZmUZul0mUvVKAIZT7241-4" vertex="1">
          <mxGeometry x="171.4845" y="20.625" width="97.83749999999999" height="106.24999999999999" as="geometry" />
        </mxCell>
        <mxCell id="dY3BJDOpuEyH1GTdtF5J-2" value="" style="shape=image;imageAspect=0;aspect=fixed;verticalLabelPosition=bottom;verticalAlign=top;image=data:image/svg+xml,PHN2ZyB4bWxuczp4bGluaz0iaHR0cDovL3d3dy53My5vcmcvMTk5OS94bGluayIgeG1sbnM9Imh0dHA6Ly93d3cudzMub3JnLzIwMDAvc3ZnIiB2aWV3Qm94PSIwIC0wLjAxMDU4MjMwOTIxNjI2MDkxIDEyMS44ODY2MDQzMDkwODIwMyA5OS4yMzA1ODMxOTA5MTc5NyIgd2lkdGg9IjEyMS44ODY2MDQzMDkwODIwMyIgaGVpZ2h0PSI5OS4yMzA1ODMxOTA5MTc5NyI+PGRlZnM+PHN0eWxlPi5jbHMtMXtmaWxsOnVybCgjbGluZWFyLWdyYWRpZW50KTt9PC9zdHlsZT48bGluZWFyR3JhZGllbnQgZ3JhZGllbnRVbml0cz0idXNlclNwYWNlT25Vc2UiIHkyPSI1NyIgeDI9IjI3LjIiIHkxPSIxMy40IiB4MT0iMTY4LjU1IiBpZD0ibGluZWFyLWdyYWRpZW50Ij48c3RvcCBzdG9wLWNvbG9yPSIjZmZmMTAwIiBvZmZzZXQ9IjAiLz48c3RvcCBzdG9wLWNvbG9yPSIjZjA1YTI4IiBvZmZzZXQ9IjEiLz48L2xpbmVhckdyYWRpZW50PjwvZGVmcz48ZyBkYXRhLW5hbWU9IkxheWVyIDYiIGlkPSJMYXllcl82Ij48cGF0aCBkPSJNNC42NiwyNUgyLjM3YTIuMzcsMi4zNywwLDAsMCwwLDQuNzRINC42NmEyLjM3LDIuMzcsMCwxLDAsMC00Ljc0Wk00OC40OCw1OS41N0g0Ni4xOWEyLjM3LDIuMzcsMCwxLDAsMCw0Ljc0aDIuMjlhMi4zNywyLjM3LDAsMSwwLDAtNC43NFpNNDYuNTYsMzdhMi4zNywyLjM3LDAsMCwwLTIuMzctMi4zN0gzNi4yN2EyLjM3LDIuMzcsMCwwLDAsMCw0Ljc0aDcuOTJBMi4zNywyLjM3LDAsMCwwLDQ2LjU2LDM3Wk0xMjEuNzMsMjIuMSwxMTkuMzIsOC41NkE5Ljg4LDkuODgsMCwwLDAsMTA5LjA3LDBIMTYuMjRBNi4yOCw2LjI4LDAsMCwwLDkuOSw3LjdsMi41NCwxNC40YTMuMzgsMy4zOCwwLDAsMCwuMDguMzR2MGMuMywxLjc2LS41OSwyLjQ3LTEuMzksMi43M2gwYTIuMzcsMi4zNywwLDAsMCwuNzksNC42SDExNS4zOUE2LjI4LDYuMjgsMCwwLDAsMTIxLjczLDIyLjFaTTkwLjE1LDc2LjQyYy0xLTUuMjUtNC03LjItNy4zOS03LjJINTguMjRhMi4zOSwyLjM5LDAsMCwwLTIuMzcsMi40QTIuMzcsMi4zNywwLDAsMCw1OCw3NGgwYy43OC4xNCwxLjYyLDEuMTYsMi4xNSwzLjY4bDIuNTIsMTRhOS41OSw5LjU5LDAsMCwwLDkuMTksNy41NGwxNC42My0uMDdhNi4yOCw2LjI4LDAsMCwwLDYuNDQtNy42MVpNNTcuNzMsNjQuNDhIODQuMzRhMi4yNywyLjI3LDAsMCwwLC41OS0uMDljMi40Ni0uNTIsMi41OC0yLjUyLDIuMjYtNC41MUw4My44LDQxLjI3Yy0uOTMtNC44NC0zLjc0LTYuNzUtNy40My02Ljc1SDUyYTIuMzcsMi4zNywwLDAsMC0uMjgsNC43MmgwYy44MS4xNSwxLjcsMS4yNCwyLjIyLDRsMi41NywxNC4yNHYwQTEuOTIsMS45MiwwLDAsMSw1NSw1OS44N2gwYTIuMzYsMi4zNiwwLDAsMCwuNzksNC41OWgxLjlaIiBjbGFzcz0iY2xzLTEiLz48L2c+PC9zdmc+;" parent="ZmUZul0mUvVKAIZT7241-4" vertex="1">
          <mxGeometry x="426.504105" y="32.5" width="106.2875" height="86.25" as="geometry" />
        </mxCell>
        <mxCell id="dY3BJDOpuEyH1GTdtF5J-3" value="" style="shape=image;imageAspect=0;aspect=fixed;verticalLabelPosition=bottom;verticalAlign=top;image=data:image/svg+xml,PHN2ZyB4bWxucz0iaHR0cDovL3d3dy53My5vcmcvMjAwMC9zdmciIHZpZXdCb3g9IjExLjQzMjYyMzg2MzIyMDIxNSAyLjQ5OTcwNjI2ODMxMDU0NyAxMDcuOTMwMzY2NTE2MTEzMjggMTIzLjE0NTk5NjA5Mzc1IiB3aWR0aD0iMTA3LjkzMDM2NjUxNjExMzI4IiBoZWlnaHQ9IjEyMy4xNDU5OTYwOTM3NSI+JiN4YTsgICAgPHBhdGggZD0iTTM4LjQyMiAxMTMuNjhjLTEuODA1LjQxNC03LjExNyAzLjI4OS0xMS43MTEgNC4xNi00LjU5Ljg3NS04LjU2MyAxLjMzNi05Ljk1NyAxLjg1MS0xLjM5LjUxMi0yLjQ3MyAxLjU0LjI1OCAyLjU2NyAyLjczOCAxLjAyNyAxNS45OTIgMS4zODcgMTcuMTggMCAxLjE4Ny0xLjM4Ny0uODItMS45ODgtMy43MTUtMS45NS0yLjA2My4wMjQtMS44MTMtLjY5LTEuODA1LS43NzMgMCAwIC4xMjktLjg5OCAzLjMtMS4zMzYgMy4xNjktLjQzMyAxNy4xOC0xLjc0MiAxNi45MjMtMy4yMzQtLjI1OC0xLjQ4OC04LjY2OC0xLjY5NS0xMC40NzMtMS4yODVabS02LjQwNiAxMC40MWMtLjA5NC0uNDI2LTEuMzc1LS41Mi0yLjg1Ni0uMTk1LTEuNDg0LjMyNC0yLjYxLjkzLTIuNTE1IDEuMzU5LjA5My40MyAxLjM3LjUyIDIuODU1LjIgMS40ODQtLjMyNSAyLjYwNS0uOTM0IDIuNTE2LTEuMzY0Wm0tNi4xNjQtLjAwNGMtLjAzNi0uNDIyLTEuMzUyLS42NjgtMi45NDItLjU0My0xLjU5LjEyOS0yLjg1MS41NzQtMi44MiAxIC4wMzUuNDIyIDEuMzUxLjY2NCAyLjk0MS41MzUgMS41OTQtLjEyMSAyLjg1Ni0uNTY2IDIuODItLjk5MlptLTYuMDQzLS42NjRjLS4wNDctLjMyOC0uOTQyLS40OC0yLS4zMzYtMS4wNjMuMTQtMS44ODMuNTI3LTEuODM2Ljg2LjA0My4zMjcuOTQxLjQ4IDIgLjMzNSAxLjA1OC0uMTQ0IDEuODc5LS41MjcgMS44MzYtLjg2Wm0tMy44Mi0uNTg2Yy0uMDQtLjI2Mi0uOS0uMzYtMS45MjMtLjIxMS0xLjAyMy4xNDUtMS44MTYuNDgtMS43OC43NDYuMDM4LjI3LjkwMi4zNjcgMS45MjEuMjE5IDEuMDItLjE0OSAxLjgyLS40ODUgMS43NzctLjc1NFptLS44NTItMS4wNWMtLjA0LS4yNy0uODk5LS4zNjQtMS45MjItLjIxNi0xLjAyNC4xNDktMS44Mi40ODUtMS43ODEuNzUuMDM5LjI2Ni45MDIuMzY0IDEuOTIxLjIxNSAxLjAyNC0uMTQ0IDEuODItLjQ4NCAxLjc4Mi0uNzVabS0uNDY1LTEuMTU3Yy0uMDM1LS4yMy0uNzgxLS4zMTctMS42NzItLjE4OC0uODg3LjEzMy0xLjU3OC40MjItMS41NDMuNjU3LjAzMS4yMy43NzcuMzEyIDEuNjY4LjE4My44OS0uMTI1IDEuNTgyLS40MTggMS41NDctLjY1MlptNTEuMjk3LTUuNTEyYy0zLjE0NS4xNTYtMTAuMjY2LS4yMDMtMTEuMjQ2IDEuNDQyLS45OCAxLjY0IDIuODkgMi4yNTcgOC45NzYgMS43NDYgNi4wOS0uNTE2IDE0LjcwMy0xLjE4NCAxNS4wNjctMy4wMzIuMzU5LTEuODQ3LTEuNjAyLTEuNDkyLTEuODA5LTIuNjY4LS4yMDctMS4xODMgMi4xNjgtMS4xODMgMi42MzMtMi45My40NjUtMS43NDUtMy4xOTUtMS41NDItNi40NS0xLjU0Mi0zLjI1IDAtOC42NjMuMzA4LTkuMTgzIDIuMDA0LS41MTYgMS42OTUgMi40NzcgMS42OTUgNC41OTQgMi4xMDUgMi4xMTMuNDE0IDEuNDk2IDEuMTg0IDEuNDk2IDEuMTg0LS4xMDYgMS4wNzgtLjkzIDEuNTM5LTQuMDc4IDEuNjkxWm0tNS42ODQgNC41MTJjMC0uNDkyLTEuMjIyLS44ODctMi43My0uODg3cy0yLjcyNy4zOTUtMi43MjcuODg3YzAgLjQ4NCAxLjIxOS44ODMgMi43MjcuODgzIDEuNTA4IDAgMi43My0uMzk5IDIuNzMtLjg4M1ptNi4xMTMtLjE5NWMwLS40NS0uODE2LS44MDktMS44Mi0uODA5cy0xLjgyLjM2LTEuODIuODA5YzAgLjQ0NS44MTYuODA4IDEuODIuODA4czEuODItLjM2MyAxLjgyLS44MDhabTUuODQtLjU3OWMwLS4zNjMtLjg5NC0uNjU2LTEuOTkyLS42NTYtMS4xMDEgMC0xLjk5Ni4yOTMtMS45OTYuNjU2IDAgLjM2NC44OTUuNjU3IDEuOTk2LjY1NyAxLjA5OCAwIDEuOTkyLS4yOTMgMS45OTItLjY1N1ptMy44MzItLjczYzAtLjM4My0uNjQ4LS42OTUtMS40NTMtLjY5NS0uOCAwLTEuNDUzLjMxMi0xLjQ1My42OTUgMCAuMzgzLjY1Mi42OTEgMS40NTMuNjkxLjgwNSAwIDEuNDUzLS4zMDggMS40NTMtLjY5MVptMy43OTMtLjc5YzAtLjM3NC0uNjYtLjY3NS0xLjQ3Mi0uNjc1LS44MTMgMC0xLjQ3LjMtMS40Ny42NzYgMCAuMzcxLjY1Ny42NzIgMS40Ny42NzIuODEyIDAgMS40NzItLjMwMSAxLjQ3Mi0uNjcyWk0xNC4yMzggOTguMzkyYzAgLjg3OSAxLjkyMiAxLjcwNyA1LjMyOCAyLjQ0NS0uMjQyLTEuNzYyLS4wOTMtMy41MzEuMTMzLTQuOTEtMy40OTIuNzQyLTUuNDYgMS41ODItNS40NiAyLjQ2OVptMTAwLjU1OS0yLjI2NmE3LjYwNCA3LjYwNCAwIDAgMS0xLjk1MyAyLjk4Yy0xLjU0IDEuNDU0LTIuODg3IDIuMzI1LTQuMDk0IDIuNjQxIDYuNjYtLjkzMyAxMC42MTMtMi4wOTQgMTAuNjEzLTMuMzUxIDAtLjgxLTEuNjM2LTEuNTc5LTQuNTY2LTIuMjdabTAgMCIgZmlsbD0iIzIzMWYyMCIvPiYjeGE7ICAgIDxwYXRoIGQ9Ik0xMDMuNDA2IDk0LjI4MWMtLjQyMi0zLjA5LTEuNzQ2LTQuNDc2LTIuOTE4LTUuNjk5LTEuMDg2LTEuMTQtMi4xMTctMi4yMTUtMS43ODUtNC4xOTEuMzA5LTEuODI5IDEuNzY2LTIuOTUgNC4xNTItMy4yNDMtMS40NDktOS43NS0zLjU3NC0yMi4wNDYtNi4zLTMyLjUzNS0xLjM2NC01LjIzOC0zLjUxNi04Ljg3NS02LjQwNy0xMS4yOTctMy4zMDggMS42ODgtNy4yOCAzLjU0LTExLjcyMiA1LjQ1N2EzMDYuNTIgMzA2LjUyIDAgMCAxLTkuNjc2IDMuOTczYy0yLjUzMSAyLjcwNy01LjMwNSA1LjM3OS03LjAwNCA2LjE0LTEuMjA3LjU0LTIuMjg1Ljc1OS0zLjIxOS43NTktMi4wMiAwLTMuMzg2LTEuMDEyLTQuMDQzLTEuOTEtLjc3LjIwMy0xLjM4Mi4zMzUtMS43OTcuMzc0LS40OTYuMDU1LTEuMjMuMTE4LTIuMTQ4LjE4NGEyLjggMi44IDAgMCAxLS40NiAyLjgwNWMtLjc0Ny44OS0xLjk0NiAxLjM0LTMuNjQ1IDEuMzQtMi40NDIgMC01LjkxOC0uOTI2LTEwLjU3LTIuODAxLS42My0uMjU0LTEuMjU5LS41LTEuODkxLS43MzktLjM1Ni4wMDQtLjcxMS4wMDQtMS4wNjcuMDA0aC0uMDA0Yy00LjQ0NSAwLTcuOTE0LS4xMzYtMTAuNjM2LS4zNTktMi45ODUgNi4xNDUtMS42ODggMTIuOTYtLjU5OCAxOC41OSAxLjA0NyA1LjM5OCA0LjY3NiAxNC45OTYgOC4wNDMgMjMuMjQ2IDEuMTM3IDIuNzg5IDIuMyA1LjU3IDMuNDg4IDguMzQgOS4xMS44IDIwLjc5MyAxLjI4MSAzMy41MzEgMS4yODEgMTUuMTYgMCAyOC44MS0uNjg0IDM4LjQyNi0xLjc3Ny0uNzAzLTIuODY4LTEuNTg2LTYuODYtMS43NDItNy44OFpNMjguMzIgNjguMDExYzAtNS44IDQuNzI3LTEwLjUgMTAuNTU1LTEwLjUgNS44MjQgMCAxMC41NDcgNC43IDEwLjU0NyAxMC41IDAgMi44OTEtMS4xNzYgNS41MDktMy4wNzQgNy40MWExMC42ODIgMTAuNjgyIDAgMCAxLTIuMTM3IDEuNjUgMTAuNDk5IDEwLjQ5OSAwIDAgMS01LjMzNiAxLjQ0Yy01LjgyOCAwLTEwLjU1NS00LjY5OC0xMC41NTUtMTAuNVpNNTYuNSA5MC4yNDdjLTIuMjIzLjY2LTMuMDIzLTEuODgzLTMuMjYyLTIuOTg4LjAxNi0uMDA4LjAzMi0uMDIuMDQ3LS4wMzEgMS4wMzUtLjY0NSAyLjIzOC0xLjM4MyAzLjU5LTEuODk5LjE1Ni40MjIuNDAyIDEuMTQuNTUgMS44OTkuMjQ3IDEuMjguMjIzIDIuNjgtLjkyNSAzLjAyWm0zLjYxMy0uODk4Yy0uNTU0LS4yMDctLjk3Mi0xLjEyMS0xLjI3LTIuMTIxYTE4LjcxOSAxOC43MTkgMCAwIDEtLjUxNS0yLjM0NGMuMjU4LS4wNTkuNTI3LS4xMDYuNzk3LS4xNDUuMTMzLS4wMi40MTgtLjAzOSAxLjAxNi0uMDM5LjU0NyAwIDEuMjA3LjAyIDEuOTEuMDQuMTk5LjAwMy40MDYuMDExLjYxNy4wMTEuMDU5LjQ3Ny4xMjEgMS4xNzIuMiAyLjE4NC4wMS4xMDUuMDEuMTk5LjAxLjI5My4wMzIgMi41My0yLjE4NyAyLjM0LTIuNzY1IDIuMTJabTkuNDk2LTYuMzg3Yy0xLjA3OC40NzctMi42NTYuNjgtNS4yOTMuNjgtLjg5NCAwLTEuODE2LS4wMi0yLjYyOS0uMDRhNjMuMDgyIDYzLjA4MiAwIDAgMC0xLjkyNS0uMDM4Yy0uNTA4IDAtLjg4LjAxNS0xLjEwMi4wNDItMi40ODguMzI5LTQuNTQzIDEuNjEtNi4xOTUgMi42NDEtLjQ4LjMtLjkzOC41ODItMS4zNi44MTctLjY4Ny4zNzQtMS41MjMuNTc0LTIuNDMuNTc0LTEuNjcxIDAtMy4yNDEtLjY1My00LjIwNi0xLjc0Ni0uNzk3LS45MDctMS4xMzMtMi4wNDMtLjk2OS0zLjI4Mi41LTMuNzE0IDUuODM2LTUuNjEzIDYuNDQxLTUuODE2bC45NzctLjMzMmExLjQ5NiAxLjQ5NiAwIDAgMS0uMDc0LS4yOWMtLjI5LTEuNzMgMS45OC0zLjU0NiA1LjA3LTQuMDU4bC40MTQtLjA1OGMyLjU1OS0uMzE3IDQuODA1LjM5OCA1LjUwNCAxLjY5MWwxLjE5MS4wMDhjMi43MTEuMDIzIDQuOTU0LjM4NyA2LjY1MyAxLjA4MiAxLjcxNS42OTUgMi43NjEgMS43MDcgMi45NTMgMi44NDguMzg3IDIuMjkzLS43NDYgNC4yNjUtMy4wMiA1LjI3N1ptMS45NTQtMTIuMDE2Yy01LjgyNSAwLTEwLjU0Ny00LjcwMy0xMC41NDctMTAuNTA0IDAtNS44IDQuNzIyLTEwLjUwNCAxMC41NDctMTAuNTA0IDUuODI0IDAgMTAuNTUgNC43MDQgMTAuNTUgMTAuNTA0IDAgNS44MDEtNC43MjIgMTAuNTA0LTEwLjU1IDEwLjUwNFptMCAwIiBmaWxsPSIjNjdjZmUzIi8+JiN4YTsgICAgPHBhdGggZD0ibTg1LjA3NCAyNS4wNTUtLjA4Mi0uMTM3LS4xMDEtLjEzM2MtLjA5OC0uMTU2LS40ODUtLjM5NC0uNTE2LS4zOThsLS4wNC0uMDItLjAxOS0uMDEyLS4wNzQtLjAzNWgtLjAwOGwtLjAxNS0uMDA4LS4xMDYtLjAzNS0uMjE1LS4wNzRjLS4xNDQtLjA1LS4zMDQtLjA3LS40NTctLjEwMS0uMTU2LS4wMjgtLjMyLS4wMjgtLjQ4LS4wMzZhNC4wNDcgNC4wNDcgMCAwIDAtLjQ4OC4wNCAzLjUyNiAzLjUyNiAwIDAgMC0xLjY1Ny43OTYgNS4yNzUgNS4yNzUgMCAwIDAtMS4wNDMgMS4yMiA4LjYgOC42IDAgMCAwLTEuMDMgMi40MTcgOS45MTcgOS45MTcgMCAwIDAtLjMxMyAxLjc5Yy0uMDI0LjIxOC0uMDI0LjM5LS4wMjguNTA3LS4wMDQuMTE3IDAgLjE4IDAgLjE4bC4zMzItLjU5OGMuMjExLS4zNzUuNTA0LS45MDYuODY0LTEuNTIzLjM2Ny0uNjEuODA0LTEuMzEgMS4zMzItMS45NDIuMjY1LS4zMTYuNTU4LS42MS44NjctLjgzNi4zMDgtLjIxOS42MjUtLjM3NS45NDEtLjQyMi4wNzgtLjAxMS4xNi0uMDIzLjIzOS0uMDMuMDgyLjAxLjE2IDAgLjI0Mi4wMTkuMDg2LjAyLjE2OC4wMTUuMjU0LjA0M2wuMjAzLjA1NC4wNjIuMDMyLS4wMDgtLjAwOGguMDEyYzAgLjAwNC4wMDQuMDA4LjAwOC4wMTFsLjAwNC4wMDQuMDIzLjAwOGgtLjAxMWMtLjAwNCAwLS4wMDggMC0uMDEyLS4wMDQuMDEyLjAwOC4wMi4wMi4wMjcuMDQzLjA0My4wNzQuMDc4LjIzLjA5LjM5OS4wMTYuMzgyLS4wMTYuNzYxLS4wOSAxLjEzNi0uMDU4LjM3NS0uMTM2LjczOS0uMjI2IDEuMTA2LS4xNi42OTUtLjMyIDEuMjg1LS40MjIgMS43MDMtLjExLjQxOC0uMTY4LjY2LS4xNjguNjZzLjE4My0uMTc2LjQ1Ny0uNTE2Yy4zNzUtLjQ3Ni43MTUtLjk4IDEuMDA4LTEuNTA3YTguMzYgOC4zNiAwIDAgMCAuNTIzLTEuMTIxYy4xNi0uNDE4LjMwOS0uODguMzU2LTEuNDM4YTIuNTAzIDIuNTAzIDAgMCAwLS4xMTgtLjk2IDEuNDA3IDEuNDA3IDAgMCAwLS4xMTctLjI3NFptMCAwIiBmaWxsPSIjMDAwIi8+JiN4YTsgICAgPHBhdGggZD0ibTgzLjc1IDI1LjgxNi0uMDEyLS4wMDMuMDEyLjAxMWguMDA0bC0uMDA0LS4wMDRabTAgMCIgZmlsbD0iIzAwMCIvPiYjeGE7ICAgIDxwYXRoIGQ9Ik0xOS42NDggNDUuMTI5aC4xNDVjLS4wNS0uMDg2LS4wOTgtLjE3Ni0uMTQ1LS4yNjJabTEuMjktNC4wNzRjLjI1LjQ5Ni41NDYuOTY4Ljg5IDEuNDA2LjEyMS4xNi4yMjcuMjczLjMuMzU1LjA2Ny4wODIuMTEuMTIxLjExLjEyMXMtLjA0My0uMjI2LS4xMi0uNjA5Yy0uMDcxLS4zODctLjE5Mi0uOTI2LS4yOTQtMS41NThhMTEuMzEgMTEuMzEgMCAwIDEtLjEyLTFjLS4wMTctLjMzNi0uMDE3LS43LjA1NC0uOTYxYS43MzEuNzMxIDAgMCAxIC4xMzctLjI5LjM0Mi4zNDIgMCAwIDEgLjE0OC0uMDgxbC4wNDctLjAxMi4wODItLjAxNmMuMDIzLS4wMDQtLjAwOC4wMTYtLjAxMi4wMTYtLjAwNC4wMDQtLjAxNS4wMDQtLjAyMy4wMDRoLS4wMTZsLjAwOC4wMDRjLjAyLjAwNy4wMzEuMDA3LjA0Ny4wMTEuMDc4LjAyOC4xOTUuMDk0LjMyLjE4NC4yNjIuMTg3LjUzMS40OC43OS43NzMuMjU3LjMwOS41MDMuNjIxLjczNy45NDIuNDczLjY0LjkxIDEuMjYxIDEuMjkzIDEuNzk3LjMxMy40MzcuNjMuODc1Ljk1NyAxLjMuMTIyLjE2NC4yNTQuMzI5LjM4Ny40ODlsLS4wMi0uMTY0Yy0uMDE1LS4xMDItLjAzNS0uMjYyLS4wNzQtLjQ1N2ExMS44MzUgMTEuODM1IDAgMCAwLS40MTQtMS41ODYgMTMuNDEyIDEzLjQxMiAwIDAgMC0uOTE0LTIuMTQxIDguOTUzIDguOTUzIDAgMCAwLS43MjItMS4xNDUgNS4zMDMgNS4zMDMgMCAwIDAtMS4wNTUtMS4wOTcgMi45MTggMi45MTggMCAwIDAtLjg0NC0uNDNjLS4wOTQtLjAyLS4xODMtLjAzOS0uMjc3LS4wNWwtLjA3NC0uMDEyaC0uMDk0Yy0uMDY3IDAtLjEyNS4wMDQtLjE5Mi4wMDctLjA1NC4wMDgtLjE0NC4wMTYtLjE3MS4wMjRsLS4wNzkuMDItLjA3OC4wMjMtLjEwNS4wMzEtLjAzMS4wMTItLjA1OS4wMjdhMS43NzMgMS43NzMgMCAwIDAtLjgyNC43MDcgMi4wODIgMi4wODIgMCAwIDAtLjI5Ljg5NWMtLjA1LjU1LjA2Ljk5Ni4xNjkgMS4zOTguMTEzLjM2Ny4yNTQuNzIzLjQyNSAxLjA2M1ptMCAwIiBmaWxsPSIjMjMxZjIwIi8+JiN4YTsgICAgPHBhdGggZD0iTTI1LjgwNSAxMDUuNTc0YzIuNDcyIDAgNC4yMS0xLjM0IDUuNDM3LTMuMDc4YTM2Mi4zOSAzNjIuMzkgMCAwIDEtNS44ODMtMTQuMzk0Yy0uNTkzLjUtMS4yNzMgMS4yNTMtMi4wMTUgMi4zOS0xLjgzNiAyLjg0LTMuMzUyIDkuNDM4LTEuNDQ2IDEyLjkyNi43OTcgMS40NSAyLjA3NSAyLjE1NiAzLjkwNyAyLjE1NlptODcuMzA4LTE2LjM1NWMtMS40NTMtMy43My00LjUzNS02LjM4My03LjUtNi40NDZsLS4xMDEtLjAxMWMtLjAwOCAwLS41NzgtLjA4Mi0xLjM0NC0uMDgyLTEuNjEzIDAtMy41OTQuMzQtMy44NjcgMS45NzYtLjE5MiAxLjEzMy4zMDQgMS43MTEgMS4zNiAyLjgxNyAxLjIwMiAxLjI2MSAyLjg1IDIuOTg0IDMuMzQ3IDYuNTkzLjU2NiA0LjEyNSAxLjU3OCA2LjIyMyAzLjAxMiA2LjIyMy42NjggMCAxLjg4Mi0uMzk4IDMuODk4LTIuMyAyLjQ4LTIuMzQgMi4yNDItNi4wNjMgMS4xOTUtOC43N1ptMCAwIiBmaWxsPSIjZGZjYWEzIi8+JiN4YTsgICAgPHBhdGggZD0iTTQxLjI0NiA3MS43MDNhMy4zMiAzLjMyIDAgMCAxLTMuMzI0IDMuMzEzIDMuMzIgMy4zMiAwIDAgMS0zLjMyOC0zLjMxMyAzLjMyIDMuMzIgMCAwIDEgMy4zMjgtMy4zMTIgMy4yOTcgMy4yOTcgMCAwIDEgMi4zNDguOTY4Yy42MjUuNjIxLjk3NiAxLjQ2NS45NzYgMi4zNDRabTMyLjIxNS03Ljc2MmEzLjMxNCAzLjMxNCAwIDAgMS0zLjMyNCAzLjMxMyAzLjMxOCAzLjMxOCAwIDAgMS0zLjMyOC0zLjMxM2MwLTEuODI4IDEuNDkyLTMuMzA4IDMuMzI4LTMuMzA4YTMuMzE2IDMuMzE2IDAgMCAxIDMuMzI0IDMuMzA4Wm0wIDAiIGZpbGw9IiMyMzFmMjAiLz4mI3hhOyAgICA8cGF0aCBkPSJNMjguODk1IDM0LjcwN2MyLjU5Ny42OTUgNS41MyAxLjA0NyA4LjcyNiAxLjA0NyA1LjEyOSAwIDE2LjAyLS45ODggMzEuMzI4LTcuNjMzbC4zNDQtLjE1MmE5LjA0OSA5LjA0OSAwIDAgMSAuMjEtMi41MTJjLjMzNy0xLjUzNSAxLjAxMy0yLjg0IDEuODM3LTMuNzAzLS4xNTYtLjU5LS4yOS0xLjAyLS4zODMtMS4yMzgtMS43NjYtLjkzOC0xNi4zMjQtNi4zMzYtMjMuOTIyLTYuMzM2LS43NjIgMC0xLjQyMi4wNTQtMS45NjkuMTY0LTYuNzMgMS4zNy0xNi45NiAxMy4wMjMtMTcuMzI0IDE0LjY3Mi0uMTEuNzE0LS4wNzggMi45NTcuMDA0IDUuMzgyWm0tLjEzIDE2LjU0M2E1LjQxIDUuNDEgMCAwIDAtLjY2LS4xMSAyLjgyMiAyLjgyMiAwIDAgMS0yLjk0NS0yLjMwNCAyLjY3IDIuNjcgMCAwIDEtLjA0My0uNDMgMzAuMTQgMzAuMTQgMCAwIDAtMi4yNDIgMS4zOWwtMS4yNy44NzYtLjkzNy0xLjIyN2EzMi41OCAzMi41OCAwIDAgMS0yLjc4NS00LjQxOGMtMi4yNSAxLjA1OS00LjAxMiAyLjIxNS00LjQ0MiAzLjMxMy0uMDgyLjIwNy0uMDQ2LjMyLjAzNi40NDEuMzY3LjUzNSAyLjU1IDIuMTcyIDE1LjI4OSAyLjQ2OVptMjYuNDU0LTMuNTlhMi44NCAyLjg0IDAgMCAxIDMuNDY4LjMzMmMuMTQxLS4wMjMuMzgzLS4wODIuNzM1LS4yNDIgMS4zOTgtLjY2IDYuNDI2LTYuMDA4IDEwLjI1LTEwLjU4Ni4xMzctLjE2LjI4NS0uMzA1LjQ1Ny0uNDM0LTguNzM0IDMuNzU4LTIwLjkzOCA3Ljg2NC0zMi41NTkgNy44NjQtMS44NjcgMC0zLjY0LS4xMDYtNS4yODktLjMybC4yNTguNzQ2LTEuNDUzLjU1NGEzMy45MSAzMy45MSAwIDAgMC0uNjguMjc0YzEuODcxLjQzMyA0LjQwMyAxLjI4OSA3LjU3OCAyLjU3IDUuODA5IDIuMzMyIDguMDMyIDIuNDIyIDguNTg2IDIuMzlhMi44NSAyLjg1IDAgMCAxIDIuNTYzLS4wMzUgODguOTU1IDg4Ljk1NSAwIDAgMCAzLjM4My0uMjYxYy4zMi0uMDM1Ljc5Ny0uMTMzIDEuMzk4LS4yOWEyLjgwMiAyLjgwMiAwIDAgMSAxLjMwNS0yLjU2MlpNODkuMDUgMzAuNDczYy0uNDIyIDIuNTExLTEuMjM5IDUuMjctMS43NzQgNi4wMmwtLjUwNy43MDJhMTE4LjExNiAxMTguMTE2IDAgMCAwIDYuMDctMy4xMzNjNi4wMzUtMy4zNjcgNi43ODktNC44NCA2Ljg3NS01LjIxNC4wNTUtLjI0Ni0uMDA0LS4zMi0uMDMxLS4zNTItLjA2Ny0uMDgyLS40OTMtLjQ5Mi0yLjM5OS0uNDkyLTIuMDgyIDAtNC45OTYuNDc2LTguMDM5IDEuMTMzLS4wNTUuNDQ5LS4xMjEuODk0LS4xOTUgMS4zMzZabS0yLjM1MiA2Ljc1Ny0uODctLjA2NmE0OC44NDQgNDguODQ0IDAgMCAwLTMuNzgyLS4xMzNjLTIuMjUgMC01LjIxOS4xMzctNy42NTIuNzExLjQ4Ljk5Mi4zMzUgMi4xNzItLjM3MiAzLjAyYTE1OS41MTMgMTU5LjUxMyAwIDAgMS0yLjgxMiAzLjI3N2MyLjItLjg5IDQuMzktMS44MDUgNi41NjYtMi43NDZhMjE4LjEzIDIxOC4xMyAwIDAgMCA4LjkxOC00LjA2M1ptMCAwIiBmaWxsPSIjNjQ4YzFhIi8+JiN4YTsgICAgPHBhdGggZD0iTTY5LjU5NCAyOS41OTRjLTYuMTE3IDIuNjU2LTE5LjUyIDcuNzczLTMxLjk3MyA3Ljc3My0zLjE1NiAwLTYuMjQ2LS4zMjgtOS4xNDQtMS4xMS4zMTYuNDc3LjYxNy45NjYuODk4IDEuNDYyIDEuMDc4IDEuODgzIDEuODYzIDMuNzQ2IDIuMjkzIDQuODQzIDEuNTA4LjIzNSAzLjQ3My40MjIgNS45MDIuNDIyIDcuMTUzIDAgMTguMzM2LTEuNjI5IDMzLjY4LTguNTA0LjI5My0uOTI1LjYxMy0xLjg0Ljk1Ny0yLjc0Ni0uMDMxIDAtLjA2Mi4wMDgtLjA5NC4wMDgtLjE2IDAtLjMyNC0uMDItLjQ4LS4wNTUtLjk1My0uMjA3LTEuNjYtLjk4LTIuMDQtMi4wOTNabTAgMCIgZmlsbD0iI2RmY2FhMyIvPiYjeGE7ICAgIDxwYXRoIGQ9Ik0xOS43OTMgNDUuMTI5YTMyLjEyNyAzMi4xMjcgMCAwIDAgMi4xNjQgMy4zNDRjMy43MDMtMi41NTUgOC41NS00LjM5OSA4LjU1LTQuMzk5cy0uMTI0LS4zNjMtLjM1OS0uOTZjLS4xNC0uMzYtLjI4OS0uNzItLjQ0MS0xLjA3NWEzMi40ODMgMzIuNDgzIDAgMCAwLTEuMzktMi44OTggMjMuNTk3IDIzLjU5NyAwIDAgMC0xLjI0My0yLjA3Yy0xLjQ4NC0yLjIyMy0zLjM3LTQuMTE0LTUuNDg0LTQuMTE0LS42NjQgMC0xLjM1Ni4xODgtMi4wNTkuNjEzLTMuODc5IDIuMzM2LTEuODc1IDcuNjg0LjExNyAxMS4yOTcuMDQ3LjA5LjA5OC4xNzYuMTQ1LjI2MlptLjU1LTYuNTM1Yy4wMjgtLjI3OC4xMDItLjU4Ni4yOS0uODk1LjE5MS0uMzE2LjQ4LS41NjIuODI0LS43MDdsLjA1OS0uMDI3LjAyNy0uMDEyLjExLS4wMzEuMDc3LS4wMjQuMDc5LS4wMmMuMDI3LS4wMDcuMTE3LS4wMTUuMTcxLS4wMjMuMDY3LS4wMDMuMTI1LS4wMDcuMTkyLS4wMDdoLjA5NGwuMDc0LjAxMWMuMDkuMDEyLjE4Ny4wMzIuMjc3LjA1MS4zNDQuMTA2LjYxLjI2Ni44NDQuNDMuNDUuMzQ0Ljc3LjcxNSAxLjA1NSAxLjA5Ny4yODUuMzc2LjUxNS43NjYuNzIyIDEuMTQ1LjM2Ny42ODguNjcyIDEuNDAyLjkxNCAyLjE0LjE3Ni41Mi4zMTMgMS4wNTEuNDE0IDEuNTkuMDQuMTkyLjA1OS4zNTIuMDc1LjQ1NGwuMDIuMTY0cy0uMTUtLjE3Ni0uMzg4LS40ODlhNDAuMjgyIDQwLjI4MiAwIDAgMS0uOTU3LTEuM2MtLjM4Mi0uNTM2LS44Mi0xLjE1Ny0xLjI5My0xLjc5Ny0uMjM0LS4zMi0uNDgtLjYzMy0uNzM4LS45NDItLjI1OC0uMjkzLS41MjctLjU4Ni0uNzg5LS43N2ExLjMyNCAxLjMyNCAwIDAgMC0uMzItLjE4N2MtLjAyLS4wMDQtLjAyOC0uMDA0LS4wNDMtLjAxMWwtLjAwOC0uMDA0aC4wMDhjLjAxMiAwIC4wMjMgMCAuMDI3LS4wMDQuMDA0IDAgLjAzNS0uMDIuMDEyLS4wMTZsLS4wODIuMDItLjA0Ny4wMDhhLjMyNS4zMjUgMCAwIDAtLjE0OC4wODIuNzMxLjczMSAwIDAgMC0uMTM3LjI4OWMtLjA3LjI2MS0uMDcuNjI1LS4wNTUuOTYuMDI0LjM0NC4wNy42ODQuMTIxLjk5Ny4xMDIuNjMyLjIyMyAxLjE3NS4yOTMgMS41NjIuMDc4LjM4My4xMjEuNjEuMTIxLjYxcy0uMDQzLS4wNC0uMTEtLjEyMmMtLjA3My0uMDgyLS4xNzktLjE5NS0uMy0uMzU1YTguMzc1IDguMzc1IDAgMCAxLS44OS0xLjQwNiA2LjQwMiA2LjQwMiAwIDAgMS0uNDIyLTEuMDYzYy0uMTE0LS40MDItLjIyMy0uODQ3LS4xNzItMS4zOThabTEuMjQ3LTYuNDQydi44MDVabTAgMCIgZmlsbD0iIzY3Y2ZlMyIvPiYjeGE7ICAgIDxwYXRoIGQ9Ik03My41NzQgMjAuNjM3Yy4xNjQgMCAuMzI0LjAyLjQ4NS4wNSAxLjE4Ny4yNjYgMS45ODggMS4zOTkgMi4yNTcgMi45NzcgMi4yNTgtMy4xNiA0LjczLTQuNzYyIDcuMzY0LTQuNzYyIDEuMTEgMCAyLjA4Ni4yNjIgMi45MDIuNzY2Ljc3My0uOTM0IDEuNTM1LTEuODgzIDIuMjc3LTIuODQ0LTEuMDQ2LjE4OC0zLjIzLjQ3My0zLjIzLjQ3M0M5My44OTUgMTQuMjcgOTMuMjMgNi4wMzUgOTMuMjMgNi4wMzVjMCAxLjQyMi00LjI3NyA0LjgyOC00LjI3NyA0LjgyOC4xOTItMS4yMy0uNDczLTIuODQtLjQ3My0yLjg0LjE4OCAxLjYxLTQuOTQgNS43NzQtNC45NCA1Ljc3NC4zNzgtLjc1OC4wODktMi4wODIuMDg5LTIuMDgyLS4yODUgMS41MTItMi41NjMgMi4wODItMi41NjMgMi4wODIgMS40MjItMS43MDMgNC4wODYtMTAuNjkyIDIuMDktMTEuMjYyLTEuOTk2LS41NjYtNC43NTQgNS44NjMtNC43NTQgNS44NjMtLjA5My0xLjUxMS0uOTQ5LTEuNTExLS45NDktMS41MTEuMzgzIDQuNzMtMy40MTggOC41MTUtMy40MTggOC41MTUtLjI4NS0uOTQ1LTEuODA4LTEuNDIyLTEuODA4LTEuNDIyLjQ5MiAxLjA1NS0uMDY3IDUuODUyLS4yMzkgNy4yMDcuNTA0LS4zNTEgMS4wNDMtLjU1IDEuNTg2LS41NVptMCAwIiBmaWxsPSIjZGZjYWEzIi8+JiN4YTsgICAgPHBhdGggZD0iTTcxLjU0NyAyOS44NDR2LjAwNGMuMDQzLjA0Ny4wODYuMDg2LjEyOS4xMi4wMTUuMDEyLjAzMS4wMi4wNDcuMDMyLjAzLjAyLjA2Mi4wNDMuMDk3LjA1OWEuNjQxLjY0MSAwIDAgMCAuMTYuMDU4Ljg2NC44NjQgMCAwIDAgLjI2Ni4wMDRjLjI0Ni0uMDM5LjUyLS4xOTEuNzk3LS40NDVhNDIuNTEgNDIuNTEgMCAwIDEgLjgwNS0xLjc3NGMuMjU3LS41MjcuNTIzLTEuMDUuODA4LTEuNTY2LjQwNi0yLjE0LS4xNDQtMy44OTgtLjk0NS00LjA3NGEuNTI1LjUyNSAwIDAgMC0uMTM3LS4wMTJjLS44MjQgMC0yLjAyMyAxLjQyNi0yLjQ5MiAzLjU1NS0uMzQgMS41NDMtLjE4NCAyLjkxNC4yMTkgMy42OGwuMDA0LjAwM2MuMDcuMTQuMTQ4LjI2Mi4yMzguMzU2Wm0wIDAiIGZpbGw9IiMwMDAiLz4mI3hhOyAgICA8cGF0aCBkPSJNODMuNzQyIDI1LjgwNWgtLjAxMmwuMDA4LjAwOC4wMTIuMDAzYy0uMDA0LS4wMDMtLjAwNC0uMDA3LS4wMDgtLjAxMVptLjAzNS4wMjMtLjAyMy0uMDA4LS4wMDQtLjAwNHYuMDA0bC4wMDQuMDA0Yy4wMDQuMDA0LjAwOC4wMDQuMDEyLjAwNFptMCAwIiBmaWxsPSIjNjdjZmUzIi8+JiN4YTsgICAgPHBhdGggZD0iTTgzLjY4IDIwLjUxMmMtNC43MDcgMC04LjE2OCA3LjA1NC05Ljk4IDExLjg0N2E1Ni42OSA1Ni42OSAwIDAgMC0uODg0IDIuNTI0Yy0uMTQuNDM3LS4yNzMuODc5LS40MDIgMS4zMi4yMjcuMDQzLjQ1LjEyNS42Ni4yMjcgMi43NDItLjgxNyA2LjI5Ny0xLjAwNCA4Ljk3My0xLjAwNCAyLjI3IDAgMy45MS4xMzMgMy45MS4xMzMuNzE1LS45OTYgNC44NTItMTUuMDQ3LTIuMjc3LTE1LjA0N1ptMS42MjkgNS43NzdhNS4wNjMgNS4wNjMgMCAwIDEtLjM1NiAxLjQzOCA4LjM2IDguMzYgMCAwIDEtLjUyMyAxLjEyIDExLjc4NSAxMS43ODUgMCAwIDEtMS4wMDggMS41MDhjLS4yNzQuMzQtLjQ1Ny41MTYtLjQ1Ny41MTZzLjA1OC0uMjQyLjE2OC0uNjZjLjEwMS0uNDE4LjI2Mi0xLjAwOC40MjItMS43MDMuMDgyLS4zNDQuMTY4LS43MTkuMjI2LTEuMTA2LjA3NC0uMzc1LjEwNi0uNzU0LjA5LTEuMTM2LS4wMTItLjE2OC0uMDQ3LS4zMjUtLjA5LS4zOTktLjAwOC0uMDIzLS4wMTUtLjAzNS0uMDI3LS4wNDNoLS4wMDRhNjQuNzQgNjQuNzQgMCAwIDAtLjAxMi0uMDEybC0uMDYyLS4wMy0uMjAzLS4wNTVjLS4wODYtLjAyOC0uMTY4LS4wMjQtLjI1NC0uMDQzLS4wODItLjAyLS4xNi0uMDA4LS4yNDItLjAyYTUuNTggNS41OCAwIDAgMS0uMjM5LjAyN2MtLjMxNi4wNTEtLjYzMy4yMDctLjk0MS40MjZhNS4zMiA1LjMyIDAgMCAwLS44NjcuODM2Yy0uNTI4LjYzMy0uOTY1IDEuMzMyLTEuMzI4IDEuOTQyLS4zNjQuNjE3LS42NTcgMS4xNDgtLjg2OCAxLjUyM2wtLjMzMi41OThzLS4wMDQtLjA2MyAwLS4xOGMuMDA0LS4xMTcuMDA0LS4yOS4wMjgtLjUwOC4wNS0uNjA1LjE1Mi0xLjIwMy4zMTItMS43ODkuMTk1LS43My41LTEuNTc0IDEuMDMxLTIuNDIyYTUuNDM3IDUuNDM3IDAgMCAxIDEuMDQzLTEuMjE1IDMuNTI2IDMuNTI2IDAgMCAxIDEuNjU3LS43OTdjLjE2LS4wMjMuMzI0LS4wMzUuNDg0LS4wMzkuMTY0LjAwOC4zMjguMDA4LjQ4NC4wMzYuMTUzLjAzLjMxMy4wNS40NTcuMTAxbC4yMTUuMDc0LjEwNi4wMzUuMDE1LjAwOGguMDA4bC4wNzQuMDM1LjAyLjAxMi4wMzkuMDJjLjAzMS4wMDQuNDE4LjI0Mi41MTYuMzk4bC4xMDEuMTMzLjA4Mi4xMzdhMS4yIDEuMiAwIDAgMSAuMTE3LjI3M2MuMTIxLjM2LjEzMy42NzYuMTE4Ljk2MVptMCAwIiBmaWxsPSIjNjdjZmUzIi8+JiN4YTsgICAgPHBhdGggZD0iTTU4LjUyNyA1MS45NDFjLjc3NCAwIDEuNjE4LS4yMDcgMi41MTYtLjYwNSAxLjg3OS0uODQ0IDYuNDUzLTUuNDE4IDExLjY2NC0xMS42Ni4yNzctLjMzMi4zMzYtLjc5My4xNTItMS4xODhhMS4xMTQgMS4xMTQgMCAwIDAtMS4wMTEtLjYzNiAxLjExNyAxLjExNyAwIDAgMC0uODY0LjM5OGMtMi4yNjEgMi43MTktOC42MzIgMTAtMTAuODI0IDExLjAzNWwtLjAzMS4wMmE0Ljc4IDQuNzggMCAwIDEtMS4xNzYuMzY3bC0uODM2LjEzMy0uNjEtLjU4MmExLjE1IDEuMTUgMCAwIDAtLjc3My0uMzAxYy0uMjE0IDAtLjQyMi4wNjItLjU5Ny4xNzZhMS4xMSAxLjExIDAgMCAwLS4zNDQgMS41MzVjLjA4Ni4xMzMuODkgMS4zMDggMi43MzQgMS4zMDhabS0xMC42MjkuMjQ2Yy0uMTggMC0uMzYzLjA0My0uNTIzLjEyNmwtLjMzMi4xNzEtLjM2Ny4wMjhjLS4wOS4wMDQtLjE4LjAwNC0uMjcuMDA0LTEuMDQzIDAtMy42MS0uMzI1LTkuMDY2LTIuNTItNi4wMTYtMi40MTgtOC40MDMtMi43ODEtOS4yODUtMi43ODFhMS42NiAxLjY2IDAgMCAwLS4zMTMuMDIgMS4xMDQgMS4xMDQgMCAwIDAtLjkwMiAxLjI5MyAxLjEzIDEuMTMgMCAwIDAgMS4wOTQuOTE3Yy4wMjMgMCAuMDQ2IDAgLjA3LS4wMDRsLjEyNS0uMDA3LjEyMS4wMTFjLjY2NC4wNTUgMi43OTMuNDIyIDguMjU0IDIuNjE0IDQuNDE0IDEuNzc3IDcuNzU0IDIuNjc1IDkuOTMgMi42NzUgMS4xNDQgMCAxLjkyNS0uMjQ2IDIuMzI0LS43MjJhMS4xMTQgMS4xMTQgMCAwIDAtLjE0NS0xLjU3IDEuMDgzIDEuMDgzIDAgMCAwLS43MTUtLjI1NVptMCAwIiBmaWxsPSIjMDAwIi8+JiN4YTsgICAgPHBhdGggZD0iTTYzLjAwOCA3NS4zNnMtLjMxMyAzLjY3MS01LjUwOCA0LjQzN2MtLjk4NC4xNC0xLjgyOC4yMDctMi41NTUuMjA3LTIuNzYxIDAtMy44NTEtLjkwNi00LjQ5Mi0xLjY5NSAwIDAtNC45NzYgMS42NzEtNS4zNTUgNC41MTUtLjI4NSAyLjEyMSAxLjc3IDMuMjExIDMuNTc4IDMuMjExLjYxIDAgMS4xOTEtLjEyNSAxLjY0OC0uMzc1IDEuODA5LS45OTIgNC41MTItMy4xNjggOC4xMjUtMy42NDQuMzI4LS4wNC43NzgtLjA1NSAxLjMxMy0uMDU1IDEuMjM0IDAgMi45MjIuMDgyIDQuNTU0LjA4MiAxLjg1NiAwIDMuNjQ1LS4xMDYgNC42MzctLjU0NyAyLjIzLS45OTIgMi4yMy0yLjY5NSAyLjA5LTMuNTQ3LS4xNi0uOTQxLTIuNDMtMi41NDMtOC4wMzUtMi41OVptMCAwIiBmaWxsPSIjZGZjYWEzIi8+JiN4YTsgICAgPHBhdGggZD0ibTU2Ljk1NyA3OC4zODMuMTg0LS4wMzEuMjAzLS4wNDNjMi43MDMtLjU1MSA0LjY5MS0yLjEwNiA0LjcxLTMuNjZhMS44NiAxLjg2IDAgMCAwLS4yMjItLjkwM2MtLjctMS4yOTMtMi45NDUtMi4wMDgtNS41MDQtMS42OTFsLS40MTQuMDU4Yy0zLjA5LjUxMi01LjM2MyAyLjMyOC01LjA3NCA0LjA1OS4wMi4xMDEuMDQzLjIuMDc4LjI5My41MzEgMS41NSAzLjEyOSAyLjQwMiA2LjAzOSAxLjkxOFptMCAwIiBmaWxsPSIjMjMxZjIwIi8+JiN4YTs8L3N2Zz4=;" parent="ZmUZul0mUvVKAIZT7241-4" vertex="1">
          <mxGeometry x="587.0185200000001" y="26.40625" width="83.1375" height="94.6875" as="geometry" />
        </mxCell>
        <mxCell id="dY3BJDOpuEyH1GTdtF5J-4" value="" style="shape=image;imageAspect=0;aspect=fixed;verticalLabelPosition=bottom;verticalAlign=top;image=data:image/svg+xml,PHN2ZyB4bWxucz0iaHR0cDovL3d3dy53My5vcmcvMjAwMC9zdmciIHZpZXdCb3g9IjIuNDc2MjUwNDEwMDc5OTU2IDIuNDYzNjczODMwMDMyMzQ4NiAxMjMuMTg0MjQyMjQ4NTM1MTYgMTIzLjE5NjQ1NjkwOTE3OTY5IiB3aWR0aD0iMTIzLjE4NDI0MjI0ODUzNTE2IiBoZWlnaHQ9IjEyMy4xOTY0NTY5MDkxNzk2OSI+JiN4YTsgIDxwYXRoIGQ9Ik02Ny42NDggNjkuNzk3Yy01LjI0NiA1LjI1LTUuMjQ2IDEzLjc1OCAwIDE5LjAwOCA1LjI1IDUuMjQ2IDEzLjc1OCA1LjI0NiAxOS4wMDQgMCA1LjI1LTUuMjUgNS4yNS0xMy43NTggMC0xOS4wMDgtNS4yNDYtNS4yNDYtMTMuNzU0LTUuMjQ2LTE5LjAwNCAwWm0xNC4yMDcgMTQuMjE5YTYuNjQ5IDYuNjQ5IDAgMCAxLTkuNDEgMCA2LjY1IDYuNjUgMCAwIDEgMC05LjQwNyA2LjY0OSA2LjY0OSAwIDAgMSA5LjQxIDBjMi41OTggMi41ODYgMi41OTggNi44MDkgMCA5LjQwN1pNODYuNDMgMy42NzJsLTguMjM1IDguMjM0YTQuMTcgNC4xNyAwIDAgMCAwIDUuODc1bDMyLjE0OSAzMi4xNDlhNC4xNyA0LjE3IDAgMCAwIDUuODc1IDBsOC4yMzQtOC4yMzVjMS42MS0xLjYxIDEuNjEtNC4yNjEgMC01Ljg3TDkyLjI5IDMuNjcxYTQuMTU5IDQuMTU5IDAgMCAwLTUuODYgMFpNMjguNzM4IDEwOC44OTVhMy43NjMgMy43NjMgMCAwIDAgMC01LjMxbC00LjE4My00LjE4N2EzLjc2OCAzLjc2OCAwIDAgMC01LjMxMyAwbC04LjY0NCA4LjY0OS0uMDE2LjAxMi0yLjM3MS0yLjM3NWMtMS4zMTMtMS4zMTMtMy40NS0xLjMxMy00Ljc1IDAtMS4zMTMgMS4zMTItMS4zMTMgMy40NDkgMCA0Ljc1bDE0LjI0NiAxNC4yNDJhMy4zNTMgMy4zNTMgMCAwIDAgNC43NDYgMGMxLjMtMS4zMTMgMS4zMTMtMy40NSAwLTQuNzQ2bC0yLjM3NS0yLjM3NS4wMTYtLjAxMlptMCAwIiBmaWxsPSIjZjVhODAwIi8+JiN4YTsgIDxwYXRoIGQ9Ik03Mi4yOTcgMjcuMzEzIDU0LjAwNCA0NS42MDVjLTEuNjI1IDEuNjI1LTEuNjI1IDQuMzAxIDAgNS45MjZMNjUuMyA2Mi44MjRjNy45ODQtNS43NDYgMTkuMTgtNS4wMzUgMjYuMzYzIDIuMTUzbDkuMTQ4LTkuMTQ5YzEuNjIyLTEuNjI1IDEuNjIyLTQuMjk3IDAtNS45MjJMNzguMjIgMjcuMzEzYTQuMTg1IDQuMTg1IDAgMCAwLTUuOTIyIDBaTTYwLjU1IDY3LjU4NWwtNi42NzItNi42NzJjLTEuNTYzLTEuNTYyLTQuMTI1LTEuNTYyLTUuNjg0IDBsLTIzLjUzIDIzLjU0YTQuMDM2IDQuMDM2IDAgMCAwIDAgNS42ODdsMTMuMzMxIDEzLjMzMmE0LjAzNiA0LjAzNiAwIDAgMCA1LjY4OCAwbDE1LjEzMi0xNS4xNTdjLTMuMTk5LTYuNjA5LTIuNjI1LTE0LjU5MyAxLjczNS0yMC43M1ptMCAwIiBmaWxsPSIjNDI1Y2M3Ii8+JiN4YTs8L3N2Zz4=;" parent="ZmUZul0mUvVKAIZT7241-4" vertex="1">
          <mxGeometry x="722.04" y="35.8625" width="79.53125" height="79.53125" as="geometry" />
        </mxCell>
        <mxCell id="jO-DKgfn7WQjw6IaAnMz-2" value="" style="group" parent="1" vertex="1" connectable="0">
          <mxGeometry x="350" y="-175.34" width="210" height="210.34" as="geometry" />
        </mxCell>
        <mxCell id="WOWLtha6OxNbVoLa1E33-3" value="" style="image;aspect=fixed;perimeter=ellipsePerimeter;html=1;align=center;shadow=0;dashed=0;fontColor=#4277BB;labelBackgroundColor=default;fontSize=12;spacingTop=3;image=img/lib/ibm/vpc/PublicGateway.svg;rotation=-180;" parent="jO-DKgfn7WQjw6IaAnMz-2" vertex="1">
          <mxGeometry x="37.5" width="134.93184126588142" height="134.93184126588142" as="geometry" />
        </mxCell>
        <mxCell id="zEbh_XDyBhYK4brNcNyG-1" value="&lt;font style=&quot;font-size: 20px;&quot;&gt;Load Balencer&lt;/font&gt;" style="text;html=1;align=center;verticalAlign=middle;resizable=0;points=[];autosize=1;strokeColor=none;fillColor=none;fontSize=13;" parent="jO-DKgfn7WQjw6IaAnMz-2" vertex="1">
          <mxGeometry x="30.003333333333337" y="134.93600749427557" width="150" height="40" as="geometry" />
        </mxCell>
        <mxCell id="UDEcwJqGR4pW27N0mKJD-5" value="" style="group" parent="1" vertex="1" connectable="0">
          <mxGeometry x="590" y="-464.63" width="140" height="580" as="geometry" />
        </mxCell>
        <mxCell id="jO-DKgfn7WQjw6IaAnMz-3" value="" style="group" parent="UDEcwJqGR4pW27N0mKJD-5" vertex="1" connectable="0">
          <mxGeometry y="237.13" width="130" height="150.5" as="geometry" />
        </mxCell>
        <mxCell id="WOWLtha6OxNbVoLa1E33-4" value="" style="sketch=0;outlineConnect=0;fontColor=#232F3E;gradientColor=none;fillColor=#E7157B;strokeColor=none;dashed=0;verticalLabelPosition=bottom;verticalAlign=top;align=center;html=1;fontSize=12;fontStyle=0;aspect=fixed;pointerEvents=1;shape=mxgraph.aws4.endpoint;" parent="jO-DKgfn7WQjw6IaAnMz-3" vertex="1">
          <mxGeometry x="17.32" width="100.34" height="100.34" as="geometry" />
        </mxCell>
        <mxCell id="jO-DKgfn7WQjw6IaAnMz-1" value="API Gateway" style="text;html=1;align=center;verticalAlign=middle;resizable=0;points=[];autosize=1;strokeColor=none;fillColor=none;fontSize=18;" parent="jO-DKgfn7WQjw6IaAnMz-3" vertex="1">
          <mxGeometry x="2.49" y="100.34" width="130" height="40" as="geometry" />
        </mxCell>
        <mxCell id="jO-DKgfn7WQjw6IaAnMz-5" value="" style="group" parent="UDEcwJqGR4pW27N0mKJD-5" vertex="1" connectable="0">
          <mxGeometry x="10" y="23.970000000000027" width="120" height="156.63" as="geometry" />
        </mxCell>
        <mxCell id="hfjnwYLyA1dS7Pua6xAl-1" value="" style="sketch=0;points=[[0,0,0],[0.25,0,0],[0.5,0,0],[0.75,0,0],[1,0,0],[0,1,0],[0.25,1,0],[0.5,1,0],[0.75,1,0],[1,1,0],[0,0.25,0],[0,0.5,0],[0,0.75,0],[1,0.25,0],[1,0.5,0],[1,0.75,0]];outlineConnect=0;fontColor=#232F3E;fillColor=#E7157B;strokeColor=#ffffff;dashed=0;verticalLabelPosition=bottom;verticalAlign=top;align=center;html=1;fontSize=12;fontStyle=0;aspect=fixed;shape=mxgraph.aws4.resourceIcon;resIcon=mxgraph.aws4.sns;" parent="jO-DKgfn7WQjw6IaAnMz-5" vertex="1">
          <mxGeometry x="8.669999999999959" width="96.63" height="96.63" as="geometry" />
        </mxCell>
        <mxCell id="jO-DKgfn7WQjw6IaAnMz-4" value="&lt;font style=&quot;font-size: 18px;&quot;&gt;Notification&amp;nbsp;&lt;/font&gt;&lt;div&gt;&lt;font style=&quot;font-size: 18px;&quot;&gt;Service&lt;/font&gt;&lt;/div&gt;" style="text;html=1;align=center;verticalAlign=middle;resizable=0;points=[];autosize=1;strokeColor=none;fillColor=none;" parent="jO-DKgfn7WQjw6IaAnMz-5" vertex="1">
          <mxGeometry y="96.63" width="120" height="60" as="geometry" />
        </mxCell>
        <mxCell id="UDEcwJqGR4pW27N0mKJD-2" value="" style="group" parent="UDEcwJqGR4pW27N0mKJD-5" vertex="1" connectable="0">
          <mxGeometry y="444.63" width="130" height="123" as="geometry" />
        </mxCell>
        <mxCell id="RHB_pN6yy8svmLqYVbG7-3" value="" style="points=[];aspect=fixed;html=1;align=center;shadow=0;dashed=0;fillColor=#FF6A00;strokeColor=none;shape=mxgraph.alibaba_cloud.cloud_auth;" parent="UDEcwJqGR4pW27N0mKJD-2" vertex="1">
          <mxGeometry x="17.32000000000005" width="98.02" height="89.2" as="geometry" />
        </mxCell>
        <mxCell id="UDEcwJqGR4pW27N0mKJD-1" value="&lt;font style=&quot;font-size: 18px;&quot;&gt;Auth Service&lt;/font&gt;" style="text;html=1;align=center;verticalAlign=middle;resizable=0;points=[];autosize=1;strokeColor=none;fillColor=none;" parent="UDEcwJqGR4pW27N0mKJD-2" vertex="1">
          <mxGeometry y="83" width="130" height="40" as="geometry" />
        </mxCell>
      </root>
    </mxGraphModel>
  </diagram>
</mxfile>
